<svg version="1.0" xmlns="http://www.w3.org/2000/svg" preserveAspectRatio="xMidYMid meet" viewBox="32.18 151.18 385.13 146.72">
 <g fill="#FFFFFF" stroke="#FFFFFF" stroke-width="0.5">
  <path d="M112.50 296.45 l-1.75 -0.30 2 -0.10 c1.90 -0.05 11.15 -1.05 34.75 -3.80 5.90 -0.65 16.60 -1.90 23.75 -2.70 7.15 -0.85 16.15 -1.90 20 -2.30 3.80 -0.45 8.05 -0.75 9.40 -0.65 l2.45 0.15 -0.30 -2.75 c-0.15 -1.50 -0.65 -6.90 -1.10 -12 -0.45 -5.10 -0.85 -9.30 -0.90 -9.35 -0.10 -0.10 -37.70 -0.20 -83.60 -0.25 l-83.45 -0.15 -0.15 -2.10 -0.15 -2.10 7.15 -0.15 7.15 -0.15 10.25 -3.70 c47.10 -16.90 89.65 -38.30 135.55 -68.20 l9.30 -6.05 0.35 -4.45 c0.15 -2.50 0.30 -7.35 0.35 -10.80 0.05 -3.45 0.20 -7.55 0.35 -9.05 l0.35 -2.70 2.15 -0.20 2.10 -0.15 0 20.20 c0 11.10 0.15 30.05 0.40 42.15 l0.35 21.95 0.30 -12.25 c0.15 -6.75 0.35 -20.25 0.40 -30.05 0 -9.80 0.20 -23.20 0.40 -29.85 0.25 -10.60 0.40 -12.10 1.10 -12.10 2.20 0.05 2.30 0.35 2.65 13.60 0.25 6.95 0.50 12.90 0.60 13.15 0.45 1.25 28 18.75 43.30 27.60 35.50 20.45 72.65 37.65 105.45 48.85 l6.65 2.30 23 0 22.95 0 -0.15 2.15 -0.15 2.10 -81 0.25 -81 0.25 -0.85 9 c-0.45 4.95 -0.95 10.35 -1.10 12 l-0.30 3 4.35 0 c2.45 0.05 10.50 0.75 17.90 1.65 21.15 2.50 59.50 6.95 65.75 7.55 2.05 0.25 3.10 0.45 2.25 0.50 -4.90 0.25 -227.80 0.25 -229.25 0z m121.20 -7.50 c7.20 -0.85 6.70 -0.15 5.95 -8.25 -0.30 -3.85 -0.85 -9.50 -1.20 -12.55 l-0.55 -5.65 -10.70 0 -10.70 0 0 2.05 c0 1.15 -0.45 6.80 -1.05 12.55 -0.55 5.80 -0.90 10.65 -0.70 10.80 0.40 0.40 8.65 1.45 11.95 1.55 1.35 0 4.50 -0.20 7 -0.50z m-164.15 -33.95 c2.20 -1.65 3.85 -3 3.65 -3 -0.50 0 -15.35 5.50 -15.65 5.80 -0.10 0.10 1.60 0.20 3.85 0.20 l4.10 0 4.05 -3z m10.75 -0.15 c0 -1.60 -0.15 -3 -0.35 -3.15 -0.35 -0.20 -8.45 5.65 -8.45 6.10 0 0.15 1.95 0.15 4.40 0.10 l4.35 -0.15 0.05 -2.90z m21.25 2.95 c0.10 -0.10 0.15 -3.60 0.05 -7.80 l-0.15 -7.55 -7.60 7.30 c-4.20 4.05 -7.65 7.55 -7.75 7.80 -0.20 0.45 15 0.70 15.45 0.25z m22.70 -12.40 c-0.20 -6.95 -0.45 -12.70 -0.50 -12.80 -0.05 -0.05 -3.35 4.55 -7.25 10.25 -3.95 5.70 -7.80 11.25 -8.60 12.25 -0.75 1 -1.40 2.10 -1.40 2.35 0 0.35 3 0.55 9.05 0.55 l9.05 0 -0.35 -12.60z m24.20 -5.40 c-0.05 -9.90 -0.20 -18 -0.40 -18 -0.30 0 -18.20 34.20 -18.45 35.35 -0.15 0.50 1.65 0.65 9.40 0.65 l9.55 0 -0.10 -18z m26.50 4.15 c-0.05 -7.65 -0.20 -18.95 -0.40 -25.15 l-0.30 -11.25 -1.60 3.75 c-1.50 3.45 -6.45 15.40 -15.25 36.75 -1.95 4.70 -3.60 8.80 -3.75 9.15 -0.20 0.45 2.10 0.60 10.55 0.60 l10.80 0 -0.05 -13.85z m25.75 7.25 c0.30 -6.35 1 -29.60 1.55 -51.40 l0.30 -10.25 -11.45 33.75 c-6.30 18.55 -11.35 33.90 -11.25 34.15 0.10 0.20 4.80 0.35 10.40 0.35 l10.15 0 0.30 -6.60z m37.90 6.35 c0.10 -0.15 -5.10 -16.10 -11.55 -35.50 -10.05 -30 -11.85 -34.95 -11.95 -33.10 -0.10 1.15 0.05 9.05 0.35 17.60 0.90 24.90 1.60 49.35 1.40 49.55 -0.10 0.10 -2.60 0.35 -5.50 0.55 -10.25 0.60 -5.20 1.15 10.80 1.15 8.90 0 16.30 -0.10 16.45 -0.25z m6.50 -13.10 c0.10 -16.10 0.25 -29.20 0.35 -29.90 0.10 -0.55 1.35 2.25 5.10 11.25 l2.60 6.25 0.40 9 c0.20 4.95 0.40 10.40 0.40 12.10 l0.05 3.10 -2.35 0.35 c-5.30 0.75 -4 1.15 4.20 1.15 4.70 0.05 8.70 -0.10 8.80 -0.30 0.10 -0.25 -1.85 -5.35 -4.35 -11.40 -2.55 -6.05 -7.05 -16.85 -10 -24 -3 -7.15 -5.60 -13.20 -5.80 -13.40 -0.20 -0.25 -0.40 7.20 -0.45 16.50 0 9.30 -0.20 20.10 -0.35 24 -0.35 7.05 -0.20 8.65 0.80 8.65 0.30 0 0.55 -4.60 0.60 -13.35z m43.90 13 c0 -0.15 -1.55 -3.25 -3.45 -6.85 -1.90 -3.60 -5.85 -11.25 -8.80 -17.05 -2.95 -5.75 -5.55 -10.70 -5.75 -10.90 -0.40 -0.50 -1.15 34 -0.75 34.65 0.35 0.55 18.75 0.70 18.75 0.15z m22.70 -0.25 c-1.60 -2.75 -16.40 -23.90 -16.75 -23.90 -0.25 0 -0.45 5.45 -0.45 12.25 l0 12.25 8.80 0 c6.85 0 8.70 -0.15 8.40 -0.60z m20.30 0.30 c0 -0.40 -13.90 -13.90 -14.55 -14.10 -0.50 -0.20 -0.65 13.55 -0.10 14.05 0.40 0.45 14.65 0.45 14.65 0.05z m14 -0.10 c0 -0.35 -4.60 -3.85 -6.85 -5.25 -0.50 -0.30 -0.65 0.30 -0.65 2.65 l0 3 3.75 0 c2.05 0 3.75 -0.20 3.75 -0.40z m18.40 0.15 c-0.15 -0.15 -3.35 -1.05 -7.20 -2 -3.80 -0.90 -8 -2.05 -9.30 -2.45 -1.35 -0.40 -2.40 -0.60 -2.40 -0.50 0 0.10 1.50 1.30 3.30 2.70 l3.35 2.50 6.25 0 c3.45 0 6.15 -0.10 6 -0.25z m-28.90 -5.65 l0 -3.45 -6.15 -2.55 c-3.40 -1.45 -6.35 -2.60 -6.60 -2.60 -0.50 0 11.80 11.95 12.40 12 0.20 0 0.35 -1.55 0.35 -3.40z m-239.15 -9.45 c-0.10 -0.10 -2.80 0.95 -6.05 2.35 -3.20 1.35 -6.05 2.50 -6.30 2.50 -0.30 0 -0.50 1.65 -0.50 3.80 l0 3.80 6.50 -6.15 c3.60 -3.35 6.40 -6.20 6.35 -6.30z m23.65 -10.90 c0 -0.15 -12.85 5.75 -14.50 6.70 -0.40 0.20 -0.75 1 -0.70 1.75 0 0.70 0.05 4.05 0.10 7.40 l0.10 6.05 7.50 -10.85 c4.15 -6 7.50 -10.95 7.50 -11.05z m171.45 6.45 c0.05 -6.70 -0.10 -9.20 -0.55 -9.60 -0.35 -0.25 -4 -2.25 -8.15 -4.35 -4.10 -2.15 -8 -4.20 -8.60 -4.60 -0.65 -0.35 -1.15 -0.55 -1.15 -0.40 0 0.20 4 8 8.90 17.40 l8.85 17.10 0.30 -3.25 c0.20 -1.80 0.35 -7.35 0.40 -12.30z m22.55 8.30 l0 -7 -7.35 -3.50 c-4 -1.95 -7.40 -3.40 -7.50 -3.30 -0.30 0.30 13.90 20.80 14.40 20.80 0.25 0 0.45 -3.15 0.45 -7z m-178 -9 c4.20 -8.10 8.15 -15.70 8.80 -16.90 0.65 -1.20 1 -2.10 0.75 -2 -2.45 0.95 -18.10 9.30 -18.25 9.75 -0.40 0.95 0.35 24.70 0.75 24.30 0.20 -0.20 3.80 -7.05 7.95 -15.15z m131.05 -3.15 l0.15 -18.45 -8 -4.60 c-4.35 -2.50 -9 -5.20 -10.30 -6 -1.35 -0.75 -2.40 -1.20 -2.40 -1 0 0.20 2.40 6.15 5.30 13.15 6.60 15.85 13.65 32.90 14.25 34.50 0.25 0.65 0.55 1.10 0.65 1 0.15 -0.10 0.30 -8.50 0.35 -18.60z m-110.05 6.40 c2.25 -5.50 6.70 -16.15 9.80 -23.70 3.15 -7.55 5.65 -13.75 5.60 -13.85 -0.10 -0.05 -1.60 0.75 -3.40 1.85 -1.80 1.10 -6.45 3.80 -10.40 6.05 l-7.15 4.05 0.15 13.30 c0.15 17.85 0.40 23.95 0.90 23.05 0.20 -0.40 2.25 -5.25 4.50 -10.75z m83.85 -27.95 l-0.10 -12.45 -5.25 -3.25 c-2.90 -1.75 -7.80 -4.90 -10.95 -6.95 -3.10 -2.05 -5.70 -3.65 -5.80 -3.55 -0.05 0.10 4.75 14.70 10.70 32.50 l10.80 32.40 0.35 -13.15 c0.25 -7.20 0.35 -18.70 0.25 -25.55z m-41.10 -26.70 c-0.10 -0.10 -3.75 2.10 -8.10 4.90 -4.35 2.80 -9.30 5.95 -11 7 l-3.10 1.95 0.25 23.65 c0.15 13 0.35 24.40 0.50 25.30 0.20 1.35 2.35 -4.65 10.95 -30.45 5.90 -17.65 10.65 -32.25 10.50 -32.35z"/>
  <path d="M89.50 255.80 c0.40 -0.40 3.05 -1.50 5.90 -2.50 l5.10 -1.75 0 1.65 c0 1.50 -0.20 1.80 -2 2.50 -1.25 0.50 -3.50 0.80 -5.85 0.80 -3.35 0 -3.75 -0.10 -3.15 -0.70z"/>
  <path d="M115.40 254 l-0.15 -2.55 -2.90 2 c-2.70 1.90 -2.85 1.95 -2.10 0.65 0.40 -0.75 1.90 -3 3.35 -5.05 2.40 -3.30 2.95 -3.80 6.05 -5.05 l3.35 -1.40 0 1.85 c0 1.70 -0.15 1.90 -2.10 2.60 l-2.15 0.80 -0.10 3.30 c-0.10 3.85 0.30 4.10 2.75 1.75 l1.65 -1.65 -0.15 2.50 -0.15 2.50 -3.60 0.15 -3.60 0.15 -0.15 -2.55z"/>
  <path d="M137 250.90 c0.05 -5.25 0.15 -5.85 1.50 -8.40 l1.45 -2.75 0.05 6.90 c0 3.75 0.15 6.85 0.40 6.80 0.20 0 1.70 -2 3.30 -4.50 1.60 -2.45 3.10 -4.45 3.25 -4.45 0.20 0 0.40 1 0.45 2.25 0.05 1.90 -0.25 2.70 -2.45 6 l-2.50 3.75 -2.75 0 -2.70 0 0 -5.60z"/>
  <path d="M141 237.75 c0 -0.30 1.20 -2.60 1.85 -3.60 0.25 -0.35 1.25 -0.95 2.30 -1.40 l1.85 -0.75 0 1.75 c0 1.60 -0.20 1.85 -2.50 3 -2.40 1.20 -3.50 1.55 -3.50 1z"/>
  <path d="M159.85 255.90 c-0.10 -0.35 -0.25 -2.60 -0.30 -4.95 -0.05 -3.65 0.10 -4.85 1.25 -7.65 1.65 -4.20 2.45 -4.75 2.10 -1.50 -0.15 1.35 -0.15 4.45 0.05 6.95 l0.30 4.50 4.65 -9 c2.60 -4.95 4.90 -9.20 5.15 -9.45 0.25 -0.30 0.45 0.75 0.45 2.65 0 2.95 -0.25 3.60 -4.10 11.05 l-4.15 8 -2.55 0 c-1.65 0 -2.70 -0.25 -2.85 -0.60z"/>
  <path d="M169.40 222.45 c0.45 -1.20 1.35 -2.30 2.15 -2.75 1.90 -0.95 1.95 -0.95 1.95 1.05 0 1.50 -0.25 1.85 -2 2.75 -2.75 1.40 -3.05 1.30 -2.10 -1.05z"/>
  <path d="M184 252.50 c0 -3.05 0.35 -5 1.40 -8.15 l1.35 -4.10 0.25 6.25 c0.20 5.20 0.35 6.05 0.80 5 0.35 -0.70 3.10 -7.30 6.20 -14.75 3.10 -7.40 5.85 -13.85 6.10 -14.25 0.30 -0.50 0.35 0.85 0.20 3.75 -0.30 4.30 -0.55 5.05 -5.65 17.40 l-5.35 12.85 -2.65 0 -2.65 0 0 -4z"/>
  <path d="M197.50 208.35 c0 -2 1.85 -4.80 3.15 -4.85 0.25 0 0.35 0.85 0.25 1.85 -0.10 1.50 -0.45 2.05 -1.75 2.80 -1.40 0.80 -1.65 0.85 -1.65 0.20z"/>
  <path d="M218 242.90 c0 -4.50 0.15 -5.20 3.05 -13.70 1.70 -4.95 3.20 -9.15 3.45 -9.35 0.45 -0.50 1.50 2.25 1.50 3.85 0 0.95 -7.30 23.30 -7.80 23.75 -0.10 0.10 -0.20 -1.95 -0.20 -4.55z"/>
  <path d="M216.50 196.25 c0.05 -1.30 0.10 -1.40 0.55 -0.60 0.40 0.70 0.40 1.10 0 1.50 -0.40 0.40 -0.55 0.15 -0.55 -0.90z"/>
  <path d="M272.70 255.65 c-0.15 -0.50 -0.50 -1.45 -0.75 -2.20 -0.30 -0.70 -0.40 -3.40 -0.35 -6 l0.15 -4.70 1.20 3.60 c0.70 2 1.40 3.50 1.65 3.35 0.20 -0.15 0.40 -3.90 0.40 -8.35 l0.05 -8.10 1.45 2.75 c1.45 2.75 1.45 2.80 1.50 11.65 l0 8.85 -2.50 0 c-1.95 0 -2.60 -0.20 -2.80 -0.85z"/>
  <path d="M299.15 255.65 c-0.15 -0.50 -1 -2.35 -1.80 -4.15 -1.20 -2.65 -1.50 -3.95 -1.55 -7.10 0 -2.15 0.05 -3.90 0.20 -3.90 0.15 0 0.55 0.60 0.85 1.40 0.30 0.75 1.50 3.50 2.60 6.10 l2 4.75 0.05 -3.60 c0 -2 0.15 -3.65 0.40 -3.65 0.20 0 1 0.95 1.75 2.15 1.20 1.85 1.35 2.50 1.25 5.35 l-0.15 3.25 -2.65 0.15 c-2.15 0.15 -2.65 0 -2.95 -0.75z"/>
  <path d="M321.50 251.70 c-1.45 -2.60 -2.50 -4.85 -2.40 -4.95 0.10 -0.15 2.45 2.05 5.15 4.75 l5 5 -2.60 0 -2.60 0 -2.55 -4.80z"/>
  <path d="M288.85 231.35 c-0.95 -2.40 -1.05 -2.85 -0.40 -2.85 1.05 0 2 1.60 1.80 3.05 -0.25 2.20 -0.40 2.15 -1.40 -0.20z"/>
  <path d="M276.80 224.20 c-1 -2.15 -0.90 -2.45 0.60 -1.40 0.60 0.40 1.10 1.30 1.10 2 0 1.75 -0.70 1.50 -1.70 -0.60z"/>
  <path d="M303.55 237.45 c-1.30 -1.75 -1.15 -2.30 0.40 -1.45 0.65 0.30 1.05 1.05 1.05 1.75 0 1.60 -0.10 1.55 -1.45 -0.30z"/>
  <path d="M128.85 247.70 c-0.65 -0.65 -0.35 -1.55 0.90 -2.90 1.55 -1.65 1.65 -2.55 0.25 -1.80 -0.80 0.40 -1.10 0.40 -1.30 -0.20 -0.75 -1.90 0.70 -3.30 4.70 -4.50 l1.15 -0.40 -1.10 1.95 c-0.60 1.05 -1.80 3.30 -2.65 5.05 -0.85 1.75 -1.75 3 -1.95 2.80z"/>
  <path d="M265.40 234 c-0.85 -1.85 -7.30 -21.25 -7.10 -21.45 0.10 -0.10 1 0.20 1.95 0.75 1.50 0.80 1.95 1.50 3.20 4.95 0.80 2.20 1.70 4.90 2.05 6 0.60 2.05 0.50 11.10 -0.10 9.75z"/>
  <path d="M250.55 211.45 c-0.85 -2.25 -1.50 -4.20 -1.40 -4.30 0.15 -0.10 0.90 0.20 1.80 0.70 1.50 0.85 1.55 1 1.55 4.30 0 1.85 -0.10 3.35 -0.15 3.35 -0.10 0 -0.90 -1.85 -1.80 -4.05z"/>
  <path d="M153 237.85 c0 -2.05 0.30 -3.05 1.25 -4.35 1.50 -2.05 1.55 -2.20 0.30 -1.50 -1.45 0.75 -1.55 0.65 -1.55 -1.25 0 -1.65 0.10 -1.80 4.50 -3.90 2.50 -1.25 4.50 -2 4.50 -1.75 0 1.35 -3.30 7.85 -5.75 11.35 -1.55 2.25 -2.95 4.05 -3.05 4.05 -0.10 0 -0.20 -1.20 -0.20 -2.65z"/>
  <path d="M238.35 242.45 c-0.15 -0.55 -0.10 -5.60 0.15 -11.10 0.25 -5.55 0.50 -13.15 0.60 -16.85 l0.10 -6.75 0.25 7 c0.40 9.30 0.10 28.75 -0.45 28.75 -0.20 0 -0.50 -0.45 -0.65 -1.05z"/>
  <path d="M228.75 213.25 c-0.20 -0.55 -0.55 -1.60 -0.80 -2.30 -0.40 -1 -0.05 -2.50 1.55 -7.25 1.15 -3.25 2.15 -6.25 2.25 -6.55 0.30 -0.95 2.75 0.25 2.75 1.35 0 0.90 -4.15 13.45 -4.90 14.85 -0.50 0.85 -0.55 0.85 -0.85 -0.10z"/>
  <path d="M221.80 192.70 c-0.85 -2.20 0.45 -2.95 2.45 -1.40 1 0.75 1 0.75 0.05 1.50 -1.30 0.90 -2.10 0.90 -2.50 -0.10z"/>
  <path d="M183.40 225.95 l-0.15 -4.20 -2 3.75 -2 3.75 -0.15 -3.10 c-0.10 -2.35 0.10 -3.60 0.90 -5.10 1.25 -2.50 1.25 -2.70 0 -2.30 -0.85 0.25 -1 0.10 -1 -1.35 0 -1.60 0.20 -1.80 5.70 -4.80 3.15 -1.70 5.80 -3.10 6 -3.10 0.15 0 0.15 0.40 0 0.90 -0.90 2.70 -1.40 3.55 -2.50 4 -1.10 0.55 -1.20 0.85 -1.20 3.90 0 3.10 -1.90 10.15 -3.05 11.40 -0.20 0.25 -0.45 -1.45 -0.55 -3.75z"/>
  <path d="M367.90 255.85 c-0.75 -0.35 -4.45 -3.50 -8.25 -7.10 l-6.90 -6.50 -0.15 4.10 -0.15 4.10 -1.45 -0.55 -1.50 -0.50 0 -5.45 c0 -4.75 -0.10 -5.50 -0.85 -5.80 -0.50 -0.15 -4 -1.75 -7.80 -3.45 -7.95 -3.65 -7.85 -4.25 -0.95 5.50 2.30 3.30 4.30 6.25 4.45 6.60 0.15 0.45 -0.50 0.35 -2.20 -0.25 -2.20 -0.85 -2.80 -1.45 -7.15 -7.60 l-4.75 -6.70 -0.40 4.25 c-0.25 2.35 -0.50 4.35 -0.65 4.45 -0.10 0.10 -0.75 -0.05 -1.45 -0.35 -1.25 -0.55 -1.25 -0.65 -1.30 -6.70 l0 -6.15 -9.25 -4.65 c-5.05 -2.55 -9.20 -4.45 -9.20 -4.25 0 0.25 1.90 4 4.25 8.40 2.30 4.35 4.15 8.05 4.05 8.15 -0.10 0.05 -1.15 -0.35 -2.35 -0.90 -2 -1 -2.50 -1.60 -5.20 -6.80 -1.65 -3.15 -3.15 -5.70 -3.35 -5.70 -0.25 0 -0.40 1.80 -0.40 4 0 2.20 -0.10 4 -0.20 4 -0.15 0 -0.80 -0.20 -1.50 -0.50 l-1.30 -0.50 0 -6.85 -0.05 -6.90 -10.70 -6.05 c-5.90 -3.35 -10.75 -6.05 -10.75 -6 0 0.05 1.70 4 3.75 8.80 2.05 4.80 3.75 9.05 3.75 9.40 0 0.50 -0.60 0.35 -2.05 -0.50 -1.85 -1.05 -2.30 -1.70 -4.65 -7.15 l-2.55 -6 -0.15 4.40 c-0.05 2.40 -0.25 4.35 -0.40 4.35 -0.55 0 -2.45 -1.15 -2.80 -1.70 -0.20 -0.30 -0.25 -3.70 -0.05 -7.60 l0.30 -7.05 -4.45 -2.65 c-2.45 -1.50 -7.80 -4.80 -11.85 -7.35 -4.10 -2.55 -7.50 -4.65 -7.60 -4.65 -0.35 0 0.60 2.70 3.95 11.30 1.80 4.70 3.30 8.70 3.30 8.90 0 0.20 -0.85 -0.10 -1.90 -0.70 -1.35 -0.75 -2.35 -1.90 -3.30 -3.80 -1.50 -2.95 -1.90 -3.30 -1.80 -1.55 0.05 0.60 0.10 1.35 0.05 1.70 -0.05 0.35 -2.80 -1 -6.10 -3 l-6.05 -3.60 0.35 -14.50 c0.20 -7.95 0.50 -17.10 0.70 -20.25 l0.30 -5.75 2 -0.30 c1.10 -0.20 2.15 -0.20 2.35 -0.05 0.15 0.20 0.45 6.55 0.65 14.10 0.60 22.90 1.10 24.75 1.20 4.40 l0.05 -18.40 1.45 0 1.45 0 0.30 4.10 c0.15 2.30 0.40 8.35 0.60 13.45 0.15 5.10 0.45 9.55 0.65 9.80 0.15 0.25 4.80 3.30 10.30 6.75 47.30 29.60 92.40 51.45 139 67.30 l3 1 -1.95 0.05 c-1.95 0.05 -14.85 -2.85 -18.90 -4.20 l-2.15 -0.75 1.30 1.15 c0.70 0.60 2.05 1.70 3 2.45 l1.70 1.35 -2.60 0.05 c-2.40 0 -2.90 -0.20 -6.25 -2.75 l-3.65 -2.70 -0.15 2.70 -0.15 2.75 -2.60 0 c-1.45 -0.05 -3.20 -0.30 -3.95 -0.65z m3.10 -4.35 c0 -1.65 0.05 -3.15 0.10 -3.35 0.05 -0.35 -9.80 -4.70 -12.35 -5.45 -0.55 -0.15 1.80 2.40 5.25 5.75 3.45 3.30 6.40 6 6.65 6 0.20 0.05 0.35 -1.30 0.35 -2.95z"/>
  <path d="M235.05 191.55 c-1.25 -0.95 -1.25 -1.15 0.20 -4.65 0.50 -1.30 -0.55 -1.10 -2.55 0.40 -1.55 1.20 -1.85 1.25 -3.20 0.70 -0.85 -0.35 -1.50 -0.80 -1.50 -1.05 0 -0.35 10.20 -7.45 10.75 -7.45 0.15 0 0.25 1.40 0.25 3.10 0 2.80 -1.80 9.90 -2.45 9.90 -0.20 0 -0.85 -0.45 -1.50 -0.95z"/>
 </g>
</svg>