<svg width="375" height="90" xmlns="http://www.w3.org/2000/svg" version="1.0" preserveAspectRatio="xMidYMid meet" zoomAndPan="magnify">
 <defs>
  <g id="svg_1"/>
 </defs>
 <g>
  <title>Layer 1</title>
  <g id="svg_45" fill="#ffffff">
   <g id="svg_46">
    <g id="svg_47"/>
   </g>
  </g>
  <g id="svg_84" fill="#ffffff">
   <g id="svg_85">
    <g id="svg_86"/>
   </g>
  </g>
  <g id="svg_111">
   <path id="svg_2" stroke-miterlimit="4" stroke-width="0.5" stroke="#ffffff" d="m62.12604,81.20696l-0.86328,-0.14844l0.98828,-0.05078c0.94141,-0.02344 5.51953,-0.51953 17.19922,-1.87891c2.92187,-0.32031 8.21875,-0.9375 11.75781,-1.33593c3.53907,-0.41797 7.9961,-0.9375 9.89844,-1.13672c1.88281,-0.22265 3.98828,-0.37109 4.65625,-0.32031l1.21093,0.07422l-0.14844,-1.35937c-0.07422,-0.74219 -0.32031,-3.41016 -0.54297,-5.93359c-0.22266,-2.51953 -0.42187,-4.59765 -0.44531,-4.62109c-0.05078,-0.05078 -18.66406,-0.10156 -41.38281,-0.125l-41.3086,-0.07422l-0.14844,-2.07813l7.07812,-0.14844l5.07422,-1.82812c23.31641,-8.35546 44.375,-18.93749 67.09766,-33.71873l4.60156,-2.99219l0.17578,-2.19922c0.07422,-1.23828 0.14844,-3.63672 0.17188,-5.33984c0.02343,-1.70703 0.09765,-3.73437 0.17187,-4.47656l0.17578,-1.33203l1.0625,-0.10156l1.03906,-0.07422l0,9.98828c0,5.48828 0.07422,14.85937 0.19922,20.83983l0.17188,10.85156l0.14844,-6.05469c0.07422,-3.33984 0.17578,-10.01171 0.19922,-14.85937c0,-4.84374 0.09766,-11.46874 0.19922,-14.7578c0.125,-5.24218 0.19922,-5.98046 0.54297,-5.98046c1.08985,0.02344 1.14062,0.17187 1.3125,6.72265c0.125,3.4375 0.24609,6.3789 0.29687,6.5c0.22266,0.62109 13.85938,9.27343 21.4336,13.64843c17.57422,10.10937 35.96094,18.61327 52.19922,24.15233l3.28906,1.13672l22.7461,0l-0.07422,1.0625l-0.07422,1.03906l-40.09375,0.125l-40.09766,0.12109l-0.41797,4.44922c-0.22266,2.44922 -0.47266,5.11719 -0.54688,5.93359l-0.14844,1.48438l2.15625,0c1.21094,0.02344 5.19531,0.37109 8.85938,0.81641c10.46875,1.23437 29.45313,3.4375 32.54688,3.73046c1.01562,0.125 1.53515,0.22265 1.11328,0.25c-2.42578,0.12109 -112.76173,0.12109 -113.48048,0zm59.9961,-3.71094c3.5625,-0.41797 3.31641,-0.07031 2.94531,-4.07812c-0.14844,-1.90234 -0.42188,-4.69531 -0.59375,-6.20312l-0.27344,-2.79296l-10.59375,0l0,1.01171c0,0.57032 -0.22266,3.36328 -0.51953,6.20703c-0.27344,2.86719 -0.44531,5.26562 -0.34766,5.33984c0.19922,0.19531 4.28516,0.71484 5.91797,0.76562c0.66797,0 2.22656,-0.10156 3.46484,-0.25zm-81.25391,-16.78515c1.08594,-0.81641 1.90625,-1.48046 1.80469,-1.48046c-0.24609,0 -7.59766,2.71874 -7.7461,2.86719c-0.05078,0.04687 0.79297,0.09765 1.90625,0.09765l2.02735,0l2.00781,-1.48438zm5.32031,-0.07422c0,-0.78906 -0.07422,-1.48046 -0.17187,-1.55468c-0.17578,-0.10156 -4.1836,2.79296 -4.1836,3.01562c0,0.07422 0.96484,0.07422 2.17578,0.04687l2.15625,-0.07422l0.02344,-1.43359zm10.51953,1.46094c0.04688,-0.05078 0.07422,-1.78125 0.02344,-3.85938l-0.07422,-3.73046l-3.76172,3.60937c-2.07812,2 -3.78516,3.73046 -3.83594,3.85546c-0.09766,0.22265 7.42578,0.34766 7.64844,0.125zm11.23438,-6.13281c-0.09766,-3.43359 -0.22266,-6.27734 -0.24609,-6.32812c-0.02344,-0.02344 -1.66016,2.25 -3.58984,5.0664c-1.95313,2.82031 -3.85938,5.5625 -4.25781,6.05859c-0.3711,0.49609 -0.69141,1.03906 -0.69141,1.16016c0,0.17578 1.48438,0.27344 4.48047,0.27344l4.48047,0l-0.17578,-6.23046zm11.98047,-2.66797c-0.02344,-4.89453 -0.09766,-8.90234 -0.19922,-8.90234c-0.14844,0 -9.00781,16.91015 -9.13281,17.48046c-0.07422,0.2461 0.8164,0.32031 4.65234,0.32031l4.73047,0l-0.05078,-8.89843zm13.11719,2.05078c-0.02344,-3.78125 -0.09766,-9.37109 -0.19922,-12.43358l-0.14844,-5.5625l-0.79297,1.85156c-0.74218,1.70703 -3.1914,7.61719 -7.54687,18.17187c-0.96484,2.32422 -1.78125,4.35156 -1.85547,4.52343c-0.10156,0.22265 1.03906,0.29687 5.22266,0.29687l5.34375,0l-0.02344,-6.84765zm12.74609,3.58594c0.14844,-3.14062 0.49609,-14.63671 0.76563,-25.41405l0.14844,-5.07031l-5.66797,16.68749c-3.11719,9.17187 -5.61719,16.76171 -5.5664,16.88671c0.05078,0.09765 2.375,0.17187 5.14844,0.17187l5.02344,0l0.14844,-3.26171zm18.76172,3.13671c0.04688,-0.07422 -2.52735,-7.95703 -5.71875,-17.55077c-4.97266,-14.83202 -5.86719,-17.28124 -5.91406,-16.36718c-0.05078,0.57032 0.02343,4.47656 0.17187,8.70312c0.44531,12.31249 0.79297,24.40233 0.69531,24.49999c-0.05078,0.05078 -1.28906,0.17187 -2.72266,0.26953c-5.07422,0.29687 -2.57422,0.57031 5.34375,0.57031c4.40625,0 8.07031,-0.05078 8.14453,-0.125zm3.21484,-6.47656c0.05078,-7.96093 0.125,-14.43749 0.17578,-14.78124c0.04687,-0.27344 0.66797,1.11328 2.52344,5.5625l1.28516,3.08984l0.19922,4.44922c0.09765,2.44531 0.19922,5.14062 0.19922,5.98046l0.02344,1.53516l-1.16406,0.17187c-2.62109,0.3711 -1.98047,0.57032 2.08203,0.57032c2.32422,0.02344 4.30469,-0.05078 4.35547,-0.14844c0.04688,-0.125 -0.91797,-2.64453 -2.15234,-5.63672c-1.26563,-2.99218 -3.49219,-8.33202 -4.95312,-11.86718c-1.48438,-3.53515 -2.76953,-6.52734 -2.8711,-6.625c-0.09765,-0.125 -0.19531,3.55859 -0.22265,8.15625c0,4.60156 -0.09766,9.9414 -0.17188,11.86718c-0.17187,3.48828 -0.09765,4.27734 0.39453,4.27734c0.14844,0 0.27344,-2.27344 0.29688,-6.60156zm21.73047,6.42968c0,-0.07422 -0.76562,-1.60938 -1.70703,-3.38672c-0.94141,-1.78125 -2.89453,-5.5625 -4.35547,-8.42968c-1.46094,-2.84375 -2.7461,-5.29296 -2.84766,-5.39062c-0.19531,-0.24609 -0.56641,16.80859 -0.3711,17.1328c0.17578,0.26953 9.28125,0.34375 9.28125,0.07422zm11.23828,-0.125c-0.79297,-1.35937 -8.11719,-11.8164 -8.29297,-11.8164c-0.1211,0 -0.22266,2.69531 -0.22266,6.05859l0,6.05468l4.35547,0c3.39062,0 4.30859,-0.07422 4.16015,-0.29687zm10.04688,0.14844c0,-0.19922 -6.87891,-6.87109 -7.19922,-6.97265c-0.25,-0.09765 -0.32422,6.69922 -0.05078,6.94922c0.19922,0.22265 7.25,0.22265 7.25,0.02344zm6.92969,-0.05078c0,-0.17187 -2.27734,-1.90234 -3.39063,-2.59375c-0.24609,-0.14844 -0.32031,0.14844 -0.32031,1.30859l0,1.48438l1.85547,0c1.01563,0 1.85547,-0.09765 1.85547,-0.19922zm9.10938,0.07422c-0.07422,-0.07422 -1.65625,-0.51562 -3.5625,-0.98828c-1.88281,-0.44531 -3.96094,-1.01172 -4.60547,-1.21094c-0.66797,-0.19531 -1.1875,-0.29687 -1.1875,-0.24609c0,0.05078 0.74219,0.64062 1.63281,1.33593l1.66016,1.23437l3.09375,0c1.70703,0 3.04297,-0.05078 2.96875,-0.125zm-14.30469,-2.79297l0,-1.70312l-3.04297,-1.26172c-1.68359,-0.71875 -3.14453,-1.28516 -3.26953,-1.28516c-0.24609,0 5.83985,5.90625 6.13672,5.93359c0.10156,0 0.17578,-0.76953 0.17578,-1.68359zm-118.37891,-4.67187c-0.05078,-0.05078 -1.38672,0.46875 -2.9961,1.16406c-1.58203,0.66406 -2.99609,1.23437 -3.11719,1.23437c-0.14844,0 -0.25,0.81641 -0.25,1.87891l0,1.8789l3.21875,-3.03906c1.78125,-1.65625 3.16797,-3.06641 3.14453,-3.11719zm11.70703,-5.38671c0,-0.07422 -6.36328,2.83984 -7.17969,3.3125c-0.19531,0.09766 -0.3711,0.49219 -0.34375,0.86328c0,0.34766 0.02344,2.0039 0.04688,3.66015l0.05078,2.98828l3.71094,-5.36328c2.05469,-2.96484 3.71485,-5.41406 3.71485,-5.46093zm84.86719,3.1875c0.02344,-3.3125 -0.05078,-4.55078 -0.27344,-4.74609c-0.17187,-0.125 -1.98047,-1.11328 -4.03516,-2.15235c-2.02734,-1.0625 -3.95703,-2.07422 -4.25391,-2.27344c-0.32422,-0.17187 -0.57031,-0.27344 -0.57031,-0.19922c0,0.10156 1.98047,3.95703 4.40625,8.60546l4.37891,8.45312l0.14844,-1.60547c0.09766,-0.89062 0.17187,-3.63672 0.19922,-6.08203zm11.16016,4.10156l0,-3.46093l-3.63672,-1.73047c-1.98047,-0.96094 -3.66406,-1.67968 -3.71094,-1.6289c-0.14844,0.14844 6.87891,10.28124 7.125,10.28124c0.125,0 0.22266,-1.55469 0.22266,-3.46094zm-88.10938,-4.44922c2.07812,-4.0039 4.03516,-7.76171 4.35547,-8.35546c0.32422,-0.59375 0.49609,-1.03906 0.3711,-0.98828c-1.21094,0.46875 -8.95703,4.59765 -9.03125,4.82031c-0.19922,0.46875 0.17187,12.21483 0.37109,12.01562c0.09766,-0.09766 1.87891,-3.48437 3.9336,-7.49219zm64.8711,-1.55468l0.07422,-9.125l-3.96094,-2.27344c-2.15234,-1.23437 -4.45312,-2.57031 -5.09766,-2.96484c-0.66797,-0.3711 -1.1875,-0.59375 -1.1875,-0.49609c0,0.09765 1.1875,3.03906 2.62109,6.5039c3.26953,7.83594 6.75781,16.26562 7.05469,17.05468c0.125,0.32422 0.27344,0.54687 0.32422,0.4961c0.07422,-0.05078 0.14844,-4.20313 0.17187,-9.19531zm-54.47657,3.16406c1.11328,-2.71875 3.31641,-7.98437 4.85156,-11.71874c1.55859,-3.73437 2.79687,-6.80078 2.77344,-6.84765c-0.05078,-0.02344 -0.79297,0.37109 -1.68359,0.91406c-0.89062,0.54297 -3.1914,1.8789 -5.14844,2.99219l-3.53906,2l0.07422,6.57812c0.07422,8.82421 0.19922,11.83984 0.44531,11.39452c0.09766,-0.19531 1.11328,-2.59375 2.22656,-5.31249zm41.50781,-13.8203l-0.05078,-6.15625l-2.59766,-1.60547c-1.4375,-0.86719 -3.86328,-2.42188 -5.42187,-3.4375c-1.53516,-1.01171 -2.82031,-1.80468 -2.87109,-1.7539c-0.02344,0.04688 2.35156,7.26562 5.29688,16.06639l5.34765,16.01952l0.17188,-6.5c0.125,-3.55859 0.17187,-9.24609 0.125,-12.6328zm-20.34375,-13.20312c-0.05078,-0.04688 -1.85937,1.03906 -4.01172,2.42578c-2.15234,1.38281 -4.60156,2.9414 -5.44531,3.46093l-1.53516,0.96094l0.125,11.69531c0.07422,6.42578 0.17187,12.06249 0.24609,12.5078c0.10156,0.66797 1.16406,-2.29687 5.42187,-15.05467c2.92188,-8.72656 5.27344,-15.9453 5.19922,-15.99609zm0,0" fill-rule="nonzero" fill="#ffffff"/>
   <path id="svg_3" stroke-miterlimit="4" stroke-width="0.5" stroke="#ffffff" d="m50.74323,61.10932c0.19531,-0.19922 1.50781,-0.74219 2.91797,-1.23828l2.52734,-0.86328l0,0.8125c0,0.74219 -0.10156,0.89062 -0.99219,1.23829c-0.61719,0.24609 -1.73047,0.39453 -2.89453,0.39453c-1.66016,0 -1.85547,-0.04687 -1.5586,-0.34375zm0,0" fill-rule="nonzero" fill="#ffffff"/>
   <path id="svg_4" stroke-miterlimit="4" stroke-width="0.5" stroke="#ffffff" d="m63.56354,60.21869l-0.07422,-1.26172l-1.4375,0.98828c-1.33594,0.94141 -1.41016,0.96484 -1.03906,0.32031c0.19922,-0.3711 0.94141,-1.48047 1.66016,-2.49609c1.1875,-1.6289 1.46094,-1.8789 2.99219,-2.49609l1.66016,-0.69141l0,0.91406c0,0.83985 -0.07422,0.9375 -1.03906,1.28516l-1.06641,0.39453l-0.04687,1.63281c-0.05078,1.90234 0.14844,2.02734 1.35937,0.86718l0.8164,-0.81641l-0.07422,1.23437l-0.07422,1.23828l-3.5625,0.14844l-0.07422,-1.26172zm0,0" fill-rule="nonzero" fill="#ffffff"/>
   <path id="svg_5" stroke-miterlimit="4" stroke-width="0.5" stroke="#ffffff" d="m74.25495,58.68354c0.02344,-2.59375 0.07422,-2.89062 0.74219,-4.15234l0.71875,-1.35937l0.02344,3.41016c0,1.85547 0.07422,3.38672 0.19922,3.36328c0.09765,0 0.83984,-0.98828 1.63281,-2.22265c0.79297,-1.21484 1.53515,-2.20312 1.60937,-2.20312c0.09765,0 0.19531,0.49609 0.22266,1.11328c0.02344,0.94141 -0.125,1.33593 -1.21484,2.96875l-1.23438,1.85156l-2.69922,0l0,-2.76953zm0,0" fill-rule="nonzero" fill="#ffffff"/>
   <path id="svg_6" stroke-miterlimit="4" stroke-width="0.5" stroke="#ffffff" d="m76.23542,52.18354c0,-0.14844 0.59375,-1.28516 0.91406,-1.78125c0.125,-0.17188 0.6211,-0.46875 1.14063,-0.69141l0.91406,-0.3711l0,0.86719c0,0.78906 -0.09766,0.91407 -1.23828,1.48047c-1.1875,0.59375 -1.73047,0.76953 -1.73047,0.49609zm0,0" fill-rule="nonzero" fill="#ffffff"/>
   <path id="svg_7" stroke-miterlimit="4" stroke-width="0.5" stroke="#ffffff" d="m85.56354,61.15619c-0.04688,-0.17188 -0.12109,-1.28516 -0.14844,-2.44531c-0.02344,-1.80468 0.05078,-2.39844 0.62109,-3.78515c0.81641,-2.07422 1.21094,-2.34765 1.03906,-0.73828c-0.07422,0.66406 -0.07422,2.19922 0.02344,3.43359l0.14844,2.22656l2.30469,-4.44922c1.28516,-2.44922 2.42578,-4.55078 2.54688,-4.67187c0.125,-0.14844 0.22266,0.36719 0.22266,1.30859c0,1.45703 -0.1211,1.78125 -2.02735,5.46484l-2.05469,3.95312l-1.26172,0c-0.8164,0 -1.33984,-0.12109 -1.41406,-0.29687zm0,0" fill-rule="nonzero" fill="#ffffff"/>
   <path id="svg_8" stroke-miterlimit="4" stroke-width="0.5" stroke="#ffffff" d="m90.29401,44.61714c0.22266,-0.59375 0.66797,-1.13672 1.0625,-1.35937c0.94141,-0.46875 0.96484,-0.46875 0.96484,0.51953c0,0.74219 -0.1211,0.91407 -0.98828,1.35937c-1.36328,0.69141 -1.51172,0.64453 -1.03906,-0.51953zm0,0" fill-rule="nonzero" fill="#ffffff"/>
   <path id="svg_9" stroke-miterlimit="4" stroke-width="0.5" stroke="#ffffff" d="m97.52058,59.4765c0,-1.50781 0.17187,-2.47265 0.69141,-4.03124l0.66797,-2.02734l0.125,3.08984c0.09765,2.57422 0.17187,2.99219 0.39453,2.47265c0.17578,-0.34375 1.53516,-3.60937 3.07031,-7.29296c1.53516,-3.65625 2.89453,-6.84765 3.01953,-7.04297c0.14844,-0.25 0.17187,0.41797 0.09765,1.85156c-0.14844,2.1289 -0.26953,2.5 -2.79687,8.60546l-2.64844,6.35155l-2.62109,0l0,-1.97656zm0,0" fill-rule="nonzero" fill="#ffffff"/>
   <path id="svg_10" stroke-miterlimit="4" stroke-width="0.5" stroke="#ffffff" d="m104.20026,37.6484c0,-0.98828 0.91797,-2.375 1.5625,-2.39844c0.12109,0 0.17187,0.41797 0.12109,0.91406c-0.04688,0.74219 -0.22266,1.01172 -0.86328,1.38281c-0.69532,0.39844 -0.82031,0.42187 -0.82031,0.10156zm0,0" fill-rule="nonzero" fill="#ffffff"/>
   <path id="svg_11" stroke-miterlimit="4" stroke-width="0.5" stroke="#ffffff" d="m114.3487,54.73041c0,-2.22656 0.07422,-2.57031 1.51172,-6.77343c0.83985,-2.44922 1.58203,-4.52343 1.70703,-4.62499c0.22266,-0.2461 0.74219,1.11328 0.74219,1.90625c0,0.46875 -3.61328,11.51952 -3.85938,11.74218c-0.05078,0.04688 -0.10156,-0.96484 -0.10156,-2.25zm0,0" fill-rule="nonzero" fill="#ffffff"/>
   <path id="svg_12" stroke-miterlimit="4" stroke-width="0.5" stroke="#ffffff" d="m113.60652,31.66402c0.02734,-0.64062 0.05078,-0.69141 0.27343,-0.29687c0.19922,0.34766 0.19922,0.54297 0,0.74219c-0.19922,0.19922 -0.27343,0.07422 -0.27343,-0.44531zm0,0" fill-rule="nonzero" fill="#ffffff"/>
   <path id="svg_13" stroke-miterlimit="4" stroke-width="0.5" stroke="#ffffff" d="m141.42683,61.0351c-0.07422,-0.25 -0.25,-0.71875 -0.37109,-1.08984c-0.14844,-0.34375 -0.19922,-1.67968 -0.17578,-2.96484l0.07422,-2.32422l0.59766,1.77734c0.34375,0.99219 0.69141,1.73047 0.8164,1.65625c0.09766,-0.07031 0.19531,-1.92578 0.19531,-4.125l0.02734,-4.00781l0.71484,1.35937c0.71875,1.36328 0.71875,1.38672 0.74219,5.76171l0,4.375l-1.23438,0c-0.96484,0 -1.28906,-0.09765 -1.38672,-0.41797zm0,0" fill-rule="nonzero" fill="#ffffff"/>
   <path id="svg_14" stroke-miterlimit="4" stroke-width="0.5" stroke="#ffffff" d="m154.52058,61.0351c-0.07422,-0.25 -0.49609,-1.16406 -0.89453,-2.05469c-0.59375,-1.30859 -0.74219,-1.95312 -0.76563,-3.50781c0,-1.0625 0.02344,-1.92969 0.09766,-1.92969c0.07422,0 0.27344,0.29687 0.42187,0.69141c0.14844,0.37109 0.74219,1.73047 1.28906,3.01562l0.98828,2.35156l0.02343,-1.78125c0,-0.98828 0.07422,-1.80468 0.19922,-1.80468c0.09765,0 0.49609,0.46875 0.86719,1.0625c0.59375,0.91407 0.66797,1.23437 0.61719,2.64453l-0.07422,1.60937l-1.3125,0.07422c-1.0625,0.07422 -1.30859,0 -1.45703,-0.3711zm0,0" fill-rule="nonzero" fill="#ffffff"/>
   <path id="svg_15" stroke-miterlimit="4" stroke-width="0.5" stroke="#ffffff" d="m165.58308,59.08198c-0.71875,-1.28516 -1.23828,-2.39844 -1.1875,-2.44922c0.04688,-0.07422 1.21094,1.01563 2.54687,2.34765l2.47656,2.47265l-2.57422,0l-1.26172,-2.37109zm0,0" fill-rule="nonzero" fill="#ffffff"/>
   <path id="svg_16" stroke-miterlimit="4" stroke-width="0.5" stroke="#ffffff" d="m149.41902,49.01948c-0.46875,-1.1875 -0.51953,-1.41016 -0.19532,-1.41016c0.51953,0 0.98828,0.79297 0.89063,1.50781c-0.125,1.08984 -0.19922,1.0625 -0.69531,-0.09765zm0,0" fill-rule="nonzero" fill="#ffffff"/>
   <path id="svg_17" stroke-miterlimit="4" stroke-width="0.5" stroke="#ffffff" d="m143.45417,45.48433c-0.49219,-1.0625 -0.44532,-1.21094 0.29687,-0.69141c0.29688,0.19531 0.54688,0.64063 0.54688,0.98828c0,0.86328 -0.34766,0.74219 -0.84375,-0.29687zm0,0" fill-rule="nonzero" fill="#ffffff"/>
   <path id="svg_18" stroke-miterlimit="4" stroke-width="0.5" stroke="#ffffff" d="m156.69636,52.03511c-0.64453,-0.86719 -0.57031,-1.13672 0.19922,-0.71875c0.32031,0.14844 0.51953,0.51953 0.51953,0.86719c0,0.78906 -0.05078,0.76562 -0.71875,-0.14844zm0,0" fill-rule="nonzero" fill="#ffffff"/>
   <path id="svg_19" stroke-miterlimit="4" stroke-width="0.5" stroke="#ffffff" d="m70.21979,57.10151c-0.32031,-0.32031 -0.17187,-0.76562 0.44532,-1.43359c0.76953,-0.81641 0.8164,-1.25781 0.125,-0.89062c-0.39453,0.19922 -0.54688,0.19922 -0.64453,-0.09766c-0.3711,-0.9375 0.34765,-1.63281 2.32812,-2.22265l0.5664,-0.19922l-0.54297,0.96484c-0.29688,0.51953 -0.89062,1.62891 -1.3125,2.49609c-0.41797,0.86328 -0.86328,1.48437 -0.96484,1.38281zm0,0" fill-rule="nonzero" fill="#ffffff"/>
   <path id="svg_20" stroke-miterlimit="4" stroke-width="0.5" stroke="#ffffff" d="m137.81355,50.32807c-0.42187,-0.91406 -3.61328,-10.5039 -3.51562,-10.60546c0.05078,-0.04688 0.49609,0.10156 0.96484,0.37109c0.74219,0.39453 0.96484,0.74219 1.58594,2.44922c0.39453,1.08594 0.83985,2.42188 1.01172,2.96484c0.29688,1.01563 0.25,5.48828 -0.04688,4.82031zm0,0" fill-rule="nonzero" fill="#ffffff"/>
   <path id="svg_21" stroke-miterlimit="4" stroke-width="0.5" stroke="#ffffff" d="m130.46198,39.17964c-0.42187,-1.11328 -0.74219,-2.07812 -0.69141,-2.125c0.07422,-0.05078 0.44531,0.09766 0.89062,0.34375c0.74219,0.42187 0.76563,0.49609 0.76563,2.1289c0,0.91407 -0.05078,1.65625 -0.07422,1.65625c-0.05078,0 -0.44531,-0.91406 -0.89062,-2.0039zm0,0" fill-rule="nonzero" fill="#ffffff"/>
   <path id="svg_22" stroke-miterlimit="4" stroke-width="0.5" stroke="#ffffff" d="m82.17292,52.23432c0,-1.01563 0.14844,-1.50781 0.6211,-2.15235c0.74219,-1.01172 0.76562,-1.08594 0.14844,-0.74219c-0.71875,0.3711 -0.76953,0.32031 -0.76953,-0.61719c0,-0.81641 0.05078,-0.89062 2.23047,-1.92969c1.23438,-0.61719 2.22656,-0.98828 2.22656,-0.86328c0,0.66796 -1.63282,3.8789 -2.84766,5.60937c-0.76562,1.11328 -1.46093,2.0039 -1.50781,2.0039c-0.05078,0 -0.10156,-0.59375 -0.10156,-1.30859zm0,0" fill-rule="nonzero" fill="#ffffff"/>
   <path id="svg_23" stroke-miterlimit="4" stroke-width="0.5" stroke="#ffffff" d="m124.42292,54.50776c-0.07422,-0.27344 -0.05078,-2.76953 0.07422,-5.48828c0.125,-2.74609 0.24609,-6.5039 0.29688,-8.33203l0.05078,-3.33594l0.12109,3.46094c0.19922,4.59765 0.05078,14.21483 -0.22266,14.21483c-0.09766,0 -0.24609,-0.22265 -0.32031,-0.51953zm0,0" fill-rule="nonzero" fill="#ffffff"/>
   <path id="svg_24" stroke-miterlimit="4" stroke-width="0.5" stroke="#ffffff" d="m119.66901,40.07027c-0.09765,-0.27344 -0.26953,-0.79297 -0.39453,-1.13672c-0.19922,-0.4961 -0.02344,-1.23828 0.76953,-3.58594c0.5664,-1.60547 1.0625,-3.08984 1.11328,-3.23828c0.14844,-0.46875 1.35937,0.125 1.35937,0.66797c0,0.44531 -2.05469,6.64843 -2.42578,7.34374c-0.24609,0.41797 -0.26953,0.41797 -0.42187,-0.05078zm0,0" fill-rule="nonzero" fill="#ffffff"/>
   <path id="svg_25" stroke-miterlimit="4" stroke-width="0.5" stroke="#ffffff" d="m116.23152,29.91012c-0.42188,-1.08984 0.22266,-1.46093 1.21093,-0.69141c0.4961,0.37109 0.4961,0.37109 0.02735,0.73828c-0.64453,0.44531 -1.04297,0.44531 -1.23828,-0.04688zm0,0" fill-rule="nonzero" fill="#ffffff"/>
   <path id="svg_26" stroke-miterlimit="4" stroke-width="0.5" stroke="#ffffff" d="m97.2237,46.34761l-0.07422,-2.07422l-0.99219,1.85157l-0.98828,1.85547l-0.07422,-1.53125c-0.05078,-1.16406 0.05078,-1.78125 0.44531,-2.52344c0.61719,-1.23437 0.61719,-1.33593 0,-1.13672c-0.42187,0.125 -0.49609,0.05078 -0.49609,-0.66797c0,-0.78906 0.10156,-0.89062 2.82032,-2.37109c1.5625,-0.84375 2.87109,-1.53516 2.97265,-1.53516c0.07422,0 0.07422,0.19922 0,0.44531c-0.44531,1.33593 -0.69531,1.7539 -1.23828,1.97656c-0.54297,0.27344 -0.59375,0.42188 -0.59375,1.92969c0,1.53125 -0.94141,5.01953 -1.51172,5.63671c-0.09766,0.125 -0.22266,-0.71875 -0.26953,-1.85547zm0,0" fill-rule="nonzero" fill="#ffffff"/>
   <path id="svg_27" stroke-miterlimit="4" stroke-width="0.5" stroke="#ffffff" d="m188.55183,61.13276c-0.3711,-0.17188 -2.20313,-1.73047 -4.08594,-3.51172l-3.41406,-3.21094l-0.07422,2.02344l-0.07422,2.02734l-0.71875,-0.26953l-0.74219,-0.2461l0,-2.69531c0,-2.35156 -0.05078,-2.71875 -0.42187,-2.86719c-0.24609,-0.07422 -1.98047,-0.86719 -3.85938,-1.70703c-3.9375,-1.80468 -3.88672,-2.10156 -0.47266,2.71875c1.14062,1.63281 2.12891,3.08984 2.20312,3.26171c0.07422,0.22266 -0.24609,0.17578 -1.08594,-0.12109c-1.08984,-0.42187 -1.38672,-0.71875 -3.54297,-3.75781l-2.34766,-3.3125l-0.19922,2.10156c-0.125,1.16016 -0.24609,2.14843 -0.32031,2.19922c-0.05078,0.05078 -0.375,-0.02344 -0.71875,-0.17187c-0.62109,-0.27344 -0.62109,-0.32422 -0.64453,-3.3125l0,-3.04296l-4.57813,-2.29688c-2.5,-1.26172 -4.55469,-2.20312 -4.55469,-2.10156c0,0.12109 0.94141,1.97656 2.10547,4.15234c1.13672,2.15235 2.05078,3.98047 2.00391,4.02734c-0.05078,0.02734 -0.57031,-0.17188 -1.16406,-0.44141c-0.98828,-0.49609 -1.23828,-0.79297 -2.57422,-3.36328c-0.8164,-1.55859 -1.55859,-2.82031 -1.65625,-2.82031c-0.125,0 -0.19922,0.89062 -0.19922,1.98047c0,1.08594 -0.05078,1.97656 -0.09765,1.97656c-0.07422,0 -0.39844,-0.09765 -0.74609,-0.2461l-0.64063,-0.25l0,-3.38672l-0.02734,-3.41015l-5.29687,-2.99219c-2.91797,-1.65625 -5.32031,-2.98828 -5.32031,-2.96484c0,0.02344 0.84375,1.97656 1.85547,4.35156c1.01563,2.37109 1.85937,4.47265 1.85937,4.64453c0,0.25 -0.29687,0.17578 -1.01562,-0.2461c-0.91797,-0.51953 -1.14063,-0.83984 -2.30078,-3.53515l-1.26562,-2.96485l-0.07422,2.17578c-0.02344,1.18359 -0.1211,2.14844 -0.19531,2.14844c-0.27344,0 -1.21484,-0.56641 -1.38672,-0.83985c-0.09766,-0.14844 -0.125,-1.82812 -0.02344,-3.75781l0.14844,-3.48437l-2.20313,-1.3125c-1.21484,-0.73828 -3.86328,-2.37109 -5.86719,-3.63281c-2.02735,-1.26172 -3.71094,-2.30078 -3.76172,-2.30078c-0.17188,0 0.29687,1.33593 1.95703,5.58984c0.89063,2.32421 1.63282,4.30077 1.63282,4.39843c0,0.10156 -0.42188,-0.04688 -0.94141,-0.34375c-0.66797,-0.3711 -1.16406,-0.94141 -1.63281,-1.87891c-0.74218,-1.46093 -0.94141,-1.63281 -0.89062,-0.76562c0.02344,0.29297 0.04688,0.66406 0.02344,0.83984c-0.02344,0.17188 -1.38672,-0.49609 -3.01953,-1.48437l-2.9961,-1.78125l0.17578,-7.16797c0.09766,-3.92968 0.24609,-8.45312 0.34375,-10.01171l0.14844,-2.84375l0.99219,-0.14844c0.54297,-0.09765 1.0625,-0.09765 1.16406,-0.02344c0.07422,0.09765 0.22266,3.23828 0.32031,6.96875c0.29688,11.32421 0.54297,12.23827 0.59375,2.17578l0.02344,-9.09765l1.4375,0l0.14844,2.02734c0.07422,1.14063 0.19922,4.1289 0.29687,6.65234c0.07422,2.51953 0.22266,4.72265 0.32031,4.84375c0.07422,0.125 2.37891,1.63281 5.10156,3.33984c23.41016,14.6328 45.73828,25.43748 68.80469,33.27341l1.48437,0.4961l-0.96484,0.02344c-0.96484,0.02344 -7.35156,-1.41016 -9.35547,-2.07812l-1.06641,-0.3711l0.64453,0.57032c0.34766,0.29687 1.01563,0.83984 1.48438,1.21093l0.84375,0.66797l-1.28906,0.02344c-1.1875,0 -1.43359,-0.09765 -3.09375,-1.35937l-1.80469,-1.33593l-0.07422,1.33593l-0.07422,1.35937l-1.28906,0c-0.71875,-0.02344 -1.58203,-0.14844 -1.95313,-0.32031zm1.53125,-2.15235c0,-0.81641 0.02734,-1.55468 0.05078,-1.65625c0.02344,-0.17188 -4.85156,-2.32422 -6.11328,-2.69531c-0.27344,-0.07422 0.89062,1.1875 2.59766,2.84375c1.71094,1.63281 3.16797,2.96875 3.29297,2.96875c0.09766,0.02344 0.17187,-0.64453 0.17187,-1.46093zm0,0" fill-rule="nonzero" fill="#ffffff"/>
   <path id="svg_28" stroke-miterlimit="4" stroke-width="0.5" stroke="#ffffff" d="m122.79011,29.33981c-0.62109,-0.46875 -0.62109,-0.56641 0.09766,-2.29688c0.25,-0.64453 -0.27344,-0.54687 -1.26172,0.19531c-0.76563,0.59375 -0.91406,0.62109 -1.58203,0.34766c-0.42188,-0.17188 -0.74609,-0.39453 -0.74609,-0.51953c0,-0.17187 5.05078,-3.68359 5.32422,-3.68359c0.07422,0 0.12109,0.69141 0.12109,1.53125c0,1.38672 -0.89062,4.89844 -1.21094,4.89844c-0.09766,0 -0.42187,-0.22266 -0.74219,-0.47266zm0,0" fill-rule="nonzero" fill="#ffffff"/>
   <g id="svg_29" fill="#ffffff">
    <g id="svg_30">
     <g id="svg_31">
      <path id="svg_32" d="m237.26582,33.31223c0,1.05469 -0.24219,1.9961 -0.71875,2.82813c-0.48047,0.82422 -1.16797,1.46484 -2.0625,1.92187c-0.89844,0.44922 -1.96094,0.67188 -3.1875,0.67188l-4.04687,0l0,5.75l-3.42188,0l0,-16.34375l7.32813,0c1.95703,0 3.46093,0.45312 4.51562,1.35937c1.0625,0.89844 1.59375,2.16797 1.59375,3.8125zm-3.45312,0.0625c0,-1.71875 -1.01172,-2.57812 -3.03125,-2.57812l-3.53125,0l0,5.29687l3.625,0c0.9375,0 1.66015,-0.22656 2.17187,-0.6875c0.50781,-0.46875 0.76563,-1.14453 0.76563,-2.03125zm0,0"/>
     </g>
    </g>
   </g>
   <g id="svg_33" fill="#ffffff">
    <g id="svg_34">
     <g id="svg_35">
      <path id="svg_36" d="m242.63367,44.71849c-1.21875,0 -2.16797,-0.32813 -2.84375,-0.98438c-0.67969,-0.66406 -1.01562,-1.59766 -1.01562,-2.79688c0,-1.30078 0.42187,-2.28906 1.26562,-2.96875c0.84375,-0.67578 2.06641,-1.02343 3.67188,-1.04687l2.70312,-0.04688l0,-0.64062c0,-0.8125 -0.14844,-1.41406 -0.4375,-1.8125c-0.28125,-0.40625 -0.74609,-0.60938 -1.39062,-0.60938c-0.60547,0 -1.04688,0.14063 -1.32813,0.42188c-0.28125,0.27344 -0.46094,0.72656 -0.53125,1.35937l-3.39062,-0.17187c0.20703,-1.21875 0.76562,-2.14063 1.67187,-2.76563c0.90625,-0.63281 2.14453,-0.95312 3.71875,-0.95312c1.58203,0 2.80078,0.39062 3.65625,1.17187c0.86328,0.78125 1.29688,1.89063 1.29688,3.32813l0,4.5625c0,0.71094 0.07812,1.19922 0.23437,1.46875c0.15625,0.26172 0.42188,0.39062 0.79688,0.39062c0.25,0 0.48828,-0.01953 0.71875,-0.0625l0,1.76563c-0.19922,0.04297 -0.375,0.08594 -0.53125,0.125c-0.14844,0.03125 -0.29688,0.05469 -0.45313,0.07813c-0.15625,0.03125 -0.32422,0.05078 -0.5,0.0625c-0.16797,0.01953 -0.37109,0.03125 -0.60937,0.03125c-0.8125,0 -1.41797,-0.19532 -1.8125,-0.59376c-0.38672,-0.40625 -0.6211,-1 -0.70313,-1.78125l-0.0625,0c-0.91797,1.64844 -2.29297,2.46876 -4.125,2.46876zm3.78125,-6.04688l-1.65625,0.03125c-0.76172,0.03125 -1.30469,0.11719 -1.625,0.25c-0.3125,0.13672 -0.55469,0.34375 -0.71875,0.625c-0.16797,0.27344 -0.25,0.64062 -0.25,1.10937c0,0.59375 0.13281,1.03907 0.40625,1.32813c0.28125,0.28125 0.64453,0.42187 1.09375,0.42187c0.50781,0 0.97266,-0.13281 1.39063,-0.40625c0.42578,-0.28125 0.75781,-0.66406 1,-1.15625c0.23828,-0.48828 0.35937,-1.00781 0.35937,-1.5625l0,-0.64062zm0,0"/>
     </g>
    </g>
   </g>
   <g id="svg_37" fill="#ffffff">
    <g id="svg_38">
     <g id="svg_39">
      <path id="svg_40" d="m252.9323,44.48411l0,-9.60938c0,-0.6875 -0.01172,-1.25781 -0.03125,-1.71875c-0.02344,-0.45703 -0.04297,-0.86328 -0.0625,-1.21875l3.10938,0c0.01953,0.13672 0.05078,0.5586 0.09375,1.26563c0.03906,0.71094 0.0625,1.17969 0.0625,1.40625l0.04687,0c0.3125,-0.875 0.59375,-1.48828 0.84375,-1.84375c0.25,-0.36328 0.53906,-0.63281 0.875,-0.8125c0.34375,-0.17578 0.76953,-0.26563 1.28125,-0.26563c0.41406,0 0.75391,0.0586 1.01563,0.17188l0,2.73437c-0.53125,-0.11328 -1,-0.17187 -1.40625,-0.17187c-0.80469,0 -1.4336,0.32812 -1.89063,0.98437c-0.44922,0.65625 -0.67187,1.63282 -0.67187,2.92188l0,6.15625l-3.26563,0zm0,0"/>
     </g>
    </g>
   </g>
   <g id="svg_41" fill="#ffffff">
    <g id="svg_42">
     <g id="svg_43">
      <path id="svg_44" d="m270.18787,44.48411l-3.35938,-5.6875l-1.39062,0.98437l0,4.70313l-3.26563,0l0,-17.20313l3.26563,0l0,9.84375l4.46875,-5.1875l3.5,0l-4.40625,4.89063l4.75,7.65625l-3.5625,0zm0,0"/>
     </g>
    </g>
   </g>
   <g id="svg_48" fill="#ffffff">
    <g id="svg_49">
     <g id="svg_50">
      <path id="svg_51" d="m289.53629,42.03098c2.0625,0 3.49219,-1.03515 4.29688,-3.10937l2.98437,1.125c-0.63672,1.57422 -1.57812,2.74609 -2.82812,3.51562c-1.24219,0.77344 -2.72657,1.15626 -4.45313,1.15626c-2.625,0 -4.65625,-0.74219 -6.09375,-2.23438c-1.4375,-1.48828 -2.15625,-3.57031 -2.15625,-6.25c0,-2.67578 0.69141,-4.73438 2.07813,-6.17188c1.38281,-1.4375 3.39062,-2.15625 6.01562,-2.15625c1.91406,0 3.47656,0.38672 4.6875,1.15625c1.20703,0.76172 2.05469,1.89063 2.54688,3.39063l-3.01563,0.8125c-0.26172,-0.8125 -0.76562,-1.45703 -1.51562,-1.9375c-0.74219,-0.48828 -1.61719,-0.73438 -2.625,-0.73438c-1.55469,0 -2.73047,0.48047 -3.53125,1.4375c-0.79297,0.96094 -1.1875,2.35938 -1.1875,4.20313c0,1.88672 0.41015,3.32422 1.23437,4.3125c0.82031,0.99219 2.00781,1.48437 3.5625,1.48437zm0,0"/>
     </g>
    </g>
   </g>
   <g id="svg_52" fill="#ffffff">
    <g id="svg_53">
     <g id="svg_54">
      <path id="svg_55" d="m299.12045,29.67161l0,-2.39063l3.26563,0l0,2.39063l-3.26563,0zm0,14.8125l0,-12.54688l3.26563,0l0,12.54688l-3.26563,0zm0,0"/>
     </g>
    </g>
   </g>
   <g id="svg_56" fill="#ffffff">
    <g id="svg_57">
     <g id="svg_58">
      <path id="svg_59" d="m305.7171,44.48411l0,-9.60938c0,-0.6875 -0.01172,-1.25781 -0.03125,-1.71875c-0.02344,-0.45703 -0.04297,-0.86328 -0.0625,-1.21875l3.10938,0c0.01953,0.13672 0.05078,0.5586 0.09375,1.26563c0.03906,0.71094 0.0625,1.17969 0.0625,1.40625l0.04687,0c0.3125,-0.875 0.59375,-1.48828 0.84375,-1.84375c0.25,-0.36328 0.53906,-0.63281 0.875,-0.8125c0.34375,-0.17578 0.76953,-0.26563 1.28125,-0.26563c0.41406,0 0.75391,0.0586 1.01563,0.17188l0,2.73437c-0.53125,-0.11328 -1,-0.17187 -1.40625,-0.17187c-0.80469,0 -1.4336,0.32812 -1.89063,0.98437c-0.44922,0.65625 -0.67187,1.63282 -0.67187,2.92188l0,6.15625l-3.26563,0zm0,0"/>
     </g>
    </g>
   </g>
   <g id="svg_60" fill="#ffffff">
    <g id="svg_61">
     <g id="svg_62">
      <path id="svg_63" d="m320.19141,44.71849c-1.90625,0 -3.38282,-0.56641 -4.42188,-1.70313c-1.03125,-1.13281 -1.54687,-2.71094 -1.54687,-4.73438c0,-2.07031 0.51953,-3.6875 1.5625,-4.84375c1.05078,-1.15625 2.53515,-1.73437 4.45312,-1.73437c1.47656,0 2.69531,0.375 3.65625,1.125c0.96875,0.74219 1.57813,1.76172 1.82813,3.0625l-3.28125,0.15625c-0.09375,-0.63281 -0.32813,-1.14453 -0.70313,-1.53125c-0.36719,-0.38281 -0.89062,-0.57813 -1.57812,-0.57813c-1.67969,0 -2.51563,1.40625 -2.51563,4.21875c0,2.88672 0.85156,4.32813 2.5625,4.32813c0.625,0 1.14453,-0.19141 1.5625,-0.57813c0.41406,-0.39453 0.67578,-0.97656 0.78125,-1.75l3.26563,0.15625c-0.11719,0.85547 -0.42188,1.6211 -0.92188,2.29688c-0.5,0.66797 -1.15625,1.1875 -1.96875,1.5625c-0.8125,0.36328 -1.72656,0.54688 -2.73437,0.54688zm0,0"/>
     </g>
    </g>
   </g>
   <g id="svg_64" fill="#ffffff">
    <g id="svg_65">
     <g id="svg_66">
      <path id="svg_67" d="m328.16193,44.48411l0,-17.20313l3.26563,0l0,17.20313l-3.26563,0zm0,0"/>
     </g>
    </g>
   </g>
   <g id="svg_68" fill="#ffffff">
    <g id="svg_69">
     <g id="svg_70">
      <path id="svg_71" d="m339.89921,44.71849c-1.88672,0 -3.33985,-0.55469 -4.35938,-1.67188c-1.01172,-1.125 -1.51562,-2.75391 -1.51562,-4.89063c0,-2.07031 0.51562,-3.66406 1.54687,-4.78125c1.03125,-1.11328 2.48828,-1.67187 4.375,-1.67187c1.80078,0 3.17578,0.60156 4.125,1.79687c0.94531,1.1875 1.42188,2.9375 1.42188,5.25l0,0.09375l-8.04688,0c0,1.21875 0.22266,2.14063 0.67188,2.76563c0.45703,0.61719 1.10156,0.92187 1.9375,0.92187c1.15625,0 1.88281,-0.49218 2.1875,-1.48437l3.07812,0.26562c-0.89844,2.27344 -2.70312,3.40626 -5.42187,3.40626zm0,-10.96876c-0.77344,0 -1.36719,0.27344 -1.78125,0.8125c-0.40625,0.53125 -0.6211,1.27735 -0.64063,2.23438l4.875,0c-0.0625,-1.00781 -0.30859,-1.76953 -0.73437,-2.28125c-0.42969,-0.50781 -1,-0.76563 -1.71875,-0.76563zm0,0"/>
     </g>
    </g>
   </g>
   <g id="svg_72" fill="#ffffff">
    <g id="svg_73">
     <g id="svg_74">
      <path id="svg_75" d="m239.73281,66.71176l-2.64063,0l-2.82812,-10.375c-0.1875,-0.65625 -0.46094,-1.82031 -0.8125,-3.5c-0.19922,0.89844 -0.3711,1.64844 -0.51563,2.25c-0.13672,0.60547 -1.1875,4.48047 -3.15625,11.625l-2.64062,0l-4.8125,-16.34375l2.29687,0l2.9375,10.39062c0.35156,1.29297 0.67578,2.625 0.96875,4c0.1875,-0.84375 0.39844,-1.76562 0.64063,-2.76562c0.23828,-1.00781 1.3125,-4.88281 3.21875,-11.625l2.125,0l2.84375,10.17187c0.42578,1.66797 0.76562,3.07422 1.01562,4.21875l0.10938,-0.40625c0.20703,-0.88281 0.375,-1.60937 0.5,-2.17187c0.13281,-0.5625 1.22265,-4.5 3.26562,-11.8125l2.29688,0l-4.8125,16.34375zm0,0"/>
     </g>
    </g>
   </g>
   <g id="svg_76" fill="#ffffff">
    <g id="svg_77">
     <g id="svg_78">
      <path id="svg_79" d="m247.83036,60.88363c0,1.4375 0.29687,2.54688 0.89062,3.32813c0.59375,0.78125 1.46094,1.17187 2.60938,1.17187c0.90625,0 1.6289,-0.17968 2.17187,-0.54687c0.53906,-0.36328 0.91016,-0.82813 1.10938,-1.39063l1.82812,0.53125c-0.75,1.98047 -2.45312,2.96876 -5.10937,2.96876c-1.85547,0 -3.26563,-0.55079 -4.23438,-1.65626c-0.96875,-1.10156 -1.45312,-2.75 -1.45312,-4.9375c0,-2.07031 0.48437,-3.66015 1.45312,-4.76562c0.96875,-1.10156 2.35156,-1.65625 4.15625,-1.65625c3.6875,0 5.53125,2.22656 5.53125,6.67187l0,0.28125l-8.95312,0zm6.79687,-1.60937c-0.11719,-1.32031 -0.45312,-2.28516 -1.01562,-2.89063c-0.55469,-0.60156 -1.35157,-0.90625 -2.39063,-0.90625c-1.02344,0 -1.82812,0.33985 -2.42187,1.01563c-0.58594,0.67969 -0.90235,1.60547 -0.95313,2.78125l6.78125,0zm0,0"/>
     </g>
    </g>
   </g>
   <g id="svg_80" fill="#ffffff">
    <g id="svg_81">
     <g id="svg_82">
      <path id="svg_83" d="m270.05087,60.38363c0,4.375 -1.54297,6.56251 -4.625,6.56251c-0.94922,0 -1.74219,-0.17188 -2.375,-0.51563c-0.625,-0.34375 -1.13672,-0.89844 -1.53125,-1.67188l-0.01562,0c0,0.24219 -0.01563,0.60938 -0.04688,1.10938c-0.03125,0.49219 -0.05859,0.77344 -0.07812,0.84375l-2.01563,0c0.03906,-0.41406 0.0625,-1.28125 0.0625,-2.59375l0,-14.60938l2.09375,0l0,4.90625c0,0.5 -0.01562,1.08985 -0.04687,1.76563l0.04687,0c0.38281,-0.80078 0.89453,-1.375 1.53125,-1.71875c0.64453,-0.35156 1.4375,-0.53125 2.375,-0.53125c1.58203,0 2.75,0.53906 3.5,1.60937c0.75,1.0625 1.125,2.67969 1.125,4.84375zm-2.20312,0.0625c0,-1.75 -0.23438,-3.0039 -0.70313,-3.76562c-0.46094,-0.75781 -1.21094,-1.14063 -2.25,-1.14063c-1.17969,0 -2.03906,0.40625 -2.57812,1.21875c-0.53125,0.80469 -0.79688,2.07422 -0.79688,3.8125c0,1.64844 0.25781,2.86719 0.78125,3.65625c0.53125,0.78125 1.39063,1.17188 2.57813,1.17188c1.03906,0 1.79687,-0.38281 2.26562,-1.15625c0.46875,-0.78125 0.70313,-2.04688 0.70313,-3.79688zm0,0"/>
     </g>
    </g>
   </g>
   <g id="svg_87" fill="#ffffff">
    <g id="svg_88">
     <g id="svg_89">
      <path id="svg_90" d="m293.6493,58.36801c0,1.6875 -0.32813,3.16797 -0.98438,4.4375c-0.65625,1.26172 -1.58984,2.23047 -2.79687,2.90625c-1.21094,0.66797 -2.60157,1 -4.17188,1l-6.10937,0l0,-16.34375l5.40625,0c2.75781,0 4.89062,0.69922 6.39062,2.09375c1.50781,1.38672 2.26563,3.35547 2.26563,5.90625zm-2.23438,0c0,-2.01953 -0.55859,-3.5625 -1.67187,-4.625c-1.10547,-1.0625 -2.70313,-1.59375 -4.79688,-1.59375l-3.15625,0l0,12.78125l3.64063,0c1.20703,0 2.26562,-0.25781 3.17187,-0.78125c0.90625,-0.51953 1.59766,-1.27344 2.07813,-2.26563c0.48828,-0.98828 0.73437,-2.16015 0.73437,-3.51562zm0,0"/>
     </g>
    </g>
   </g>
   <g id="svg_91" fill="#ffffff">
    <g id="svg_92">
     <g id="svg_93">
      <path id="svg_94" d="m297.98343,60.88363c0,1.4375 0.29687,2.54688 0.89062,3.32813c0.59375,0.78125 1.46094,1.17187 2.60938,1.17187c0.90625,0 1.6289,-0.17968 2.17187,-0.54687c0.53906,-0.36328 0.91016,-0.82813 1.10938,-1.39063l1.82812,0.53125c-0.75,1.98047 -2.45312,2.96876 -5.10937,2.96876c-1.85547,0 -3.26563,-0.55079 -4.23438,-1.65626c-0.96875,-1.10156 -1.45312,-2.75 -1.45312,-4.9375c0,-2.07031 0.48437,-3.66015 1.45312,-4.76562c0.96875,-1.10156 2.35156,-1.65625 4.15625,-1.65625c3.6875,0 5.53125,2.22656 5.53125,6.67187l0,0.28125l-8.95312,0zm6.79687,-1.60937c-0.11719,-1.32031 -0.45312,-2.28516 -1.01562,-2.89063c-0.55469,-0.60156 -1.35157,-0.90625 -2.39063,-0.90625c-1.02344,0 -1.82812,0.33985 -2.42187,1.01563c-0.58594,0.67969 -0.90235,1.60547 -0.95313,2.78125l6.78125,0zm0,0"/>
     </g>
    </g>
   </g>
   <g id="svg_95" fill="#ffffff">
    <g id="svg_96">
     <g id="svg_97">
      <path id="svg_98" d="m319.00083,63.24301c0,1.1875 -0.44922,2.10547 -1.34375,2.75c-0.88672,0.63672 -2.13672,0.95313 -3.75,0.95313c-1.5625,0 -2.76563,-0.25391 -3.60938,-0.76563c-0.84375,-0.51953 -1.39844,-1.32813 -1.65625,-2.42188l1.84375,-0.35937c0.17578,0.67969 0.53906,1.17187 1.09375,1.48437c0.5625,0.3125 1.33594,0.46875 2.32813,0.46875c1.0625,0 1.83593,-0.16015 2.32812,-0.48437c0.48828,-0.32031 0.73438,-0.8125 0.73438,-1.46875c0,-0.48828 -0.17188,-0.88281 -0.51563,-1.1875c-0.33594,-0.3125 -0.88281,-0.57031 -1.64062,-0.78125l-1.5,-0.39063c-1.19922,-0.3125 -2.05469,-0.61328 -2.5625,-0.90625c-0.5,-0.30078 -0.89844,-0.66015 -1.1875,-1.07812c-0.28125,-0.42578 -0.42188,-0.95313 -0.42188,-1.57813c0,-1.14453 0.40625,-2.01562 1.21875,-2.60937c0.82031,-0.60156 2.01563,-0.90625 3.57813,-0.90625c1.38281,0 2.48437,0.24609 3.29687,0.73437c0.8125,0.49219 1.32813,1.27344 1.54688,2.34375l-1.875,0.23438c-0.11719,-0.5625 -0.42969,-0.98828 -0.9375,-1.28125c-0.51172,-0.30078 -1.1875,-0.45313 -2.03125,-0.45313c-0.94922,0 -1.64844,0.14844 -2.09375,0.4375c-0.44922,0.28125 -0.67188,0.71485 -0.67188,1.29688c0,0.35547 0.09375,0.65234 0.28125,0.89062c0.1875,0.23047 0.45703,0.42969 0.8125,0.59375c0.36328,0.15625 1.13281,0.375 2.3125,0.65625c1.10156,0.28125 1.89453,0.54297 2.375,0.78125c0.48828,0.23047 0.875,0.49219 1.15625,0.78125c0.28125,0.28125 0.5,0.60938 0.65625,0.98438c0.15625,0.375 0.23438,0.80469 0.23438,1.28125zm0,0"/>
     </g>
    </g>
   </g>
   <g id="svg_99" fill="#ffffff">
    <g id="svg_100">
     <g id="svg_101">
      <path id="svg_102" d="m321.45059,51.49301l0,-1.98438l2.07813,0l0,1.98438l-2.07813,0zm0,15.21875l0,-12.54688l2.07813,0l0,12.54688l-2.07813,0zm0,0"/>
     </g>
    </g>
   </g>
   <g id="svg_103" fill="#ffffff">
    <g id="svg_104">
     <g id="svg_105">
      <path id="svg_106" d="m331.49125,71.63364c-1.375,0 -2.46875,-0.27344 -3.28125,-0.8125c-0.8125,-0.53125 -1.33594,-1.29297 -1.5625,-2.28125l2.10937,-0.29688c0.13281,0.58203 0.4375,1.03125 0.90625,1.34375c0.47656,0.3125 1.10156,0.46875 1.875,0.46875c2.08203,0 3.125,-1.21875 3.125,-3.65625l0,-2.01563l-0.01562,0c-0.39844,0.80469 -0.9375,1.40625 -1.625,1.8125c-0.6875,0.40625 -1.4961,0.60938 -2.42188,0.60938c-1.53125,0 -2.66406,-0.50781 -3.39062,-1.53125c-0.71875,-1.01953 -1.07813,-2.625 -1.07813,-4.8125c0,-2.21875 0.38281,-3.85156 1.15625,-4.90625c0.78125,-1.0625 1.96094,-1.59375 3.54688,-1.59375c0.89453,0 1.66406,0.20312 2.3125,0.60937c0.65625,0.40625 1.16015,0.98438 1.51562,1.73438l0.03125,0c0,-0.22656 0.01563,-0.62891 0.04688,-1.20313c0.03125,-0.57031 0.05468,-0.88281 0.07812,-0.9375l1.98438,0c-0.04297,0.41797 -0.0625,1.28125 -0.0625,2.59375l0,9.59375c0,3.51954 -1.75,5.28126 -5.25,5.28126zm3.17187,-11.20313c0,-1.00781 -0.14062,-1.88281 -0.42187,-2.625c-0.27344,-0.73828 -0.66407,-1.30078 -1.17188,-1.6875c-0.51172,-0.39453 -1.08594,-0.59375 -1.71875,-0.59375c-1.07422,0 -1.85547,0.38672 -2.34375,1.15625c-0.48047,0.77344 -0.71875,2.02344 -0.71875,3.75c0,1.71875 0.22266,2.95312 0.67188,3.70312c0.45703,0.75 1.24218,1.125 2.35937,1.125c0.65625,0 1.23828,-0.1914 1.75,-0.57812c0.50781,-0.38281 0.89844,-0.9375 1.17188,-1.65625c0.28125,-0.72656 0.42187,-1.59375 0.42187,-2.59375zm0,0"/>
     </g>
    </g>
   </g>
   <g id="svg_107" fill="#ffffff">
    <g id="svg_108">
     <g id="svg_109">
      <path id="svg_110" d="m347.89923,66.71176l0,-7.95313c0,-0.83203 -0.08594,-1.47265 -0.25,-1.92187c-0.15625,-0.45703 -0.41406,-0.78516 -0.76562,-0.98438c-0.35547,-0.20703 -0.875,-0.3125 -1.5625,-0.3125c-1.01172,0 -1.8086,0.34375 -2.39063,1.03125c-0.57422,0.6875 -0.85937,1.64844 -0.85937,2.875l0,7.26563l-2.09375,0l0,-9.875c0,-1.45703 -0.02344,-2.34766 -0.0625,-2.67188l1.96875,0c0.00781,0.04297 0.01562,0.14844 0.01562,0.3125c0.00781,0.16797 0.01953,0.36719 0.03125,0.59375c0.01953,0.21875 0.03516,0.63282 0.04688,1.23438l0.03125,0c0.47656,-0.86328 1.03125,-1.47266 1.65625,-1.82813c0.63281,-0.36328 1.42187,-0.54687 2.35937,-0.54687c1.375,0 2.37891,0.34375 3.01563,1.03125c0.64453,0.67969 0.96875,1.80859 0.96875,3.39062l0,8.35938l-2.10938,0zm0,0"/>
     </g>
    </g>
   </g>
  </g>
 </g>
</svg>