<svg xmlns="http://www.w3.org/2000/svg" xmlns:xlink="http://www.w3.org/1999" viewBox="0 0 370 230"
  preserveAspectRatio="xMidYMid meet" version="1.0">
  <defs>
    <g />
  </defs>
  <path stroke-linecap="butt" transform="matrix(0.495, 0, 0, 0.494426, 9.630042, 81.29453)" fill-opacity="1"
    fill="#001f3f" fill-rule="nonzero" stroke-linejoin="miter"
    d="M 112.497712 296.449935 L 110.75371 296.149714 L 112.750238 296.047006 C 114.652069 295.999603 123.900807 294.996231 147.496136 292.246832 C 153.398915 291.598985 164.099673 290.350695 171.249295 289.552738 C 178.398916 288.699476 187.40302 287.6487 191.246139 287.253672 C 195.049801 286.803339 199.303274 286.503118 200.652706 286.597925 L 203.099044 286.748035 L 202.79917 283.998637 C 202.649233 282.497529 202.152074 277.101439 201.702264 271.997671 C 201.252453 266.901803 200.849991 262.6987 200.802642 262.651296 C 200.700054 262.548589 163.097463 262.453782 117.200996 262.398478 L 33.749286 262.248367 L 33.599349 260.146816 L 33.449412 258.053165 L 47.748655 257.752943 L 57.999603 254.047576 C 105.103457 237.148256 147.646073 215.753512 193.550432 185.849854 L 202.846519 179.798018 L 203.201632 175.349997 C 203.351569 172.853416 203.501506 168.002466 203.548855 164.549917 C 203.596203 161.097368 203.74614 156.996972 203.896077 155.503764 L 204.251191 152.801769 L 206.397655 152.596355 L 208.496772 152.446244 L 208.496772 172.648002 C 208.496772 183.748303 208.646709 202.70177 208.899234 214.797543 L 209.246456 236.753228 L 209.54633 224.499443 C 209.696267 217.752356 209.901444 204.250282 209.948792 194.453575 C 209.948792 184.648968 210.146077 171.249601 210.351254 164.597321 C 210.603779 154.002656 210.753716 152.501548 211.448161 152.501548 C 213.649866 152.548951 213.752454 152.849173 214.099676 166.098429 C 214.352201 173.050931 214.596835 179.00006 214.699424 179.252878 C 215.149234 180.501168 242.698163 198.000931 257.999616 206.84957 C 293.50309 227.296245 330.647979 244.503687 363.45259 255.698795 L 370.097161 257.997861 L 416.048869 257.997861 L 415.898932 260.146816 L 415.748995 262.248367 L 334.751515 262.501186 L 253.746143 262.746103 L 252.901762 271.752753 C 252.451951 276.69851 251.946901 282.1025 251.796964 283.753719 L 251.49709 286.748035 L 255.853151 286.748035 C 258.29949 286.803339 266.348733 287.49859 273.75088 288.399255 C 294.899871 290.903735 333.252146 295.351756 339.502147 295.9522 C 341.553914 296.197117 342.603472 296.402532 341.7512 296.449935 C 336.850631 296.702754 113.949733 296.702754 112.497712 296.449935 Z M 233.70195 288.952294 C 240.89892 288.099033 240.401761 288.802184 239.652077 280.696199 C 239.352203 276.848621 238.799804 271.199713 238.452582 268.150093 L 237.900183 262.501186 L 216.498666 262.501186 L 216.498666 264.547433 C 216.498666 265.700917 216.048856 271.349824 215.449108 277.101439 C 214.896709 282.900458 214.549487 287.751408 214.746772 287.901519 C 215.149234 288.296547 223.403654 289.347323 226.702265 289.45003 C 228.051697 289.45003 231.200372 289.252516 233.70195 288.952294 Z M 69.552634 255.003545 C 71.746447 253.352325 73.403644 252.001328 73.198467 252.001328 C 72.701308 252.001328 57.849666 257.500125 57.549792 257.800346 C 57.447204 257.903054 59.151749 257.997861 61.400802 257.997861 L 65.496447 257.997861 Z M 80.300741 254.853434 C 80.300741 253.249618 80.150804 251.851217 79.953518 251.701106 C 79.598405 251.503592 71.501813 257.350014 71.501813 257.800346 C 71.501813 257.950457 73.450993 257.950457 75.897331 257.903054 L 80.253392 257.752943 Z M 101.55232 257.800346 C 101.647017 257.697639 101.702257 254.197686 101.599669 250.002484 L 101.449732 242.449539 L 93.8503 249.749665 C 89.652067 253.802658 86.203519 257.30261 86.10093 257.547528 C 85.903645 257.997861 101.10251 258.250679 101.55232 257.800346 Z M 124.248029 245.396451 C 124.050743 238.45185 123.798218 232.700235 123.75087 232.597528 C 123.703521 232.550124 120.397018 237.148256 116.49866 242.852468 C 112.552952 248.548779 108.701942 254.10288 107.897018 255.098351 C 107.147333 256.101724 106.500237 257.199903 106.500237 257.452721 C 106.500237 257.800346 109.498975 257.997861 115.55169 257.997861 L 124.603142 257.997861 Z M 148.450998 240.000362 C 148.403649 230.100948 148.253712 222.002863 148.048535 222.002863 C 147.748662 222.002863 129.850933 256.196531 129.598408 257.350014 C 129.448471 257.84775 131.247714 257.997861 138.997083 257.997861 L 148.553586 257.997861 Z M 174.950368 244.148161 C 174.90302 236.500409 174.753083 225.202594 174.547906 219.000647 L 174.248032 207.750235 L 172.646075 211.503005 C 171.146706 214.947654 166.198789 226.901217 157.399862 248.248557 C 155.450682 252.949396 153.801377 257.049792 153.65144 257.397417 C 153.446263 257.84775 155.750556 257.997861 164.202261 257.997861 L 174.997717 257.997861 Z M 200.700054 251.400885 C 200.999928 245.048826 201.702264 221.797448 202.246771 199.999775 L 202.546645 189.752736 L 191.096202 223.503971 C 184.798854 242.04661 179.748348 257.397417 179.850937 257.650236 C 179.953525 257.84775 184.648917 257.997861 190.251821 257.997861 L 200.40018 257.997861 Z M 238.602519 257.752943 C 238.697216 257.602832 233.496773 241.651581 227.049488 222.247781 C 217.003717 192.249316 215.196583 187.303559 215.101886 189.152293 C 214.999297 190.297875 215.149234 198.198445 215.449108 206.746862 C 216.348729 231.649459 217.051065 256.101724 216.85378 256.299238 C 216.751191 256.401946 214.249613 256.646863 211.353464 256.852278 C 201.102516 257.452721 206.153022 257.997861 222.148919 257.997861 C 231.050435 257.997861 238.452582 257.903054 238.602519 257.752943 Z M 245.097153 244.653798 C 245.199741 228.552436 245.349678 215.453291 245.452267 214.75014 C 245.546964 214.1971 246.801698 217.001802 250.55012 226.000552 L 253.146396 232.249903 L 253.548858 241.248652 C 253.746143 246.202309 253.95132 251.653703 253.95132 253.352325 L 253.998669 256.449349 L 251.647027 256.796974 C 246.351888 257.547528 247.64608 257.950457 255.853151 257.950457 C 260.548543 257.997861 264.54949 257.84775 264.652078 257.650236 C 264.746775 257.397417 262.797596 252.30155 260.303909 246.249713 C 257.747091 240.197876 253.248984 229.397797 250.297595 222.247781 C 247.298858 215.097765 244.702582 209.053829 244.497405 208.848414 C 244.30012 208.603496 244.102835 216.053734 244.047595 225.352705 C 244.047595 234.651676 243.850309 245.451755 243.700373 249.346736 C 243.35315 256.401946 243.503087 257.997861 244.497405 257.997861 C 244.797279 257.997861 245.049804 253.399729 245.097153 244.653798 Z M 288.997093 257.650236 C 288.997093 257.500125 287.450375 254.403101 285.548544 250.800441 C 283.646714 247.197781 279.701006 239.550029 276.749617 233.751011 C 273.798228 227.999396 271.201953 223.053639 270.996776 222.848224 C 270.602205 222.350488 269.852521 256.852278 270.247091 257.500125 C 270.602205 258.053165 288.997093 258.203275 288.997093 257.650236 Z M 311.700693 257.397417 C 310.098735 254.648019 295.302333 233.498193 294.947219 233.498193 C 294.702585 233.498193 294.497409 238.949586 294.497409 245.751977 L 294.497409 257.997861 L 303.296336 257.997861 C 310.146084 257.997861 312.000566 257.84775 311.700693 257.397417 Z M 331.997411 257.697639 C 331.997411 257.30261 318.10063 243.800536 317.453534 243.603022 C 316.948483 243.397607 316.798547 257.1525 317.350946 257.650236 C 317.753408 258.100568 331.997411 258.100568 331.997411 257.697639 Z M 345.996781 257.602832 C 345.996781 257.247307 341.396086 253.747354 339.147033 252.348953 C 338.649874 252.048731 338.499937 252.649175 338.499937 255.003545 L 338.499937 257.997861 L 342.248359 257.997861 C 344.300127 257.997861 345.996781 257.800346 345.996781 257.602832 Z M 364.39956 257.752943 C 364.249623 257.602832 361.0536 256.702167 357.20259 255.746198 C 353.398928 254.853434 349.200695 253.699951 347.898612 253.297021 C 346.54918 252.901993 345.499622 252.696578 345.499622 252.799286 C 345.499622 252.901993 346.99899 254.10288 348.798233 255.501281 L 352.152084 257.997861 L 358.402085 257.997861 C 361.850633 257.997861 364.549497 257.903054 364.39956 257.752943 Z M 335.501199 252.096135 L 335.501199 248.651486 L 329.353787 246.099602 C 325.952588 244.653798 323.001198 243.500314 322.748673 243.500314 C 322.251514 243.500314 334.546338 255.453877 335.146086 255.501281 C 335.351262 255.501281 335.501199 253.952769 335.501199 252.096135 Z M 96.351878 242.647053 C 96.24929 242.552246 93.550426 243.603022 90.299163 245.001423 C 87.10314 246.35242 84.246448 247.498003 84.001814 247.498003 C 83.70194 247.498003 83.496764 249.149222 83.496764 251.298177 L 83.496764 255.098351 L 89.999289 248.951708 C 93.597774 245.601866 96.399226 242.74976 96.351878 242.647053 Z M 120.002448 231.752167 C 120.002448 231.602056 107.147333 237.503782 105.498028 238.45185 C 105.103457 238.649364 104.748343 239.447322 104.803583 240.197876 C 104.803583 240.901027 104.850932 244.250869 104.89828 247.60071 L 105.000868 253.652547 L 112.497712 242.797164 C 116.648597 236.800631 120.002448 231.846974 120.002448 231.752167 Z M 291.451323 238.199032 C 291.498671 231.499348 291.348734 229.002768 290.898924 228.599839 C 290.551701 228.347021 286.897976 226.348177 282.747092 224.246625 C 278.651448 222.09767 274.753089 220.051422 274.153342 219.648493 C 273.498354 219.300868 273.001195 219.103354 273.001195 219.253465 C 273.001195 219.450979 277.002142 227.248842 281.902711 236.65052 L 290.748987 253.747354 L 291.04886 250.50022 C 291.246146 248.69889 291.396083 243.152689 291.451323 238.199032 Z M 313.997094 246.502531 L 313.997094 239.502626 L 306.650187 236.002673 C 302.64924 234.051233 299.24804 232.597528 299.153343 232.700235 C 298.85347 233.000457 313.050125 253.502436 313.547284 253.502436 C 313.799809 253.502436 313.997094 250.350109 313.997094 246.502531 Z M 135.998345 237.503782 C 140.196578 229.397797 144.150177 221.797448 144.797273 220.596562 C 145.45226 219.403576 145.799482 218.502911 145.546957 218.597717 C 143.100618 219.553686 127.451943 227.896688 127.302006 228.347021 C 126.899544 229.30299 127.649229 253.052104 128.051691 252.649175 C 128.248976 252.45166 131.847461 245.601866 135.998345 237.503782 Z M 267.051069 234.351454 L 267.201005 215.903623 L 259.199111 211.297591 C 254.850941 208.80101 250.202898 206.099015 248.900815 205.301058 C 247.551383 204.550504 246.501825 204.100171 246.501825 204.297686 C 246.501825 204.5031 248.900815 210.45223 251.796964 217.452135 C 258.402078 233.300678 265.449111 250.350109 266.048859 251.953925 C 266.301384 252.601771 266.601258 253.052104 266.703846 252.949396 C 266.853783 252.846689 267.00372 244.448383 267.051069 234.351454 Z M 156.9974 240.750916 C 159.246453 235.252119 163.697211 224.602151 166.798537 217.049206 C 169.947211 209.496261 172.44879 203.302214 172.401441 203.199506 C 172.298853 203.152103 170.799484 203.95006 169.000241 205.04824 C 167.200999 206.146419 162.552956 208.848414 158.599357 211.100076 L 151.449735 215.153069 L 151.599672 228.449728 C 151.749609 246.297116 152.002134 252.396356 152.499293 251.503592 C 152.696579 251.100663 154.748346 246.249713 156.9974 240.750916 Z M 240.851572 212.798699 L 240.748983 200.3474 L 235.501193 197.100266 C 232.597152 195.34634 227.696584 192.201913 224.547909 190.147764 C 221.446583 188.101517 218.850308 186.497701 218.747719 186.600408 C 218.700371 186.703116 223.498351 201.303369 229.448478 219.103354 L 240.251824 251.503592 L 240.599047 238.349143 C 240.851572 231.151723 240.946269 219.648493 240.851572 212.798699 Z M 199.753084 186.102673 C 199.650496 185.999965 195.996771 188.196324 191.648601 191.001026 C 187.300432 193.797828 182.352515 196.950155 180.647969 198.000931 L 177.546643 199.952372 L 177.799169 223.598778 C 177.949106 236.603117 178.146391 248.003639 178.296328 248.896404 C 178.501505 250.247401 180.647969 244.250869 189.249611 218.447607 C 195.15239 200.797733 199.903021 186.197479 199.753084 186.102673 Z M 199.753084 186.102673 "
    stroke="#001f3f" stroke-width="0.5" stroke-opacity="1" stroke-miterlimit="4" />
  <path stroke-linecap="butt" transform="matrix(0.495, 0, 0, 0.494426, 9.630042, 81.29453)" fill-opacity="1"
    fill="#001f3f" fill-rule="nonzero" stroke-linejoin="miter"
    d="M 89.50213 255.801502 C 89.896701 255.398573 92.548216 254.300394 95.397017 253.297021 L 100.502762 251.550995 L 100.502762 253.202215 C 100.502762 254.703323 100.297585 255.003545 98.498343 255.698795 C 97.251499 256.196531 95.002446 256.496752 92.650805 256.496752 C 89.296953 256.496752 88.902383 256.401946 89.50213 255.801502 Z M 89.50213 255.801502 "
    stroke="#001f3f" stroke-width="0.5" stroke-opacity="1" stroke-miterlimit="4" />
  <path stroke-linecap="butt" transform="matrix(0.495, 0, 0, 0.494426, 9.630042, 81.29453)" fill-opacity="1"
    fill="#001f3f" fill-rule="nonzero" stroke-linejoin="miter"
    d="M 115.401753 254.000172 L 115.251816 251.448288 L 112.347776 253.447132 C 109.648912 255.35117 109.498975 255.398573 110.248659 254.10288 C 110.651121 253.352325 112.15049 251.100663 113.60251 249.046515 C 116.001501 245.751977 116.5539 245.24634 119.647334 243.99805 L 123.001185 242.599649 L 123.001185 244.448383 C 123.001185 246.147005 122.851248 246.35242 120.902069 247.04767 L 118.747713 247.853529 L 118.653016 251.148066 C 118.550427 255.003545 118.95289 255.248462 121.399228 252.901993 L 123.048534 251.250774 L 122.898597 253.747354 L 122.74866 256.251835 L 115.55169 256.552056 Z M 115.401753 254.000172 "
    stroke="#001f3f" stroke-width="0.5" stroke-opacity="1" stroke-miterlimit="4" />
  <path stroke-linecap="butt" transform="matrix(0.495, 0, 0, 0.494426, 9.630042, 81.29453)" fill-opacity="1"
    fill="#001f3f" fill-rule="nonzero" stroke-linejoin="miter"
    d="M 137.000555 250.903149 C 137.047903 245.64927 137.150492 245.048826 138.499924 242.496942 L 139.951944 239.747544 L 139.999292 246.652642 C 139.999292 250.397512 140.149229 253.502436 140.401755 253.447132 C 140.59904 253.447132 142.098409 251.448288 143.700366 248.951708 C 145.302323 246.502531 146.801692 244.503687 146.951629 244.503687 C 147.148914 244.503687 147.3462 245.499159 147.401439 246.747449 C 147.448788 248.651486 147.148914 249.449444 144.947209 252.751882 L 142.453522 256.496752 L 137.000555 256.496752 Z M 137.000555 250.903149 "
    stroke="#001f3f" stroke-width="0.5" stroke-opacity="1" stroke-miterlimit="4" />
  <path stroke-linecap="butt" transform="matrix(0.495, 0, 0, 0.494426, 9.630042, 81.29453)" fill-opacity="1"
    fill="#001f3f" fill-rule="nonzero" stroke-linejoin="miter"
    d="M 141.001502 237.748699 C 141.001502 237.448478 142.200997 235.149412 142.848093 234.15394 C 143.100618 233.798414 144.102828 233.197971 145.152386 232.747639 L 146.998977 231.997084 L 146.998977 233.751011 C 146.998977 235.346926 146.801692 235.599744 144.497399 236.753228 C 142.098409 237.946214 141.001502 238.301739 141.001502 237.748699 Z M 141.001502 237.748699 "
    stroke="#001f3f" stroke-width="0.5" stroke-opacity="1" stroke-miterlimit="4" />
  <path stroke-linecap="butt" transform="matrix(0.495, 0, 0, 0.494426, 9.630042, 81.29453)" fill-opacity="1"
    fill="#001f3f" fill-rule="nonzero" stroke-linejoin="miter"
    d="M 159.8462 255.896309 C 159.751503 255.548684 159.601567 253.297021 159.546327 250.950552 C 159.498978 247.300489 159.648915 246.099602 160.801062 243.3028 C 162.450367 239.099697 163.2474 238.546657 162.900178 241.801692 C 162.750241 243.152689 162.750241 246.249713 162.947526 248.746293 L 163.2474 253.249618 L 167.903335 244.250869 C 170.49961 239.297211 172.803903 235.046704 173.048537 234.801787 C 173.301062 234.501565 173.498348 235.552341 173.498348 237.448478 C 173.498348 240.403291 173.253714 241.051138 169.402704 248.501375 L 165.251819 256.496752 L 162.702892 256.496752 C 161.053587 256.496752 159.996137 256.251835 159.8462 255.896309 Z M 159.8462 255.896309 "
    stroke="#001f3f" stroke-width="0.5" stroke-opacity="1" stroke-miterlimit="4" />
  <path stroke-linecap="butt" transform="matrix(0.495, 0, 0, 0.494426, 9.630042, 81.29453)" fill-opacity="1"
    fill="#001f3f" fill-rule="nonzero" stroke-linejoin="miter"
    d="M 169.402704 222.453196 C 169.852514 221.252309 170.752135 220.146229 171.549168 219.703797 C 173.450999 218.747828 173.498348 218.747828 173.498348 220.746673 C 173.498348 222.247781 173.253714 222.603306 171.50182 223.496071 C 168.747716 224.902372 168.447842 224.799665 169.402704 222.453196 Z M 169.402704 222.453196 "
    stroke="#001f3f" stroke-width="0.5" stroke-opacity="1" stroke-miterlimit="4" />
  <path stroke-linecap="butt" transform="matrix(0.495, 0, 0, 0.494426, 9.630042, 81.29453)" fill-opacity="1"
    fill="#001f3f" fill-rule="nonzero" stroke-linejoin="miter"
    d="M 184.001821 252.499064 C 184.001821 249.449444 184.349043 247.498003 185.398601 244.353576 L 186.748033 240.25318 L 187.000558 246.502531 C 187.197844 251.701106 187.34778 252.546467 187.797591 251.503592 C 188.152705 250.800441 190.898917 244.203465 194.000243 236.753228 C 197.101569 229.350393 199.847781 222.903528 200.100307 222.500599 C 200.40018 222.002863 200.447529 223.353861 200.297592 226.25337 C 199.997718 230.55128 199.753084 231.301834 194.647339 243.650425 L 189.29696 256.496752 L 184.001821 256.496752 Z M 184.001821 252.499064 "
    stroke="#001f3f" stroke-width="0.5" stroke-opacity="1" stroke-miterlimit="4" />
  <path stroke-linecap="butt" transform="matrix(0.495, 0, 0, 0.494426, 9.630042, 81.29453)" fill-opacity="1"
    fill="#001f3f" fill-rule="nonzero" stroke-linejoin="miter"
    d="M 197.49614 208.350678 C 197.49614 206.351834 199.350622 203.547131 200.652706 203.499728 C 200.897339 203.499728 200.999928 204.352989 200.897339 205.348461 C 200.802642 206.84957 200.447529 207.40261 199.153337 208.153164 C 197.748665 208.951121 197.49614 208.998525 197.49614 208.350678 Z M 197.49614 208.350678 "
    stroke="#001f3f" stroke-width="0.5" stroke-opacity="1" stroke-miterlimit="4" />
  <path stroke-linecap="butt" transform="matrix(0.495, 0, 0, 0.494426, 9.630042, 81.29453)" fill-opacity="1"
    fill="#001f3f" fill-rule="nonzero" stroke-linejoin="miter"
    d="M 217.998035 242.899871 C 217.998035 238.396546 218.147972 237.701296 221.052012 229.200283 C 222.748667 224.246625 224.248035 220.051422 224.500561 219.853908 C 224.950371 219.348272 225.999929 222.09767 225.999929 223.701486 C 225.999929 224.649554 218.700371 247.000267 218.203212 247.4506 C 218.100623 247.553307 217.998035 245.499159 217.998035 242.899871 Z M 217.998035 242.899871 "
    stroke="#001f3f" stroke-width="0.5" stroke-opacity="1" stroke-miterlimit="4" />
  <path stroke-linecap="butt" transform="matrix(0.495, 0, 0, 0.494426, 9.630042, 81.29453)" fill-opacity="1"
    fill="#001f3f" fill-rule="nonzero" stroke-linejoin="miter"
    d="M 216.498666 196.247005 C 216.553906 194.951311 216.601255 194.848604 217.051065 195.646561 C 217.453527 196.349712 217.453527 196.752641 217.051065 197.14767 C 216.648603 197.550599 216.498666 197.29778 216.498666 196.247005 Z M 216.498666 196.247005 "
    stroke="#001f3f" stroke-width="0.5" stroke-opacity="1" stroke-miterlimit="4" />
  <path stroke-linecap="butt" transform="matrix(0.495, 0, 0, 0.494426, 9.630042, 81.29453)" fill-opacity="1"
    fill="#001f3f" fill-rule="nonzero" stroke-linejoin="miter"
    d="M 272.701321 255.651391 C 272.551385 255.153655 272.196271 254.197686 271.951637 253.447132 C 271.651763 252.751882 271.549175 250.049887 271.596523 247.4506 L 271.74646 242.74976 L 272.953847 246.35242 C 273.648291 248.351265 274.350627 249.852373 274.603152 249.702262 C 274.800438 249.552151 274.997723 245.79938 274.997723 241.351359 L 275.052963 233.253275 L 276.497092 236.002673 C 277.949112 238.752072 277.949112 238.799475 277.996461 247.648114 L 277.996461 256.496752 L 275.502774 256.496752 C 273.553594 256.496752 272.898607 256.299238 272.701321 255.651391 Z M 272.701321 255.651391 "
    stroke="#001f3f" stroke-width="0.5" stroke-opacity="1" stroke-miterlimit="4" />
  <path stroke-linecap="butt" transform="matrix(0.495, 0, 0, 0.494426, 9.630042, 81.29453)" fill-opacity="1"
    fill="#001f3f" fill-rule="nonzero" stroke-linejoin="miter"
    d="M 299.153343 255.651391 C 299.003406 255.153655 298.151134 253.297021 297.346209 251.503592 C 296.146714 248.849 295.846841 247.553307 295.799492 244.400979 C 295.799492 242.252024 295.846841 240.498098 295.996777 240.498098 C 296.146714 240.498098 296.549177 241.098541 296.84905 241.896499 C 297.148924 242.647053 298.348419 245.396451 299.453217 248.003639 L 301.449745 252.751882 L 301.497094 249.149222 C 301.497094 247.150378 301.64703 245.499159 301.899556 245.499159 C 302.096841 245.499159 302.901765 246.447227 303.65145 247.648114 C 304.850945 249.496847 305.000882 250.152595 304.898293 252.9968 L 304.748356 256.251835 L 302.096841 256.401946 C 299.950376 256.552056 299.453217 256.401946 299.153343 255.651391 Z M 299.153343 255.651391 "
    stroke="#001f3f" stroke-width="0.5" stroke-opacity="1" stroke-miterlimit="4" />
  <path stroke-linecap="butt" transform="matrix(0.495, 0, 0, 0.494426, 9.630042, 81.29453)" fill-opacity="1"
    fill="#001f3f" fill-rule="nonzero" stroke-linejoin="miter"
    d="M 321.50183 251.701106 C 320.049809 249.101819 319.000251 246.850156 319.10284 246.747449 C 319.197537 246.597338 321.549178 248.801597 324.248042 251.503592 L 329.251199 256.496752 L 324.050757 256.496752 Z M 321.50183 251.701106 "
    stroke="#001f3f" stroke-width="0.5" stroke-opacity="1" stroke-miterlimit="4" />
  <path stroke-linecap="butt" transform="matrix(0.495, 0, 0, 0.494426, 9.630042, 81.29453)" fill-opacity="1"
    fill="#001f3f" fill-rule="nonzero" stroke-linejoin="miter"
    d="M 288.847156 231.349238 C 287.900186 228.947464 287.797598 228.497132 288.452585 228.497132 C 289.502143 228.497132 290.449113 230.100948 290.251828 231.546752 C 289.999302 233.751011 289.849365 233.703608 288.847156 231.349238 Z M 288.847156 231.349238 "
    stroke="#001f3f" stroke-width="0.5" stroke-opacity="1" stroke-miterlimit="4" />
  <path stroke-linecap="butt" transform="matrix(0.495, 0, 0, 0.494426, 9.630042, 81.29453)" fill-opacity="1"
    fill="#001f3f" fill-rule="nonzero" stroke-linejoin="miter"
    d="M 276.796966 224.199222 C 275.802647 222.050267 275.897344 221.750045 277.396713 222.800821 C 277.996461 223.20375 278.501511 224.096514 278.501511 224.799665 C 278.501511 226.553592 277.799175 226.300773 276.796966 224.199222 Z M 276.796966 224.199222 "
    stroke="#001f3f" stroke-width="0.5" stroke-opacity="1" stroke-miterlimit="4" />
  <path stroke-linecap="butt" transform="matrix(0.495, 0, 0, 0.494426, 9.630042, 81.29453)" fill-opacity="1"
    fill="#001f3f" fill-rule="nonzero" stroke-linejoin="miter"
    d="M 303.548861 237.448478 C 302.246778 235.702452 302.396715 235.149412 303.951323 236.002673 C 304.598419 236.302895 305.000882 237.053449 305.000882 237.748699 C 305.000882 239.352515 304.898293 239.297211 303.548861 237.448478 Z M 303.548861 237.448478 "
    stroke="#001f3f" stroke-width="0.5" stroke-opacity="1" stroke-miterlimit="4" />
  <path stroke-linecap="butt" transform="matrix(0.495, 0, 0, 0.494426, 9.630042, 81.29453)" fill-opacity="1"
    fill="#001f3f" fill-rule="nonzero" stroke-linejoin="miter"
    d="M 128.848724 247.703418 C 128.201628 247.04767 128.501501 246.147005 129.748345 244.803909 C 131.302954 243.152689 131.397651 242.252024 130.00087 243.002579 C 129.203837 243.397607 128.896072 243.397607 128.698787 242.797164 C 127.949102 240.901027 129.401123 239.502626 133.40207 238.301739 L 134.546325 237.89881 L 133.449418 239.850251 C 132.849671 240.901027 131.650176 243.152689 130.797903 244.898715 C 129.953522 246.652642 129.0539 247.900932 128.848724 247.703418 Z M 128.848724 247.703418 "
    stroke="#001f3f" stroke-width="0.5" stroke-opacity="1" stroke-miterlimit="4" />
  <path stroke-linecap="butt" transform="matrix(0.495, 0, 0, 0.494426, 9.630042, 81.29453)" fill-opacity="1"
    fill="#001f3f" fill-rule="nonzero" stroke-linejoin="miter"
    d="M 265.401763 234.003829 C 264.54949 232.147195 258.102204 212.751296 258.29949 212.553781 C 258.402078 212.451074 259.301699 212.751296 260.248669 213.296435 C 261.748038 214.102293 262.197848 214.797543 263.452583 218.250092 C 264.249616 220.446451 265.149238 223.148446 265.49646 224.246625 C 266.096207 226.300773 266.00151 235.346926 265.401763 234.003829 Z M 265.401763 234.003829 "
    stroke="#001f3f" stroke-width="0.5" stroke-opacity="1" stroke-miterlimit="4" />
  <path stroke-linecap="butt" transform="matrix(0.495, 0, 0, 0.494426, 9.630042, 81.29453)" fill-opacity="1"
    fill="#001f3f" fill-rule="nonzero" stroke-linejoin="miter"
    d="M 250.55012 211.447701 C 249.697848 209.20394 249.050752 207.252499 249.15334 207.149791 C 249.303277 207.047084 250.052961 207.347306 250.952583 207.852942 C 252.451951 208.698303 252.4993 208.848414 252.4993 212.150852 C 252.4993 213.999586 252.396711 215.500694 252.349363 215.500694 C 252.246775 215.500694 251.449742 213.651961 250.55012 211.447701 Z M 250.55012 211.447701 "
    stroke="#001f3f" stroke-width="0.5" stroke-opacity="1" stroke-miterlimit="4" />
  <path stroke-linecap="butt" transform="matrix(0.495, 0, 0, 0.494426, 9.630042, 81.29453)" fill-opacity="1"
    fill="#001f3f" fill-rule="nonzero" stroke-linejoin="miter"
    d="M 152.996452 237.851407 C 152.996452 235.797259 153.296326 234.801787 154.251187 233.498193 C 155.750556 231.451945 155.797905 231.301834 154.551061 231.997084 C 153.099041 232.747639 152.996452 232.652832 152.996452 230.748794 C 152.996452 229.097575 153.099041 228.947464 157.50245 226.853813 C 159.996137 225.597623 162.000557 224.847068 162.000557 225.099887 C 162.000557 226.450884 158.701945 232.953053 156.247715 236.453006 C 154.700998 238.696768 153.296326 240.498098 153.201629 240.498098 C 153.099041 240.498098 152.996452 239.297211 152.996452 237.851407 Z M 152.996452 237.851407 "
    stroke="#001f3f" stroke-width="0.5" stroke-opacity="1" stroke-miterlimit="4" />
  <path stroke-linecap="butt" transform="matrix(0.495, 0, 0, 0.494426, 9.630042, 81.29453)" fill-opacity="1"
    fill="#001f3f" fill-rule="nonzero" stroke-linejoin="miter"
    d="M 238.349993 242.449539 C 238.200057 241.896499 238.247405 236.848034 238.49993 231.349238 C 238.752456 225.803037 238.997089 218.202689 239.099678 214.497322 L 239.202266 207.750235 L 239.4469 214.75014 C 239.849362 224.049111 239.549488 243.500314 238.997089 243.500314 C 238.799804 243.500314 238.49993 243.049982 238.349993 242.449539 Z M 238.349993 242.449539 "
    stroke="#001f3f" stroke-width="0.5" stroke-opacity="1" stroke-miterlimit="4" />
  <path stroke-linecap="butt" transform="matrix(0.495, 0, 0, 0.494426, 9.630042, 81.29453)" fill-opacity="1"
    fill="#001f3f" fill-rule="nonzero" stroke-linejoin="miter"
    d="M 228.746142 213.249031 C 228.548856 212.703892 228.201634 211.653116 227.949109 210.949966 C 227.546647 209.946593 227.90176 208.453385 229.503718 203.697242 C 230.647973 200.450108 231.650182 197.447891 231.752771 197.14767 C 232.052644 196.199601 234.498983 197.400488 234.498983 198.498667 C 234.498983 199.399332 230.348099 211.953338 229.598415 213.351739 C 229.101255 214.1971 229.053907 214.1971 228.746142 213.249031 Z M 228.746142 213.249031 "
    stroke="#001f3f" stroke-width="0.5" stroke-opacity="1" stroke-miterlimit="4" />
  <path stroke-linecap="butt" transform="matrix(0.495, 0, 0, 0.494426, 9.630042, 81.29453)" fill-opacity="1"
    fill="#001f3f" fill-rule="nonzero" stroke-linejoin="miter"
    d="M 221.801697 192.699649 C 220.949424 190.50329 222.251507 189.752736 224.248035 191.301248 C 225.250245 192.051802 225.250245 192.051802 224.303275 192.802356 C 223.001192 193.703021 222.196268 193.703021 221.801697 192.699649 Z M 221.801697 192.699649 "
    stroke="#001f3f" stroke-width="0.5" stroke-opacity="1" stroke-miterlimit="4" />
  <path stroke-linecap="butt" transform="matrix(0.495, 0, 0, 0.494426, 9.630042, 81.29453)" fill-opacity="1"
    fill="#001f3f" fill-rule="nonzero" stroke-linejoin="miter"
    d="M 183.402073 225.953148 L 183.252136 221.750045 L 181.247717 225.502816 L 179.251189 229.247686 L 179.101252 226.150662 C 178.998664 223.796293 179.203841 222.548003 180.000873 221.046894 C 181.247717 218.550314 181.247717 218.3528 180.000873 218.747828 C 179.148601 219.000647 178.998664 218.850536 178.998664 217.396831 C 178.998664 215.800916 179.203841 215.603401 184.696265 212.601185 C 187.852831 210.902562 190.496455 209.496261 190.701632 209.496261 C 190.851569 209.496261 190.851569 209.89919 190.701632 210.396926 C 189.80201 213.098921 189.29696 213.952182 188.200053 214.402515 C 187.103147 214.947654 187.000558 215.247876 187.000558 218.297496 C 187.000558 221.40242 185.098727 228.449728 183.946581 229.698018 C 183.749295 229.950837 183.49677 228.252214 183.402073 225.953148 Z M 183.402073 225.953148 "
    stroke="#001f3f" stroke-width="0.5" stroke-opacity="1" stroke-miterlimit="4" />
  <path stroke-linecap="butt" transform="matrix(0.495, 0, 0, 0.494426, 9.630042, 81.29453)" fill-opacity="1"
    fill="#001f3f" fill-rule="nonzero" stroke-linejoin="miter"
    d="M 367.903348 255.848906 C 367.153663 255.501281 363.45259 252.348953 359.648928 248.746293 L 352.751832 242.252024 L 352.451958 250.452816 L 350.999938 249.899776 L 349.500569 249.40204 L 349.500569 243.950647 C 349.500569 239.202404 349.39798 238.45185 348.648296 238.151629 C 348.151137 238.001518 344.647349 236.397702 340.851578 234.699079 C 332.897032 231.049016 332.999621 230.448573 339.896717 240.197876 C 342.20101 243.500314 344.197538 246.447227 344.347475 246.802753 C 344.497412 247.253085 343.850316 247.150378 342.153662 246.549935 C 339.951957 245.696673 339.35221 245.09623 334.996149 238.949586 L 330.253409 232.249903 L 329.850946 236.500409 C 329.598421 238.846879 329.353787 240.853623 329.20385 240.94843 C 329.101262 241.051138 328.446275 240.901027 327.75183 240.600805 C 326.497095 240.047765 326.497095 239.952958 326.449747 233.901122 L 326.449747 227.746578 L 317.201009 223.101042 C 312.150503 220.549158 307.999619 218.653021 307.999619 218.850536 C 307.999619 219.103354 309.90145 222.848224 312.253092 227.248842 C 314.549493 231.602056 316.396084 235.299523 316.301387 235.40223 C 316.198799 235.449634 315.149241 235.046704 313.949746 234.501565 C 311.953218 233.498193 311.448167 232.897749 308.749304 227.699174 C 307.099998 224.546847 305.600629 222.002863 305.403344 222.002863 C 305.150818 222.002863 305.000882 223.796293 305.000882 226.000552 C 305.000882 228.19691 304.898293 229.99824 304.803596 229.99824 C 304.653659 229.99824 303.998672 229.800726 303.296336 229.500504 L 302.002144 229.002768 L 302.002144 222.152974 L 301.946904 215.247876 L 291.246146 209.20394 C 285.351259 205.846197 280.498039 203.152103 280.498039 203.199506 C 280.498039 203.24691 282.202585 207.197195 284.246461 212.000741 C 286.298229 216.796387 288.002774 221.046894 288.002774 221.40242 C 288.002774 221.900156 287.403027 221.750045 285.951007 220.896783 C 284.096524 219.853908 283.646714 219.198161 281.302963 213.746767 L 278.746145 207.750235 L 278.596208 212.150852 C 278.54886 214.552626 278.351574 216.496166 278.201637 216.496166 C 277.649238 216.496166 275.747407 215.350583 275.400185 214.797543 C 275.2029 214.497322 275.14766 211.100076 275.352837 207.197195 L 275.65271 200.149886 L 271.201953 197.503195 C 268.747723 196.002087 263.397344 192.699649 259.349048 190.147764 C 255.253404 187.603781 251.852204 185.502229 251.749615 185.502229 C 251.402393 185.502229 252.349363 188.196324 255.703214 196.800044 C 257.502457 201.500884 259.001826 205.498572 259.001826 205.696086 C 259.001826 205.901501 258.149553 205.60128 257.099995 205.000836 C 255.750563 204.250282 254.748353 203.096799 253.801383 201.200662 C 252.302015 198.253749 251.899552 197.898224 252.002141 199.65215 C 252.049489 200.252594 252.096838 201.003148 252.049489 201.350773 C 252.002141 201.698398 249.248037 200.3474 245.949426 198.348556 L 239.896711 194.753797 L 240.251824 180.24835 C 240.44911 172.300376 240.748983 163.151516 240.946269 159.999189 L 241.246143 154.247574 L 243.250562 153.947352 C 244.347469 153.749838 245.397027 153.749838 245.602203 153.899949 C 245.75214 154.097463 246.052014 160.449521 246.249299 168.002466 C 246.849047 190.898319 247.346206 192.747052 247.448794 172.403084 L 247.496143 154.002656 L 250.400184 154.002656 L 250.700057 158.103052 C 250.849994 160.402118 251.102519 166.453955 251.299805 171.549822 C 251.449742 176.653591 251.749615 181.101612 251.946901 181.346529 C 252.096838 181.599348 256.752772 184.648968 262.253088 188.101517 C 309.546336 217.697052 354.653663 239.550029 401.252466 255.398573 L 404.251204 256.401946 L 402.302024 256.449349 C 400.352845 256.496752 387.450382 253.597243 383.402086 252.246246 L 381.24773 251.503592 L 382.549813 252.649175 C 383.252149 253.249618 384.601581 254.347797 385.548551 255.098351 L 387.253097 256.449349 L 384.64893 256.496752 C 382.24994 256.496752 381.752781 256.299238 378.398929 253.747354 L 374.753096 251.05326 L 374.603159 253.747354 L 374.453222 256.496752 L 371.849055 256.496752 C 370.397035 256.449349 368.653032 256.196531 367.903348 255.848906 Z M 370.996782 251.503592 C 370.996782 249.852373 371.052022 248.351265 371.099371 248.15375 C 371.146719 247.798225 361.298234 243.452911 358.749307 242.702357 C 358.196908 242.552246 360.548549 245.09623 363.997098 248.446071 C 367.453537 251.74851 370.397035 254.450505 370.64956 254.450505 C 370.846846 254.497908 370.996782 253.146911 370.996782 251.503592 Z M 370.996782 251.503592 "
    stroke="#001f3f" stroke-width="0.5" stroke-opacity="1" stroke-miterlimit="4" />
  <path stroke-linecap="butt" transform="matrix(0.495, 0, 0, 0.494426, 9.630042, 81.29453)" fill-opacity="1"
    fill="#001f3f" fill-rule="nonzero" stroke-linejoin="miter"
    d="M 235.051382 191.546165 C 233.796647 190.598097 233.796647 190.400583 235.248667 186.90063 C 235.753718 185.597036 234.696268 185.802451 232.69974 187.303559 C 231.153023 188.496545 230.853149 188.551849 229.503718 187.998809 C 228.651445 187.651184 227.996457 187.200852 227.996457 186.948034 C 227.996457 186.600408 238.200057 179.497796 238.752456 179.497796 C 238.902392 179.497796 238.997089 180.896197 238.997089 182.60272 C 238.997089 185.399522 237.197847 192.502134 236.550751 192.502134 C 236.353465 192.502134 235.698478 192.051802 235.051382 191.546165 Z M 235.051382 191.546165 "
    stroke="#001f3f" stroke-width="0.5" stroke-opacity="1" stroke-miterlimit="4" />
  <g fill="#001f3f" fill-opacity="1">
    <g transform="translate(225.424947, 188.491897)">
      <g>
        <path
          d="M 15.03125 -11.171875 C 15.03125 -10.117188 14.789062 -9.175781 14.3125 -8.34375 C 13.832031 -7.519531 13.144531 -6.878906 12.25 -6.421875 C 11.351562 -5.972656 10.289062 -5.75 9.0625 -5.75 L 5.015625 -5.75 L 5.015625 0 L 1.59375 0 L 1.59375 -16.34375 L 8.921875 -16.34375 C 10.878906 -16.34375 12.382812 -15.890625 13.4375 -14.984375 C 14.5 -14.085938 15.03125 -12.816406 15.03125 -11.171875 Z M 11.578125 -11.109375 C 11.578125 -12.828125 10.566406 -13.6875 8.546875 -13.6875 L 5.015625 -13.6875 L 5.015625 -8.390625 L 8.640625 -8.390625 C 9.578125 -8.390625 10.300781 -8.617188 10.8125 -9.078125 C 11.320312 -9.546875 11.578125 -10.222656 11.578125 -11.109375 Z M 11.578125 -11.109375 " />
      </g>
    </g>
  </g>
  <g fill="#001f3f" fill-opacity="1">
    <g transform="translate(241.261531, 188.491897)">
      <g>
        <path
          d="M 4.5625 0.234375 C 3.34375 0.234375 2.394531 -0.09375 1.71875 -0.75 C 1.039062 -1.414062 0.703125 -2.347656 0.703125 -3.546875 C 0.703125 -4.847656 1.125 -5.835938 1.96875 -6.515625 C 2.8125 -7.191406 4.035156 -7.539062 5.640625 -7.5625 L 8.34375 -7.609375 L 8.34375 -8.25 C 8.34375 -9.0625 8.195312 -9.664062 7.90625 -10.0625 C 7.625 -10.46875 7.160156 -10.671875 6.515625 -10.671875 C 5.910156 -10.671875 5.46875 -10.53125 5.1875 -10.25 C 4.90625 -9.976562 4.726562 -9.523438 4.65625 -8.890625 L 1.265625 -9.0625 C 1.472656 -10.28125 2.03125 -11.203125 2.9375 -11.828125 C 3.84375 -12.460938 5.082031 -12.78125 6.65625 -12.78125 C 8.238281 -12.78125 9.457031 -12.390625 10.3125 -11.609375 C 11.175781 -10.828125 11.609375 -9.71875 11.609375 -8.28125 L 11.609375 -3.71875 C 11.609375 -3.007812 11.6875 -2.519531 11.84375 -2.25 C 12 -1.988281 12.265625 -1.859375 12.640625 -1.859375 C 12.890625 -1.859375 13.128906 -1.878906 13.359375 -1.921875 L 13.359375 -0.15625 C 13.160156 -0.113281 12.984375 -0.0703125 12.828125 -0.03125 C 12.679688 0 12.53125 0.0234375 12.375 0.046875 C 12.21875 0.078125 12.050781 0.0976562 11.875 0.109375 C 11.707031 0.128906 11.503906 0.140625 11.265625 0.140625 C 10.453125 0.140625 9.847656 -0.0546875 9.453125 -0.453125 C 9.066406 -0.859375 8.832031 -1.453125 8.75 -2.234375 L 8.6875 -2.234375 C 7.769531 -0.585938 6.394531 0.234375 4.5625 0.234375 Z M 8.34375 -5.8125 L 6.6875 -5.78125 C 5.925781 -5.75 5.382812 -5.664062 5.0625 -5.53125 C 4.75 -5.394531 4.507812 -5.1875 4.34375 -4.90625 C 4.175781 -4.632812 4.09375 -4.265625 4.09375 -3.796875 C 4.09375 -3.203125 4.226562 -2.757812 4.5 -2.46875 C 4.78125 -2.1875 5.144531 -2.046875 5.59375 -2.046875 C 6.101562 -2.046875 6.566406 -2.179688 6.984375 -2.453125 C 7.410156 -2.734375 7.742188 -3.117188 7.984375 -3.609375 C 8.222656 -4.097656 8.34375 -4.617188 8.34375 -5.171875 Z M 8.34375 -5.8125 " />
      </g>
    </g>
  </g>
  <g fill="#001f3f" fill-opacity="1">
    <g transform="translate(254.466422, 188.491897)">
      <g>
        <path
          d="M 1.65625 0 L 1.65625 -9.609375 C 1.65625 -10.296875 1.644531 -10.867188 1.625 -11.328125 C 1.601562 -11.785156 1.582031 -12.191406 1.5625 -12.546875 L 4.671875 -12.546875 C 4.691406 -12.410156 4.722656 -11.988281 4.765625 -11.28125 C 4.804688 -10.570312 4.828125 -10.101562 4.828125 -9.875 L 4.875 -9.875 C 5.1875 -10.75 5.46875 -11.363281 5.71875 -11.71875 C 5.96875 -12.082031 6.257812 -12.351562 6.59375 -12.53125 C 6.9375 -12.707031 7.363281 -12.796875 7.875 -12.796875 C 8.289062 -12.796875 8.628906 -12.738281 8.890625 -12.625 L 8.890625 -9.890625 C 8.359375 -10.003906 7.890625 -10.0625 7.484375 -10.0625 C 6.679688 -10.0625 6.050781 -9.734375 5.59375 -9.078125 C 5.144531 -8.421875 4.921875 -7.445312 4.921875 -6.15625 L 4.921875 0 Z M 1.65625 0 " />
      </g>
    </g>
  </g>
  <g fill="#001f3f" fill-opacity="1">
    <g transform="translate(263.70637, 188.491897)">
      <g>
        <path
          d="M 9.671875 0 L 6.3125 -5.6875 L 4.921875 -4.703125 L 4.921875 0 L 1.65625 0 L 1.65625 -17.203125 L 4.921875 -17.203125 L 4.921875 -7.359375 L 9.390625 -12.546875 L 12.890625 -12.546875 L 8.484375 -7.65625 L 13.234375 0 Z M 9.671875 0 " />
      </g>
    </g>
  </g>
  <g fill="#001f3f" fill-opacity="1">
    <g transform="translate(276.91126, 188.491897)">
      <g />
    </g>
  </g>
  <g fill="#001f3f" fill-opacity="1">
    <g transform="translate(283.507913, 188.491897)">
      <g>
        <path
          d="M 9.21875 -2.453125 C 11.28125 -2.453125 12.710938 -3.488281 13.515625 -5.5625 L 16.5 -4.4375 C 15.863281 -2.863281 14.921875 -1.691406 13.671875 -0.921875 C 12.429688 -0.148438 10.945312 0.234375 9.21875 0.234375 C 6.59375 0.234375 4.5625 -0.507812 3.125 -2 C 1.6875 -3.488281 0.96875 -5.570312 0.96875 -8.25 C 0.96875 -10.925781 1.660156 -12.984375 3.046875 -14.421875 C 4.429688 -15.859375 6.4375 -16.578125 9.0625 -16.578125 C 10.976562 -16.578125 12.539062 -16.191406 13.75 -15.421875 C 14.957031 -14.660156 15.804688 -13.53125 16.296875 -12.03125 L 13.28125 -11.21875 C 13.019531 -12.03125 12.515625 -12.675781 11.765625 -13.15625 C 11.023438 -13.644531 10.148438 -13.890625 9.140625 -13.890625 C 7.585938 -13.890625 6.410156 -13.410156 5.609375 -12.453125 C 4.816406 -11.492188 4.421875 -10.09375 4.421875 -8.25 C 4.421875 -6.363281 4.832031 -4.925781 5.65625 -3.9375 C 6.476562 -2.945312 7.664062 -2.453125 9.21875 -2.453125 Z M 9.21875 -2.453125 " />
      </g>
    </g>
  </g>
  <g fill="#001f3f" fill-opacity="1">
    <g transform="translate(300.65456, 188.491897)">
      <g>
        <path
          d="M 1.65625 -14.8125 L 1.65625 -17.203125 L 4.921875 -17.203125 L 4.921875 -14.8125 Z M 1.65625 0 L 1.65625 -12.546875 L 4.921875 -12.546875 L 4.921875 0 Z M 1.65625 0 " />
      </g>
    </g>
  </g>
  <g fill="#001f3f" fill-opacity="1">
    <g transform="translate(307.251213, 188.491897)">
      <g>
        <path
          d="M 1.65625 0 L 1.65625 -9.609375 C 1.65625 -10.296875 1.644531 -10.867188 1.625 -11.328125 C 1.601562 -11.785156 1.582031 -12.191406 1.5625 -12.546875 L 4.671875 -12.546875 C 4.691406 -12.410156 4.722656 -11.988281 4.765625 -11.28125 C 4.804688 -10.570312 4.828125 -10.101562 4.828125 -9.875 L 4.875 -9.875 C 5.1875 -10.75 5.46875 -11.363281 5.71875 -11.71875 C 5.96875 -12.082031 6.257812 -12.351562 6.59375 -12.53125 C 6.9375 -12.707031 7.363281 -12.796875 7.875 -12.796875 C 8.289062 -12.796875 8.628906 -12.738281 8.890625 -12.625 L 8.890625 -9.890625 C 8.359375 -10.003906 7.890625 -10.0625 7.484375 -10.0625 C 6.679688 -10.0625 6.050781 -9.734375 5.59375 -9.078125 C 5.144531 -8.421875 4.921875 -7.445312 4.921875 -6.15625 L 4.921875 0 Z M 1.65625 0 " />
      </g>
    </g>
  </g>
  <g fill="#001f3f" fill-opacity="1">
    <g transform="translate(316.491161, 188.491897)">
      <g>
        <path
          d="M 6.890625 0.234375 C 4.984375 0.234375 3.507812 -0.332031 2.46875 -1.46875 C 1.4375 -2.601562 0.921875 -4.179688 0.921875 -6.203125 C 0.921875 -8.273438 1.441406 -9.890625 2.484375 -11.046875 C 3.535156 -12.203125 5.019531 -12.78125 6.9375 -12.78125 C 8.414062 -12.78125 9.632812 -12.40625 10.59375 -11.65625 C 11.5625 -10.914062 12.171875 -9.894531 12.421875 -8.59375 L 9.140625 -8.4375 C 9.046875 -9.070312 8.8125 -9.582031 8.4375 -9.96875 C 8.070312 -10.351562 7.546875 -10.546875 6.859375 -10.546875 C 5.179688 -10.546875 4.34375 -9.140625 4.34375 -6.328125 C 4.34375 -3.441406 5.195312 -2 6.90625 -2 C 7.53125 -2 8.050781 -2.191406 8.46875 -2.578125 C 8.882812 -2.972656 9.144531 -3.554688 9.25 -4.328125 L 12.515625 -4.171875 C 12.398438 -3.316406 12.09375 -2.550781 11.59375 -1.875 C 11.09375 -1.207031 10.4375 -0.6875 9.625 -0.3125 C 8.8125 0.0507812 7.898438 0.234375 6.890625 0.234375 Z M 6.890625 0.234375 " />
      </g>
    </g>
  </g>
  <g fill="#001f3f" fill-opacity="1">
    <g transform="translate(329.696051, 188.491897)">
      <g>
        <path d="M 1.65625 0 L 1.65625 -17.203125 L 4.921875 -17.203125 L 4.921875 0 Z M 1.65625 0 " />
      </g>
    </g>
  </g>
  <g fill="#001f3f" fill-opacity="1">
    <g transform="translate(336.292704, 188.491897)">
      <g>
        <path
          d="M 6.796875 0.234375 C 4.910156 0.234375 3.457031 -0.320312 2.4375 -1.4375 C 1.425781 -2.5625 0.921875 -4.191406 0.921875 -6.328125 C 0.921875 -8.398438 1.4375 -9.992188 2.46875 -11.109375 C 3.5 -12.222656 4.957031 -12.78125 6.84375 -12.78125 C 8.644531 -12.78125 10.019531 -12.179688 10.96875 -10.984375 C 11.914062 -9.796875 12.390625 -8.046875 12.390625 -5.734375 L 12.390625 -5.640625 L 4.34375 -5.640625 C 4.34375 -4.421875 4.566406 -3.5 5.015625 -2.875 C 5.472656 -2.257812 6.117188 -1.953125 6.953125 -1.953125 C 8.109375 -1.953125 8.835938 -2.445312 9.140625 -3.4375 L 12.21875 -3.171875 C 11.320312 -0.898438 9.515625 0.234375 6.796875 0.234375 Z M 6.796875 -10.734375 C 6.023438 -10.734375 5.429688 -10.460938 5.015625 -9.921875 C 4.609375 -9.390625 4.394531 -8.644531 4.375 -7.6875 L 9.25 -7.6875 C 9.1875 -8.695312 8.941406 -9.457031 8.515625 -9.96875 C 8.085938 -10.476562 7.515625 -10.734375 6.796875 -10.734375 Z M 6.796875 -10.734375 " />
      </g>
    </g>
  </g>
  <g fill="#001f3f" fill-opacity="1">
    <g transform="translate(225.407553, 210.71955)">
      <g>
        <path
          d="M 17.515625 0 L 14.875 0 L 12.046875 -10.375 C 11.859375 -11.03125 11.585938 -12.195312 11.234375 -13.875 C 11.035156 -12.976562 10.863281 -12.226562 10.71875 -11.625 C 10.582031 -11.019531 9.53125 -7.144531 7.5625 0 L 4.921875 0 L 0.109375 -16.34375 L 2.40625 -16.34375 L 5.34375 -5.953125 C 5.695312 -4.660156 6.019531 -3.328125 6.3125 -1.953125 C 6.5 -2.796875 6.710938 -3.71875 6.953125 -4.71875 C 7.191406 -5.726562 8.265625 -9.601562 10.171875 -16.34375 L 12.296875 -16.34375 L 15.140625 -6.171875 C 15.566406 -4.503906 15.90625 -3.097656 16.15625 -1.953125 L 16.265625 -2.359375 C 16.472656 -3.242188 16.640625 -3.96875 16.765625 -4.53125 C 16.898438 -5.09375 17.988281 -9.03125 20.03125 -16.34375 L 22.328125 -16.34375 Z M 17.515625 0 " />
      </g>
    </g>
  </g>
  <g fill="#001f3f" fill-opacity="1">
    <g transform="translate(247.817602, 210.71955)">
      <g>
        <path
          d="M 3.203125 -5.828125 C 3.203125 -4.390625 3.5 -3.28125 4.09375 -2.5 C 4.6875 -1.71875 5.554688 -1.328125 6.703125 -1.328125 C 7.609375 -1.328125 8.332031 -1.507812 8.875 -1.875 C 9.414062 -2.238281 9.785156 -2.703125 9.984375 -3.265625 L 11.8125 -2.734375 C 11.0625 -0.753906 9.359375 0.234375 6.703125 0.234375 C 4.847656 0.234375 3.4375 -0.316406 2.46875 -1.421875 C 1.5 -2.523438 1.015625 -4.171875 1.015625 -6.359375 C 1.015625 -8.429688 1.5 -10.019531 2.46875 -11.125 C 3.4375 -12.226562 4.820312 -12.78125 6.625 -12.78125 C 10.3125 -12.78125 12.15625 -10.554688 12.15625 -6.109375 L 12.15625 -5.828125 Z M 10 -7.4375 C 9.882812 -8.757812 9.546875 -9.722656 8.984375 -10.328125 C 8.429688 -10.929688 7.632812 -11.234375 6.59375 -11.234375 C 5.570312 -11.234375 4.765625 -10.894531 4.171875 -10.21875 C 3.585938 -9.539062 3.269531 -8.613281 3.21875 -7.4375 Z M 10 -7.4375 " />
      </g>
    </g>
  </g>
  <g fill="#001f3f" fill-opacity="1">
    <g transform="translate(261.022493, 210.71955)">
      <g>
        <path
          d="M 12.21875 -6.328125 C 12.21875 -1.953125 10.675781 0.234375 7.59375 0.234375 C 6.644531 0.234375 5.851562 0.0625 5.21875 -0.28125 C 4.59375 -0.625 4.082031 -1.179688 3.6875 -1.953125 L 3.671875 -1.953125 C 3.671875 -1.710938 3.65625 -1.34375 3.625 -0.84375 C 3.59375 -0.351562 3.566406 -0.0703125 3.546875 0 L 1.53125 0 C 1.570312 -0.414062 1.59375 -1.28125 1.59375 -2.59375 L 1.59375 -17.203125 L 3.6875 -17.203125 L 3.6875 -12.296875 C 3.6875 -11.796875 3.671875 -11.207031 3.640625 -10.53125 L 3.6875 -10.53125 C 4.070312 -11.332031 4.582031 -11.90625 5.21875 -12.25 C 5.863281 -12.601562 6.65625 -12.78125 7.59375 -12.78125 C 9.175781 -12.78125 10.34375 -12.242188 11.09375 -11.171875 C 11.84375 -10.109375 12.21875 -8.492188 12.21875 -6.328125 Z M 10.015625 -6.265625 C 10.015625 -8.015625 9.78125 -9.269531 9.3125 -10.03125 C 8.851562 -10.789062 8.101562 -11.171875 7.0625 -11.171875 C 5.882812 -11.171875 5.023438 -10.765625 4.484375 -9.953125 C 3.953125 -9.148438 3.6875 -7.878906 3.6875 -6.140625 C 3.6875 -4.492188 3.945312 -3.273438 4.46875 -2.484375 C 5 -1.703125 5.859375 -1.3125 7.046875 -1.3125 C 8.085938 -1.3125 8.84375 -1.695312 9.3125 -2.46875 C 9.78125 -3.25 10.015625 -4.515625 10.015625 -6.265625 Z M 10.015625 -6.265625 " />
      </g>
    </g>
  </g>
  <g fill="#001f3f" fill-opacity="1">
    <g transform="translate(274.227384, 210.71955)">
      <g />
    </g>
  </g>
  <g fill="#001f3f" fill-opacity="1">
    <g transform="translate(280.824037, 210.71955)">
      <g>
        <path
          d="M 16.015625 -8.34375 C 16.015625 -6.65625 15.6875 -5.175781 15.03125 -3.90625 C 14.375 -2.644531 13.441406 -1.675781 12.234375 -1 C 11.023438 -0.332031 9.632812 0 8.0625 0 L 1.953125 0 L 1.953125 -16.34375 L 7.359375 -16.34375 C 10.117188 -16.34375 12.25 -15.644531 13.75 -14.25 C 15.257812 -12.863281 16.015625 -10.894531 16.015625 -8.34375 Z M 13.78125 -8.34375 C 13.78125 -10.363281 13.222656 -11.90625 12.109375 -12.96875 C 11.003906 -14.03125 9.40625 -14.5625 7.3125 -14.5625 L 4.15625 -14.5625 L 4.15625 -1.78125 L 7.796875 -1.78125 C 9.003906 -1.78125 10.0625 -2.039062 10.96875 -2.5625 C 11.875 -3.082031 12.566406 -3.835938 13.046875 -4.828125 C 13.535156 -5.816406 13.78125 -6.988281 13.78125 -8.34375 Z M 13.78125 -8.34375 " />
      </g>
    </g>
  </g>
  <g fill="#001f3f" fill-opacity="1">
    <g transform="translate(297.970683, 210.71955)">
      <g>
        <path
          d="M 3.203125 -5.828125 C 3.203125 -4.390625 3.5 -3.28125 4.09375 -2.5 C 4.6875 -1.71875 5.554688 -1.328125 6.703125 -1.328125 C 7.609375 -1.328125 8.332031 -1.507812 8.875 -1.875 C 9.414062 -2.238281 9.785156 -2.703125 9.984375 -3.265625 L 11.8125 -2.734375 C 11.0625 -0.753906 9.359375 0.234375 6.703125 0.234375 C 4.847656 0.234375 3.4375 -0.316406 2.46875 -1.421875 C 1.5 -2.523438 1.015625 -4.171875 1.015625 -6.359375 C 1.015625 -8.429688 1.5 -10.019531 2.46875 -11.125 C 3.4375 -12.226562 4.820312 -12.78125 6.625 -12.78125 C 10.3125 -12.78125 12.15625 -10.554688 12.15625 -6.109375 L 12.15625 -5.828125 Z M 10 -7.4375 C 9.882812 -8.757812 9.546875 -9.722656 8.984375 -10.328125 C 8.429688 -10.929688 7.632812 -11.234375 6.59375 -11.234375 C 5.570312 -11.234375 4.765625 -10.894531 4.171875 -10.21875 C 3.585938 -9.539062 3.269531 -8.613281 3.21875 -7.4375 Z M 10 -7.4375 " />
      </g>
    </g>
  </g>
  <g fill="#001f3f" fill-opacity="1">
    <g transform="translate(311.175574, 210.71955)">
      <g>
        <path
          d="M 11.015625 -3.46875 C 11.015625 -2.28125 10.566406 -1.363281 9.671875 -0.71875 C 8.785156 -0.0820312 7.535156 0.234375 5.921875 0.234375 C 4.359375 0.234375 3.15625 -0.0195312 2.3125 -0.53125 C 1.46875 -1.050781 0.914062 -1.859375 0.65625 -2.953125 L 2.5 -3.3125 C 2.675781 -2.632812 3.039062 -2.140625 3.59375 -1.828125 C 4.15625 -1.515625 4.929688 -1.359375 5.921875 -1.359375 C 6.984375 -1.359375 7.757812 -1.519531 8.25 -1.84375 C 8.738281 -2.164062 8.984375 -2.65625 8.984375 -3.3125 C 8.984375 -3.800781 8.8125 -4.195312 8.46875 -4.5 C 8.132812 -4.8125 7.585938 -5.070312 6.828125 -5.28125 L 5.328125 -5.671875 C 4.128906 -5.984375 3.273438 -6.285156 2.765625 -6.578125 C 2.265625 -6.878906 1.867188 -7.238281 1.578125 -7.65625 C 1.296875 -8.082031 1.15625 -8.609375 1.15625 -9.234375 C 1.15625 -10.378906 1.5625 -11.25 2.375 -11.84375 C 3.195312 -12.445312 4.390625 -12.75 5.953125 -12.75 C 7.335938 -12.75 8.4375 -12.503906 9.25 -12.015625 C 10.0625 -11.523438 10.578125 -10.742188 10.796875 -9.671875 L 8.921875 -9.4375 C 8.804688 -10 8.492188 -10.425781 7.984375 -10.71875 C 7.472656 -11.019531 6.796875 -11.171875 5.953125 -11.171875 C 5.003906 -11.171875 4.304688 -11.023438 3.859375 -10.734375 C 3.410156 -10.453125 3.1875 -10.019531 3.1875 -9.4375 C 3.1875 -9.082031 3.28125 -8.785156 3.46875 -8.546875 C 3.65625 -8.316406 3.925781 -8.117188 4.28125 -7.953125 C 4.644531 -7.796875 5.414062 -7.578125 6.59375 -7.296875 C 7.695312 -7.015625 8.488281 -6.753906 8.96875 -6.515625 C 9.457031 -6.285156 9.84375 -6.023438 10.125 -5.734375 C 10.40625 -5.453125 10.625 -5.125 10.78125 -4.75 C 10.9375 -4.375 11.015625 -3.945312 11.015625 -3.46875 Z M 11.015625 -3.46875 " />
      </g>
    </g>
  </g>
  <g fill="#001f3f" fill-opacity="1">
    <g transform="translate(323.047215, 210.71955)">
      <g>
        <path
          d="M 1.59375 -15.21875 L 1.59375 -17.203125 L 3.671875 -17.203125 L 3.671875 -15.21875 Z M 1.59375 0 L 1.59375 -12.546875 L 3.671875 -12.546875 L 3.671875 0 Z M 1.59375 0 " />
      </g>
    </g>
  </g>
  <g fill="#001f3f" fill-opacity="1">
    <g transform="translate(328.32222, 210.71955)">
      <g>
        <path
          d="M 6.359375 4.921875 C 4.984375 4.921875 3.890625 4.648438 3.078125 4.109375 C 2.265625 3.578125 1.742188 2.816406 1.515625 1.828125 L 3.625 1.53125 C 3.757812 2.113281 4.0625 2.5625 4.53125 2.875 C 5.007812 3.1875 5.632812 3.34375 6.40625 3.34375 C 8.488281 3.34375 9.53125 2.125 9.53125 -0.3125 L 9.53125 -2.328125 L 9.515625 -2.328125 C 9.117188 -1.523438 8.578125 -0.921875 7.890625 -0.515625 C 7.203125 -0.109375 6.394531 0.09375 5.46875 0.09375 C 3.9375 0.09375 2.804688 -0.414062 2.078125 -1.4375 C 1.359375 -2.457031 1 -4.0625 1 -6.25 C 1 -8.46875 1.382812 -10.101562 2.15625 -11.15625 C 2.9375 -12.21875 4.117188 -12.75 5.703125 -12.75 C 6.597656 -12.75 7.367188 -12.546875 8.015625 -12.140625 C 8.671875 -11.734375 9.175781 -11.15625 9.53125 -10.40625 L 9.5625 -10.40625 C 9.5625 -10.632812 9.578125 -11.035156 9.609375 -11.609375 C 9.640625 -12.179688 9.664062 -12.492188 9.6875 -12.546875 L 11.671875 -12.546875 C 11.628906 -12.128906 11.609375 -11.265625 11.609375 -9.953125 L 11.609375 -0.359375 C 11.609375 3.160156 9.859375 4.921875 6.359375 4.921875 Z M 9.53125 -6.28125 C 9.53125 -7.289062 9.390625 -8.164062 9.109375 -8.90625 C 8.835938 -9.644531 8.445312 -10.207031 7.9375 -10.59375 C 7.425781 -10.988281 6.851562 -11.1875 6.21875 -11.1875 C 5.144531 -11.1875 4.363281 -10.800781 3.875 -10.03125 C 3.394531 -9.257812 3.15625 -8.007812 3.15625 -6.28125 C 3.15625 -4.5625 3.378906 -3.328125 3.828125 -2.578125 C 4.285156 -1.828125 5.070312 -1.453125 6.1875 -1.453125 C 6.84375 -1.453125 7.425781 -1.644531 7.9375 -2.03125 C 8.445312 -2.414062 8.835938 -2.96875 9.109375 -3.6875 C 9.390625 -4.414062 9.53125 -5.28125 9.53125 -6.28125 Z M 9.53125 -6.28125 " />
      </g>
    </g>
  </g>
  <g fill="#001f3f" fill-opacity="1">
    <g transform="translate(341.527111, 210.71955)">
      <g>
        <path
          d="M 9.5625 0 L 9.5625 -7.953125 C 9.5625 -8.785156 9.476562 -9.425781 9.3125 -9.875 C 9.15625 -10.332031 8.898438 -10.660156 8.546875 -10.859375 C 8.191406 -11.066406 7.671875 -11.171875 6.984375 -11.171875 C 5.972656 -11.171875 5.175781 -10.828125 4.59375 -10.140625 C 4.019531 -9.453125 3.734375 -8.492188 3.734375 -7.265625 L 3.734375 0 L 1.640625 0 L 1.640625 -9.875 C 1.640625 -11.332031 1.617188 -12.222656 1.578125 -12.546875 L 3.546875 -12.546875 C 3.554688 -12.503906 3.5625 -12.398438 3.5625 -12.234375 C 3.570312 -12.066406 3.582031 -11.867188 3.59375 -11.640625 C 3.613281 -11.421875 3.628906 -11.007812 3.640625 -10.40625 L 3.671875 -10.40625 C 4.148438 -11.269531 4.703125 -11.878906 5.328125 -12.234375 C 5.960938 -12.597656 6.75 -12.78125 7.6875 -12.78125 C 9.0625 -12.78125 10.066406 -12.4375 10.703125 -11.75 C 11.347656 -11.070312 11.671875 -9.941406 11.671875 -8.359375 L 11.671875 0 Z M 9.5625 0 " />
      </g>
    </g>
  </g>
</svg>