<svg xmlns="http://www.w3.org/2000/svg" xmlns:xlink="http://www.w3.org/1999/xlink" width="500" zoomAndPan="magnify" viewBox="0 0 375 374.999991" height="500" preserveAspectRatio="xMidYMid meet" version="1.0"><defs><g/></defs><path stroke-linecap="butt" transform="matrix(0.495, 0, 0, 0.494426, 9.630042, 78.641311)" fill-opacity="1" fill="#ffffff" fill-rule="nonzero" stroke-linejoin="miter" d="M 112.497712 296.451706 L 110.75371 296.151484 L 112.750238 296.048777 C 114.652069 296.001373 123.900807 294.998001 147.496136 292.248602 C 153.398915 291.600756 164.099673 290.352466 171.249295 289.546607 C 178.398916 288.701246 187.40302 287.650471 191.246139 287.247542 C 195.049801 286.797209 199.303274 286.496987 200.652706 286.599695 L 203.099044 286.749806 L 202.79917 284.000407 C 202.649233 282.499299 202.152074 277.10321 201.702264 271.999441 C 201.252453 266.903573 200.849991 262.70047 200.802642 262.653067 C 200.700054 262.550359 163.097463 262.447652 117.200996 262.400249 L 33.749286 262.250138 L 33.449412 258.047034 L 47.748655 257.746813 L 57.999603 254.049346 C 105.103457 237.150026 147.646073 215.747382 193.550432 185.851625 L 202.846519 179.799788 L 203.201632 175.351767 C 203.351569 172.847286 203.501506 167.996336 203.548855 164.551687 C 203.596203 161.099138 203.74614 156.998742 203.896077 155.497634 L 204.251191 152.80354 L 206.397655 152.598125 L 208.496772 152.448014 L 208.496772 172.649772 C 208.496772 183.750073 208.646709 202.703541 208.899234 214.799313 L 209.246456 236.747097 L 209.54633 224.501214 C 209.696267 217.746226 209.901444 204.252052 209.948792 194.447445 C 209.948792 184.650738 210.146077 171.251371 210.351254 164.599091 C 210.603779 153.996526 210.753716 152.503318 211.448161 152.503318 C 213.649866 152.550721 213.752454 152.850943 214.099676 166.100199 C 214.352201 173.052701 214.596835 179.00183 214.699424 179.246748 C 215.149234 180.502939 242.698163 198.002701 257.999616 206.85134 C 293.50309 227.298015 330.647979 244.497557 363.45259 255.700565 L 370.097161 257.999631 L 416.048869 257.999631 L 415.898932 260.148586 L 415.748995 262.250138 L 334.751515 262.502956 L 253.746143 262.747874 L 252.901762 271.746623 C 252.451951 276.70028 251.946901 282.09637 251.796964 283.747589 L 251.49709 286.749806 L 255.853151 286.749806 C 258.29949 286.797209 266.348733 287.50036 273.75088 288.401025 C 294.899871 290.897605 333.252146 295.353527 339.502147 295.946069 C 341.553914 296.198888 342.603472 296.396402 341.7512 296.451706 C 336.850631 296.696623 113.949733 296.696623 112.497712 296.451706 Z M 233.70195 288.946164 C 240.89892 288.100803 240.401761 288.803954 239.652077 280.697969 C 239.352203 276.850391 238.799804 271.201484 238.452582 268.151864 L 237.900183 262.502956 L 216.498666 262.502956 L 216.498666 264.549204 C 216.498666 265.702687 216.048856 271.351594 215.449108 277.10321 C 214.896709 282.902228 214.549487 287.753178 214.746772 287.903289 C 215.149234 288.298317 223.403654 289.349093 226.702265 289.451801 C 228.051697 289.451801 231.200372 289.246386 233.70195 288.946164 Z M 69.552634 254.997414 C 71.746447 253.346195 73.403644 252.003098 73.198467 252.003098 C 72.701308 252.003098 57.849666 257.501895 57.549792 257.802117 C 57.447204 257.896924 59.151749 257.999631 61.400802 257.999631 L 65.496447 257.999631 Z M 80.300741 254.847303 C 80.300741 253.251388 80.150804 251.852987 79.953518 251.702877 C 79.598405 251.497462 71.501813 257.351784 71.501813 257.802117 C 71.501813 257.952228 73.450993 257.952228 75.897331 257.896924 L 80.253392 257.746813 Z M 101.55232 257.802117 C 101.647017 257.699409 101.702257 254.199457 101.599669 249.996353 L 101.449732 242.451309 L 93.8503 249.751436 C 89.652067 253.796528 86.203519 257.29648 86.10093 257.549298 C 85.903645 257.999631 101.10251 258.252449 101.55232 257.802117 Z M 124.248029 245.398222 C 124.050743 238.45362 123.798218 232.702005 123.75087 232.599298 C 123.703521 232.551895 120.397018 237.150026 116.49866 242.846337 C 112.552952 248.550549 108.701942 254.096749 107.897018 255.100122 C 107.147333 256.103494 106.500237 257.201673 106.500237 257.446591 C 106.500237 257.802117 109.498975 257.999631 115.55169 257.999631 L 124.603142 257.999631 Z M 148.450998 240.002132 C 148.403649 230.102718 148.253712 221.996733 148.048535 221.996733 C 147.748662 221.996733 129.850933 256.198301 129.598408 257.351784 C 129.448471 257.84952 131.247714 257.999631 138.997083 257.999631 L 148.553586 257.999631 Z M 174.950368 244.149932 C 174.90302 236.50218 174.753083 225.196464 174.547906 219.002417 L 174.248032 207.752005 L 172.646075 211.496875 C 171.146706 214.949424 166.198789 226.902987 157.399862 248.250327 C 155.450682 252.951167 153.801377 257.051563 153.65144 257.399188 C 153.446263 257.84952 155.750556 257.999631 164.202261 257.999631 L 174.997717 257.999631 Z M 200.700054 251.402655 C 200.999928 245.050597 201.702264 221.799219 202.246771 200.001546 L 202.546645 189.746606 L 191.096202 223.497841 C 184.798854 242.04838 179.748348 257.399188 179.850937 257.652006 C 179.953525 257.84952 184.648917 257.999631 190.251821 257.999631 L 200.40018 257.999631 Z M 238.602519 257.746813 C 238.697216 257.596702 233.496773 241.653351 227.049488 222.249551 C 217.003717 192.251086 215.196583 187.297429 215.101886 189.146162 C 214.999297 190.299646 215.149234 198.200216 215.449108 206.748633 C 216.348729 231.65123 217.051065 256.103494 216.85378 256.301008 C 216.751191 256.403716 214.249613 256.648633 211.353464 256.846148 C 201.102516 257.446591 206.153022 257.999631 222.148919 257.999631 C 231.050435 257.999631 238.452582 257.896924 238.602519 257.746813 Z M 245.097153 244.647667 C 245.199741 228.546306 245.349678 215.44716 245.452267 214.75191 C 245.546964 214.19887 246.801698 217.003573 250.55012 226.002322 L 253.146396 232.251673 L 253.548858 241.250422 C 253.746143 246.196179 253.95132 251.647573 253.95132 253.346195 L 253.998669 256.451119 L 251.647027 256.798744 C 246.351888 257.549298 247.64608 257.952228 255.853151 257.952228 C 260.548543 257.999631 264.54949 257.84952 264.652078 257.652006 C 264.746775 257.399188 262.797596 252.30332 260.303909 246.251483 C 257.747091 240.199646 253.248984 229.399567 250.297595 222.249551 C 247.298858 215.099535 244.702582 209.047698 244.497405 208.850184 C 244.30012 208.597366 244.102835 216.047604 244.047595 225.346575 C 244.047595 234.653446 243.850309 245.453526 243.700373 249.348507 C 243.35315 256.403716 243.503087 257.999631 244.497405 257.999631 C 244.797279 257.999631 245.049804 253.401499 245.097153 244.647667 Z M 288.997093 257.652006 C 288.997093 257.501895 287.450375 254.396971 285.548544 250.802212 C 283.646714 247.199552 279.701006 239.5518 276.749617 233.752781 C 273.798228 228.001166 271.201953 223.047509 270.996776 222.849994 C 270.602205 222.352259 269.852521 256.846148 270.247091 257.501895 C 270.602205 258.047034 288.997093 258.197145 288.997093 257.652006 Z M 311.700693 257.399188 C 310.098735 254.649789 295.302333 233.499963 294.947219 233.499963 C 294.702585 233.499963 294.497409 238.951356 294.497409 245.753747 L 294.497409 257.999631 L 303.296336 257.999631 C 310.146084 257.999631 312.000566 257.84952 311.700693 257.399188 Z M 331.997411 257.699409 C 331.997411 257.29648 318.10063 243.802306 317.453534 243.596892 C 316.948483 243.399377 316.798547 257.146369 317.350946 257.652006 C 317.753408 258.102338 331.997411 258.102338 331.997411 257.699409 Z M 345.996781 257.596702 C 345.996781 257.249077 341.396086 253.749124 339.147033 252.350723 C 338.649874 252.050502 338.499937 252.650945 338.499937 254.997414 L 338.499937 257.999631 L 342.248359 257.999631 C 344.300127 257.999631 345.996781 257.802117 345.996781 257.596702 Z M 364.39956 257.746813 C 364.249623 257.596702 361.0536 256.703937 357.20259 255.747968 C 353.398928 254.847303 349.200695 253.701721 347.898612 253.298792 C 346.54918 252.903763 345.499622 252.698348 345.499622 252.801056 C 345.499622 252.903763 346.99899 254.096749 348.798233 255.503051 L 352.152084 257.999631 L 358.402085 257.999631 C 361.850633 257.999631 364.549497 257.896924 364.39956 257.746813 Z M 335.501199 252.097905 L 335.501199 248.653256 L 329.353787 246.101372 C 325.952588 244.647667 323.001198 243.502085 322.748673 243.502085 C 322.251514 243.502085 334.546338 255.447747 335.146086 255.503051 C 335.351262 255.503051 335.501199 253.946638 335.501199 252.097905 Z M 96.351878 242.648823 C 96.24929 242.546116 93.550426 243.596892 90.299163 245.003193 C 87.10314 246.34629 84.246448 247.499773 84.001814 247.499773 C 83.70194 247.499773 83.496764 249.150992 83.496764 251.299947 L 83.496764 255.100122 L 89.999289 248.953478 C 93.597774 245.603636 96.399226 242.751531 96.351878 242.648823 Z M 120.002448 231.753937 C 120.002448 231.603826 107.147333 237.497651 105.498028 238.45362 C 105.103457 238.651135 104.748343 239.449092 104.803583 240.199646 C 104.803583 240.902797 104.850932 244.252639 104.89828 247.602481 L 105.000868 253.646417 L 112.497712 242.798934 C 116.648597 236.802401 120.002448 231.848744 120.002448 231.753937 Z M 291.451323 238.200802 C 291.498671 231.501119 291.348734 228.996638 290.898924 228.60161 C 290.551701 228.348791 286.897976 226.349947 282.747092 224.248395 C 278.651448 222.09944 274.753089 220.053193 274.153342 219.650264 C 273.498354 219.302638 273.001195 219.097224 273.001195 219.247334 C 273.001195 219.452749 277.002142 227.250612 281.902711 236.65229 L 290.748987 253.749124 L 291.04886 250.50199 C 291.246146 248.70066 291.396083 243.146559 291.451323 238.200802 Z M 313.997094 246.496401 L 313.997094 239.496496 L 306.650187 235.996543 C 302.64924 234.053003 299.24804 232.599298 299.153343 232.702005 C 298.85347 233.002227 313.050125 253.496306 313.547284 253.496306 C 313.799809 253.496306 313.997094 250.351879 313.997094 246.496401 Z M 135.998345 237.497651 C 140.196578 229.399567 144.150177 221.799219 144.797273 220.598332 C 145.45226 219.397445 145.799482 218.49678 145.546957 218.599488 C 143.100618 219.547556 127.451943 227.898459 127.302006 228.348791 C 126.899544 229.29686 127.649229 253.053874 128.051691 252.650945 C 128.248976 252.453431 131.847461 245.603636 135.998345 237.497651 Z M 267.051069 234.353225 L 267.201005 215.897493 L 259.199111 211.299361 C 254.850941 208.802781 250.202898 206.100786 248.900815 205.302828 C 247.551383 204.552274 246.501825 204.101942 246.501825 204.299456 C 246.501825 204.49697 248.900815 210.446099 251.796964 217.453905 C 258.402078 233.302449 265.449111 250.351879 266.048859 251.947794 C 266.301384 252.603542 266.601258 253.053874 266.703846 252.951167 C 266.853783 252.848459 267.00372 244.450153 267.051069 234.353225 Z M 156.9974 240.752686 C 159.246453 235.25389 163.697211 224.603921 166.798537 217.050976 C 169.947211 209.498031 172.44879 203.296083 172.401441 203.201277 C 172.298853 203.153873 170.799484 203.951831 169.000241 205.05001 C 167.200999 206.148189 162.552956 208.850184 158.599357 211.101847 L 151.449735 215.146939 L 151.599672 228.451499 C 151.749609 246.298887 152.002134 252.398127 152.499293 251.497462 C 152.696579 251.102433 154.748346 246.251483 156.9974 240.752686 Z M 240.851572 212.800469 L 240.748983 200.349171 L 235.501193 197.102036 C 232.597152 195.34811 227.696584 192.203683 224.547909 190.149535 C 221.446583 188.103287 218.850308 186.499471 218.747719 186.602179 C 218.700371 186.696986 223.498351 201.297239 229.448478 219.097224 L 240.251824 251.497462 L 240.599047 238.350913 C 240.851572 231.153494 240.946269 219.650264 240.851572 212.800469 Z M 199.753084 186.096542 C 199.650496 186.001735 195.996771 188.198094 191.648601 191.002796 C 187.300432 193.799598 182.352515 196.951926 180.647969 198.002701 L 177.546643 199.946242 L 177.799169 223.600549 C 177.949106 236.596986 178.146391 247.997509 178.296328 248.898174 C 178.501505 250.249172 180.647969 244.252639 189.249611 218.449377 C 195.15239 200.799503 199.903021 186.19925 199.753084 186.096542 Z M 199.753084 186.096542 " stroke="#ffffff" stroke-width="0.5" stroke-opacity="1" stroke-miterlimit="4"/><path stroke-linecap="butt" transform="matrix(0.495, 0, 0, 0.494426, 9.630042, 78.641311)" fill-opacity="1" fill="#ffffff" fill-rule="nonzero" stroke-linejoin="miter" d="M 89.50213 255.803272 C 89.896701 255.400343 92.548216 254.302164 95.397017 253.298792 L 100.502762 251.552766 L 100.502762 253.196084 C 100.502762 254.697193 100.297585 254.997414 98.498343 255.700565 C 97.251499 256.198301 95.002446 256.498523 92.650805 256.498523 C 89.296953 256.498523 88.902383 256.403716 89.50213 255.803272 Z M 89.50213 255.803272 " stroke="#ffffff" stroke-width="0.5" stroke-opacity="1" stroke-miterlimit="4"/><path stroke-linecap="butt" transform="matrix(0.495, 0, 0, 0.494426, 9.630042, 78.641311)" fill-opacity="1" fill="#ffffff" fill-rule="nonzero" stroke-linejoin="miter" d="M 115.401753 254.001942 L 115.251816 251.450058 L 112.347776 253.448903 C 109.648912 255.35294 109.498975 255.400343 110.248659 254.096749 C 110.651121 253.346195 112.15049 251.102433 113.60251 249.048285 C 116.001501 245.753747 116.5539 245.248111 119.647334 243.999821 L 123.001185 242.60142 L 123.001185 244.450153 C 123.001185 246.148776 122.851248 246.34629 120.902069 247.049441 L 118.747713 247.847398 L 118.653016 251.149837 C 118.550427 254.997414 118.95289 255.250233 121.399228 252.903763 L 123.048534 251.252544 L 122.898597 253.749124 L 122.74866 256.253605 L 115.55169 256.553827 Z M 115.401753 254.001942 " stroke="#ffffff" stroke-width="0.5" stroke-opacity="1" stroke-miterlimit="4"/><path stroke-linecap="butt" transform="matrix(0.495, 0, 0, 0.494426, 9.630042, 78.641311)" fill-opacity="1" fill="#ffffff" fill-rule="nonzero" stroke-linejoin="miter" d="M 137.000555 250.897018 C 137.047903 245.65104 137.150492 245.050597 138.499924 242.498712 L 139.951944 239.749314 L 139.999292 246.646512 C 139.999292 250.399282 140.149229 253.496306 140.401755 253.448903 C 140.59904 253.448903 142.098409 251.450058 143.700366 248.953478 C 145.302323 246.496401 146.801692 244.497557 146.951629 244.497557 C 147.148914 244.497557 147.3462 245.500929 147.401439 246.749219 C 147.448788 248.653256 147.148914 249.451214 144.947209 252.753652 L 142.453522 256.498523 L 137.000555 256.498523 Z M 137.000555 250.897018 " stroke="#ffffff" stroke-width="0.5" stroke-opacity="1" stroke-miterlimit="4"/><path stroke-linecap="butt" transform="matrix(0.495, 0, 0, 0.494426, 9.630042, 78.641311)" fill-opacity="1" fill="#ffffff" fill-rule="nonzero" stroke-linejoin="miter" d="M 141.001502 237.75047 C 141.001502 237.450248 142.200997 235.151182 142.848093 234.14781 C 143.100618 233.800185 144.102828 233.199741 145.152386 232.749409 L 146.998977 231.998855 L 146.998977 233.752781 C 146.998977 235.348696 146.801692 235.601515 144.497399 236.747097 C 142.098409 237.947984 141.001502 238.30351 141.001502 237.75047 Z M 141.001502 237.75047 " stroke="#ffffff" stroke-width="0.5" stroke-opacity="1" stroke-miterlimit="4"/><path stroke-linecap="butt" transform="matrix(0.495, 0, 0, 0.494426, 9.630042, 78.641311)" fill-opacity="1" fill="#ffffff" fill-rule="nonzero" stroke-linejoin="miter" d="M 159.8462 255.898079 C 159.751503 255.550454 159.601567 253.298792 159.546327 250.952322 C 159.498978 247.302259 159.648915 246.101372 160.801062 243.29667 C 162.450367 239.101467 163.2474 238.548427 162.900178 241.803462 C 162.750241 243.146559 162.750241 246.251483 162.947526 248.748063 L 163.2474 253.251388 L 167.903335 244.252639 C 170.49961 239.298981 172.803903 235.048475 173.048537 234.803557 C 173.301062 234.503335 173.498348 235.546211 173.498348 237.450248 C 173.498348 240.397161 173.253714 241.052908 169.402704 248.503146 L 165.251819 256.498523 L 162.702892 256.498523 C 161.053587 256.498523 159.996137 256.253605 159.8462 255.898079 Z M 159.8462 255.898079 " stroke="#ffffff" stroke-width="0.5" stroke-opacity="1" stroke-miterlimit="4"/><path stroke-linecap="butt" transform="matrix(0.495, 0, 0, 0.494426, 9.630042, 78.641311)" fill-opacity="1" fill="#ffffff" fill-rule="nonzero" stroke-linejoin="miter" d="M 169.402704 222.447065 C 169.852514 221.246179 170.752135 220.147999 171.549168 219.697667 C 173.450999 218.749599 173.498348 218.749599 173.498348 220.748443 C 173.498348 222.249551 173.253714 222.597176 171.50182 223.497841 C 168.747716 224.896242 168.447842 224.801435 169.402704 222.447065 Z M 169.402704 222.447065 " stroke="#ffffff" stroke-width="0.5" stroke-opacity="1" stroke-miterlimit="4"/><path stroke-linecap="butt" transform="matrix(0.495, 0, 0, 0.494426, 9.630042, 78.641311)" fill-opacity="1" fill="#ffffff" fill-rule="nonzero" stroke-linejoin="miter" d="M 184.001821 252.500834 C 184.001821 249.451214 184.349043 247.499773 185.398601 244.347446 L 186.748033 240.24705 L 187.000558 246.496401 C 187.197844 251.702877 187.34778 252.548238 187.797591 251.497462 C 188.152705 250.802212 190.898917 244.197335 194.000243 236.747097 C 197.101569 229.352164 199.847781 222.897398 200.100307 222.502369 C 200.40018 221.996733 200.447529 223.34773 200.297592 226.24724 C 199.997718 230.55305 199.753084 231.303604 194.647339 243.652196 L 189.29696 256.498523 L 184.001821 256.498523 Z M 184.001821 252.500834 " stroke="#ffffff" stroke-width="0.5" stroke-opacity="1" stroke-miterlimit="4"/><path stroke-linecap="butt" transform="matrix(0.495, 0, 0, 0.494426, 9.630042, 78.641311)" fill-opacity="1" fill="#ffffff" fill-rule="nonzero" stroke-linejoin="miter" d="M 197.49614 208.352448 C 197.49614 206.353604 199.350622 203.548902 200.652706 203.501498 C 200.897339 203.501498 200.999928 204.346859 200.897339 205.350232 C 200.802642 206.85134 200.447529 207.396479 199.153337 208.147033 C 197.748665 208.952892 197.49614 209.000295 197.49614 208.352448 Z M 197.49614 208.352448 " stroke="#ffffff" stroke-width="0.5" stroke-opacity="1" stroke-miterlimit="4"/><path stroke-linecap="butt" transform="matrix(0.495, 0, 0, 0.494426, 9.630042, 78.641311)" fill-opacity="1" fill="#ffffff" fill-rule="nonzero" stroke-linejoin="miter" d="M 217.998035 242.901641 C 217.998035 238.398316 218.147972 237.703066 221.052012 229.202053 C 222.748667 224.248395 224.248035 220.053193 224.500561 219.847778 C 224.950371 219.350042 225.999929 222.09944 225.999929 223.703256 C 225.999929 224.651324 218.700371 247.002037 218.203212 247.45237 C 218.100623 247.547177 217.998035 245.500929 217.998035 242.901641 Z M 217.998035 242.901641 " stroke="#ffffff" stroke-width="0.5" stroke-opacity="1" stroke-miterlimit="4"/><path stroke-linecap="butt" transform="matrix(0.495, 0, 0, 0.494426, 9.630042, 78.641311)" fill-opacity="1" fill="#ffffff" fill-rule="nonzero" stroke-linejoin="miter" d="M 216.498666 196.248775 C 216.553906 194.953081 216.601255 194.850374 217.051065 195.648332 C 217.453527 196.351482 217.453527 196.746511 217.051065 197.14944 C 216.648603 197.552369 216.498666 197.299551 216.498666 196.248775 Z M 216.498666 196.248775 " stroke="#ffffff" stroke-width="0.5" stroke-opacity="1" stroke-miterlimit="4"/><path stroke-linecap="butt" transform="matrix(0.495, 0, 0, 0.494426, 9.630042, 78.641311)" fill-opacity="1" fill="#ffffff" fill-rule="nonzero" stroke-linejoin="miter" d="M 272.701321 255.653162 C 272.551385 255.147525 272.196271 254.199457 271.951637 253.448903 C 271.651763 252.753652 271.549175 250.051657 271.596523 247.45237 L 271.74646 242.751531 L 272.953847 246.34629 C 273.648291 248.353035 274.350627 249.846243 274.603152 249.696132 C 274.800438 249.553921 274.997723 245.801151 274.997723 241.35313 L 275.052963 233.247145 L 276.497092 235.996543 C 277.949112 238.753842 277.949112 238.801246 277.996461 247.649884 L 277.996461 256.498523 L 275.502774 256.498523 C 273.553594 256.498523 272.898607 256.301008 272.701321 255.653162 Z M 272.701321 255.653162 " stroke="#ffffff" stroke-width="0.5" stroke-opacity="1" stroke-miterlimit="4"/><path stroke-linecap="butt" transform="matrix(0.495, 0, 0, 0.494426, 9.630042, 78.641311)" fill-opacity="1" fill="#ffffff" fill-rule="nonzero" stroke-linejoin="miter" d="M 299.153343 255.653162 C 299.003406 255.147525 298.151134 253.298792 297.346209 251.497462 C 296.146714 248.850771 295.846841 247.547177 295.799492 244.40275 C 295.799492 242.253795 295.846841 240.499868 295.996777 240.499868 C 296.146714 240.499868 296.549177 241.100311 296.84905 241.898269 C 297.148924 242.648823 298.348419 245.398222 299.453217 247.997509 L 301.449745 252.753652 L 301.497094 249.150992 C 301.497094 247.152148 301.64703 245.500929 301.899556 245.500929 C 302.096841 245.500929 302.901765 246.448997 303.65145 247.649884 C 304.850945 249.498617 305.000882 250.146464 304.898293 252.99857 L 304.748356 256.253605 L 302.096841 256.403716 C 299.950376 256.553827 299.453217 256.403716 299.153343 255.653162 Z M 299.153343 255.653162 " stroke="#ffffff" stroke-width="0.5" stroke-opacity="1" stroke-miterlimit="4"/><path stroke-linecap="butt" transform="matrix(0.495, 0, 0, 0.494426, 9.630042, 78.641311)" fill-opacity="1" fill="#ffffff" fill-rule="nonzero" stroke-linejoin="miter" d="M 321.50183 251.702877 C 320.049809 249.103589 319.000251 246.851927 319.10284 246.749219 C 319.197537 246.599108 321.549178 248.803367 324.248042 251.497462 L 329.251199 256.498523 L 324.050757 256.498523 Z M 321.50183 251.702877 " stroke="#ffffff" stroke-width="0.5" stroke-opacity="1" stroke-miterlimit="4"/><path stroke-linecap="butt" transform="matrix(0.495, 0, 0, 0.494426, 9.630042, 78.641311)" fill-opacity="1" fill="#ffffff" fill-rule="nonzero" stroke-linejoin="miter" d="M 288.847156 231.351008 C 287.900186 228.949235 287.797598 228.498902 288.452585 228.498902 C 289.502143 228.498902 290.449113 230.102718 290.251828 231.548522 C 289.999302 233.752781 289.849365 233.697477 288.847156 231.351008 Z M 288.847156 231.351008 " stroke="#ffffff" stroke-width="0.5" stroke-opacity="1" stroke-miterlimit="4"/><path stroke-linecap="butt" transform="matrix(0.495, 0, 0, 0.494426, 9.630042, 78.641311)" fill-opacity="1" fill="#ffffff" fill-rule="nonzero" stroke-linejoin="miter" d="M 276.796966 224.200992 C 275.802647 222.052037 275.897344 221.751815 277.396713 222.802591 C 277.996461 223.19762 278.501511 224.098285 278.501511 224.801435 C 278.501511 226.547461 277.799175 226.302544 276.796966 224.200992 Z M 276.796966 224.200992 " stroke="#ffffff" stroke-width="0.5" stroke-opacity="1" stroke-miterlimit="4"/><path stroke-linecap="butt" transform="matrix(0.495, 0, 0, 0.494426, 9.630042, 78.641311)" fill-opacity="1" fill="#ffffff" fill-rule="nonzero" stroke-linejoin="miter" d="M 303.548861 237.450248 C 302.246778 235.696321 302.396715 235.151182 303.951323 235.996543 C 304.598419 236.296765 305.000882 237.047319 305.000882 237.75047 C 305.000882 239.346385 304.898293 239.298981 303.548861 237.450248 Z M 303.548861 237.450248 " stroke="#ffffff" stroke-width="0.5" stroke-opacity="1" stroke-miterlimit="4"/><path stroke-linecap="butt" transform="matrix(0.495, 0, 0, 0.494426, 9.630042, 78.641311)" fill-opacity="1" fill="#ffffff" fill-rule="nonzero" stroke-linejoin="miter" d="M 128.848724 247.697288 C 128.201628 247.049441 128.501501 246.148776 129.748345 244.797778 C 131.302954 243.146559 131.397651 242.253795 130.00087 242.996448 C 129.203837 243.399377 128.896072 243.399377 128.698787 242.798934 C 127.949102 240.902797 129.401123 239.496496 133.40207 238.30351 L 134.546325 237.900581 L 133.449418 239.852021 C 132.849671 240.902797 131.650176 243.146559 130.797903 244.900486 C 129.953522 246.646512 129.0539 247.902702 128.848724 247.697288 Z M 128.848724 247.697288 " stroke="#ffffff" stroke-width="0.5" stroke-opacity="1" stroke-miterlimit="4"/><path stroke-linecap="butt" transform="matrix(0.495, 0, 0, 0.494426, 9.630042, 78.641311)" fill-opacity="1" fill="#ffffff" fill-rule="nonzero" stroke-linejoin="miter" d="M 265.401763 233.997699 C 264.54949 232.148965 258.102204 212.753066 258.29949 212.547651 C 258.402078 212.452844 259.301699 212.753066 260.248669 213.298205 C 261.748038 214.096163 262.197848 214.799313 263.452583 218.251863 C 264.249616 220.448221 265.149238 223.150216 265.49646 224.248395 C 266.096207 226.302544 266.00151 235.348696 265.401763 233.997699 Z M 265.401763 233.997699 " stroke="#ffffff" stroke-width="0.5" stroke-opacity="1" stroke-miterlimit="4"/><path stroke-linecap="butt" transform="matrix(0.495, 0, 0, 0.494426, 9.630042, 78.641311)" fill-opacity="1" fill="#ffffff" fill-rule="nonzero" stroke-linejoin="miter" d="M 250.55012 211.449472 C 249.697848 209.197809 249.050752 207.246368 249.15334 207.151562 C 249.303277 207.048854 250.052961 207.349076 250.952583 207.846812 C 252.451951 208.700073 252.4993 208.850184 252.4993 212.152623 C 252.4993 214.001356 252.396711 215.502464 252.349363 215.502464 C 252.246775 215.502464 251.449742 213.653731 250.55012 211.449472 Z M 250.55012 211.449472 " stroke="#ffffff" stroke-width="0.5" stroke-opacity="1" stroke-miterlimit="4"/><path stroke-linecap="butt" transform="matrix(0.495, 0, 0, 0.494426, 9.630042, 78.641311)" fill-opacity="1" fill="#ffffff" fill-rule="nonzero" stroke-linejoin="miter" d="M 152.996452 237.853177 C 152.996452 235.799029 153.296326 234.803557 154.251187 233.499963 C 155.750556 231.453715 155.797905 231.303604 154.551061 231.998855 C 153.099041 232.749409 152.996452 232.646701 152.996452 230.750565 C 152.996452 229.099345 153.099041 228.949235 157.50245 226.847683 C 159.996137 225.599393 162.000557 224.848839 162.000557 225.101657 C 162.000557 226.452654 158.701945 232.946923 156.247715 236.446876 C 154.700998 238.698538 153.296326 240.499868 153.201629 240.499868 C 153.099041 240.499868 152.996452 239.298981 152.996452 237.853177 Z M 152.996452 237.853177 " stroke="#ffffff" stroke-width="0.5" stroke-opacity="1" stroke-miterlimit="4"/><path stroke-linecap="butt" transform="matrix(0.495, 0, 0, 0.494426, 9.630042, 78.641311)" fill-opacity="1" fill="#ffffff" fill-rule="nonzero" stroke-linejoin="miter" d="M 238.349993 242.451309 C 238.200057 241.898269 238.247405 236.849805 238.49993 231.351008 C 238.752456 225.796907 238.997089 218.196559 239.099678 214.499092 L 239.202266 207.752005 L 239.4469 214.75191 C 239.849362 224.050881 239.549488 243.502085 238.997089 243.502085 C 238.799804 243.502085 238.49993 243.051752 238.349993 242.451309 Z M 238.349993 242.451309 " stroke="#ffffff" stroke-width="0.5" stroke-opacity="1" stroke-miterlimit="4"/><path stroke-linecap="butt" transform="matrix(0.495, 0, 0, 0.494426, 9.630042, 78.641311)" fill-opacity="1" fill="#ffffff" fill-rule="nonzero" stroke-linejoin="miter" d="M 228.746142 213.250802 C 228.548856 212.697762 228.201634 211.646986 227.949109 210.951736 C 227.546647 209.948363 227.90176 208.447255 229.503718 203.699012 C 230.647973 200.451878 231.650182 197.449661 231.752771 197.14944 C 232.052644 196.201371 234.498983 197.402258 234.498983 198.500437 C 234.498983 199.401102 230.348099 211.947208 229.598415 213.353509 C 229.101255 214.19887 229.053907 214.19887 228.746142 213.250802 Z M 228.746142 213.250802 " stroke="#ffffff" stroke-width="0.5" stroke-opacity="1" stroke-miterlimit="4"/><path stroke-linecap="butt" transform="matrix(0.495, 0, 0, 0.494426, 9.630042, 78.641311)" fill-opacity="1" fill="#ffffff" fill-rule="nonzero" stroke-linejoin="miter" d="M 221.801697 192.701419 C 220.949424 190.49716 222.251507 189.746606 224.248035 191.303018 C 225.250245 192.053572 225.250245 192.053572 224.303275 192.796226 C 223.001192 193.696891 222.196268 193.696891 221.801697 192.701419 Z M 221.801697 192.701419 " stroke="#ffffff" stroke-width="0.5" stroke-opacity="1" stroke-miterlimit="4"/><path stroke-linecap="butt" transform="matrix(0.495, 0, 0, 0.494426, 9.630042, 78.641311)" fill-opacity="1" fill="#ffffff" fill-rule="nonzero" stroke-linejoin="miter" d="M 183.402073 225.947018 L 183.252136 221.751815 L 181.247717 225.496685 L 179.251189 229.249456 L 179.101252 226.152433 C 178.998664 223.798063 179.203841 222.549773 180.000873 221.048664 C 181.247717 218.552084 181.247717 218.346669 180.000873 218.749599 C 179.148601 219.002417 178.998664 218.852306 178.998664 217.398601 C 178.998664 215.802686 179.203841 215.597271 184.696265 212.602955 C 187.852831 210.896432 190.496455 209.498031 190.701632 209.498031 C 190.851569 209.498031 190.851569 209.90096 190.701632 210.398696 C 189.80201 213.100691 189.29696 213.946052 188.200053 214.396384 C 187.103147 214.949424 187.000558 215.249646 187.000558 218.299266 C 187.000558 221.39629 185.098727 228.451499 183.946581 229.699789 C 183.749295 229.952607 183.49677 228.246084 183.402073 225.947018 Z M 183.402073 225.947018 " stroke="#ffffff" stroke-width="0.5" stroke-opacity="1" stroke-miterlimit="4"/><path stroke-linecap="butt" transform="matrix(0.495, 0, 0, 0.494426, 9.630042, 78.641311)" fill-opacity="1" fill="#ffffff" fill-rule="nonzero" stroke-linejoin="miter" d="M 367.903348 255.850676 C 367.153663 255.503051 363.45259 252.350723 359.648928 248.748063 L 352.751832 242.253795 L 352.601895 246.34629 L 352.451958 250.446686 L 350.999938 249.901547 L 349.500569 249.403811 L 349.500569 243.952417 C 349.500569 239.196274 349.39798 238.45362 348.648296 238.153399 C 348.151137 238.003288 344.647349 236.399472 340.851578 234.70085 C 332.897032 231.050786 332.999621 230.450343 339.896717 240.199646 C 342.20101 243.502085 344.197538 246.448997 344.347475 246.796623 C 344.497412 247.246955 343.850316 247.152148 342.153662 246.551705 C 339.951957 245.698443 339.35221 245.098 334.996149 238.951356 L 330.253409 232.251673 L 329.850946 236.50218 C 329.598421 238.848649 329.353787 240.847493 329.20385 240.950201 C 329.101262 241.052908 328.446275 240.902797 327.75183 240.602576 C 326.497095 240.049536 326.497095 239.946828 326.449747 233.902892 L 326.449747 227.748348 L 317.201009 223.102813 C 312.150503 220.550929 307.999619 218.646891 307.999619 218.852306 C 307.999619 219.097224 309.90145 222.849994 312.253092 227.250612 C 314.549493 231.603826 316.396084 235.301293 316.301387 235.3961 C 316.198799 235.451404 315.149241 235.048475 313.949746 234.503335 C 311.953218 233.499963 311.448167 232.89952 308.749304 227.700945 C 307.099998 224.548617 305.600629 221.996733 305.403344 221.996733 C 305.150818 221.996733 305.000882 223.798063 305.000882 226.002322 C 305.000882 228.19868 304.898293 230.00001 304.803596 230.00001 C 304.653659 230.00001 303.998672 229.802496 303.296336 229.502275 L 302.002144 228.996638 L 302.002144 222.146844 L 301.946904 215.249646 L 291.246146 209.197809 C 285.351259 205.847968 280.498039 203.153873 280.498039 203.201277 C 280.498039 203.24868 282.202585 207.198965 284.246461 212.002512 C 286.298229 216.798158 288.002774 221.048664 288.002774 221.39629 C 288.002774 221.901926 287.403027 221.751815 285.951007 220.898554 C 284.096524 219.847778 283.646714 219.199931 281.302963 213.748538 L 278.746145 207.752005 L 278.596208 212.152623 C 278.54886 214.546495 278.351574 216.497936 278.201637 216.497936 C 277.649238 216.497936 275.747407 215.352353 275.400185 214.799313 C 275.2029 214.499092 275.14766 211.101847 275.352837 207.198965 L 275.65271 200.151656 L 271.201953 197.497065 C 268.747723 196.003857 263.397344 192.701419 259.349048 190.149535 C 255.253404 187.597651 251.852204 185.496099 251.749615 185.496099 C 251.402393 185.496099 252.349363 188.198094 255.703214 196.801815 C 257.502457 201.502654 259.001826 205.500342 259.001826 205.697857 C 259.001826 205.903272 258.149553 205.60305 257.099995 205.002607 C 255.750563 204.252052 254.748353 203.098569 253.801383 201.202432 C 252.302015 198.247619 251.899552 197.899994 252.002141 199.653921 C 252.049489 200.246463 252.096838 200.997017 252.049489 201.352543 C 252.002141 201.700168 249.248037 200.349171 245.949426 198.350326 L 239.896711 194.747667 L 240.251824 180.25012 C 240.44911 172.302147 240.748983 163.153287 240.946269 160.000959 L 241.246143 154.249344 L 243.250562 153.949122 C 244.347469 153.751608 245.397027 153.751608 245.602203 153.901719 C 245.75214 154.099233 246.052014 160.451292 246.249299 167.996336 C 246.849047 190.900089 247.346206 192.748822 247.448794 172.396954 L 247.496143 153.996526 L 250.400184 153.996526 L 250.700057 158.096922 C 250.849994 160.403888 251.102519 166.447824 251.299805 171.551593 C 251.449742 176.64746 251.749615 181.103382 251.946901 181.3483 C 252.096838 181.601118 256.752772 184.650738 262.253088 188.103287 C 309.546336 217.698823 354.653663 239.5518 401.252466 255.400343 L 404.251204 256.403716 L 402.302024 256.451119 C 400.352845 256.498523 387.450382 253.599013 383.402086 252.248016 L 381.24773 251.497462 L 382.549813 252.650945 C 383.252149 253.251388 384.601581 254.349568 385.548551 255.100122 L 387.253097 256.451119 L 384.64893 256.498523 C 382.24994 256.498523 381.752781 256.301008 378.398929 253.749124 L 374.753096 251.047129 L 374.603159 253.749124 L 374.453222 256.498523 L 371.849055 256.498523 C 370.397035 256.451119 368.653032 256.198301 367.903348 255.850676 Z M 370.996782 251.497462 C 370.996782 249.846243 371.052022 248.353035 371.099371 248.14762 C 371.146719 247.799995 361.298234 243.446781 358.749307 242.696227 C 358.196908 242.546116 360.548549 245.098 363.997098 248.447842 C 367.453537 251.75028 370.397035 254.452275 370.64956 254.452275 C 370.846846 254.499678 370.996782 253.148681 370.996782 251.497462 Z M 370.996782 251.497462 " stroke="#ffffff" stroke-width="0.5" stroke-opacity="1" stroke-miterlimit="4"/><path stroke-linecap="butt" transform="matrix(0.495, 0, 0, 0.494426, 9.630042, 78.641311)" fill-opacity="1" fill="#ffffff" fill-rule="nonzero" stroke-linejoin="miter" d="M 235.051382 191.547936 C 233.796647 190.599867 233.796647 190.402353 235.248667 186.9024 C 235.753718 185.598806 234.696268 185.796321 232.69974 187.297429 C 231.153023 188.498316 230.853149 188.55362 229.503718 188.00058 C 228.651445 187.652955 227.996457 187.202622 227.996457 186.949804 C 227.996457 186.602179 238.200057 179.499566 238.752456 179.499566 C 238.902392 179.499566 238.997089 180.897967 238.997089 182.59659 C 238.997089 185.401292 237.197847 192.503905 236.550751 192.503905 C 236.353465 192.503905 235.698478 192.053572 235.051382 191.547936 Z M 235.051382 191.547936 " stroke="#ffffff" stroke-width="0.5" stroke-opacity="1" stroke-miterlimit="4"/><g fill="#ffffff" fill-opacity="1"><g transform="translate(225.424947, 188.491897)"><g><path d="M 15.03125 -11.171875 C 15.03125 -10.117188 14.789062 -9.175781 14.3125 -8.34375 C 13.832031 -7.519531 13.144531 -6.878906 12.25 -6.421875 C 11.351562 -5.972656 10.289062 -5.75 9.0625 -5.75 L 5.015625 -5.75 L 5.015625 0 L 1.59375 0 L 1.59375 -16.34375 L 8.921875 -16.34375 C 10.878906 -16.34375 12.382812 -15.890625 13.4375 -14.984375 C 14.5 -14.085938 15.03125 -12.816406 15.03125 -11.171875 Z M 11.578125 -11.109375 C 11.578125 -12.828125 10.566406 -13.6875 8.546875 -13.6875 L 5.015625 -13.6875 L 5.015625 -8.390625 L 8.640625 -8.390625 C 9.578125 -8.390625 10.300781 -8.617188 10.8125 -9.078125 C 11.320312 -9.546875 11.578125 -10.222656 11.578125 -11.109375 Z M 11.578125 -11.109375 "/></g></g></g><g fill="#ffffff" fill-opacity="1"><g transform="translate(241.261531, 188.491897)"><g><path d="M 4.5625 0.234375 C 3.34375 0.234375 2.394531 -0.09375 1.71875 -0.75 C 1.039062 -1.414062 0.703125 -2.347656 0.703125 -3.546875 C 0.703125 -4.847656 1.125 -5.835938 1.96875 -6.515625 C 2.8125 -7.191406 4.035156 -7.539062 5.640625 -7.5625 L 8.34375 -7.609375 L 8.34375 -8.25 C 8.34375 -9.0625 8.195312 -9.664062 7.90625 -10.0625 C 7.625 -10.46875 7.160156 -10.671875 6.515625 -10.671875 C 5.910156 -10.671875 5.46875 -10.53125 5.1875 -10.25 C 4.90625 -9.976562 4.726562 -9.523438 4.65625 -8.890625 L 1.265625 -9.0625 C 1.472656 -10.28125 2.03125 -11.203125 2.9375 -11.828125 C 3.84375 -12.460938 5.082031 -12.78125 6.65625 -12.78125 C 8.238281 -12.78125 9.457031 -12.390625 10.3125 -11.609375 C 11.175781 -10.828125 11.609375 -9.71875 11.609375 -8.28125 L 11.609375 -3.71875 C 11.609375 -3.007812 11.6875 -2.519531 11.84375 -2.25 C 12 -1.988281 12.265625 -1.859375 12.640625 -1.859375 C 12.890625 -1.859375 13.128906 -1.878906 13.359375 -1.921875 L 13.359375 -0.15625 C 13.160156 -0.113281 12.984375 -0.0703125 12.828125 -0.03125 C 12.679688 0 12.53125 0.0234375 12.375 0.046875 C 12.21875 0.078125 12.050781 0.0976562 11.875 0.109375 C 11.707031 0.128906 11.503906 0.140625 11.265625 0.140625 C 10.453125 0.140625 9.847656 -0.0546875 9.453125 -0.453125 C 9.066406 -0.859375 8.832031 -1.453125 8.75 -2.234375 L 8.6875 -2.234375 C 7.769531 -0.585938 6.394531 0.234375 4.5625 0.234375 Z M 8.34375 -5.8125 L 6.6875 -5.78125 C 5.925781 -5.75 5.382812 -5.664062 5.0625 -5.53125 C 4.75 -5.394531 4.507812 -5.1875 4.34375 -4.90625 C 4.175781 -4.632812 4.09375 -4.265625 4.09375 -3.796875 C 4.09375 -3.203125 4.226562 -2.757812 4.5 -2.46875 C 4.78125 -2.1875 5.144531 -2.046875 5.59375 -2.046875 C 6.101562 -2.046875 6.566406 -2.179688 6.984375 -2.453125 C 7.410156 -2.734375 7.742188 -3.117188 7.984375 -3.609375 C 8.222656 -4.097656 8.34375 -4.617188 8.34375 -5.171875 Z M 8.34375 -5.8125 "/></g></g></g><g fill="#ffffff" fill-opacity="1"><g transform="translate(254.466422, 188.491897)"><g><path d="M 1.65625 0 L 1.65625 -9.609375 C 1.65625 -10.296875 1.644531 -10.867188 1.625 -11.328125 C 1.601562 -11.785156 1.582031 -12.191406 1.5625 -12.546875 L 4.671875 -12.546875 C 4.691406 -12.410156 4.722656 -11.988281 4.765625 -11.28125 C 4.804688 -10.570312 4.828125 -10.101562 4.828125 -9.875 L 4.875 -9.875 C 5.1875 -10.75 5.46875 -11.363281 5.71875 -11.71875 C 5.96875 -12.082031 6.257812 -12.351562 6.59375 -12.53125 C 6.9375 -12.707031 7.363281 -12.796875 7.875 -12.796875 C 8.289062 -12.796875 8.628906 -12.738281 8.890625 -12.625 L 8.890625 -9.890625 C 8.359375 -10.003906 7.890625 -10.0625 7.484375 -10.0625 C 6.679688 -10.0625 6.050781 -9.734375 5.59375 -9.078125 C 5.144531 -8.421875 4.921875 -7.445312 4.921875 -6.15625 L 4.921875 0 Z M 1.65625 0 "/></g></g></g><g fill="#ffffff" fill-opacity="1"><g transform="translate(263.70637, 188.491897)"><g><path d="M 9.671875 0 L 6.3125 -5.6875 L 4.921875 -4.703125 L 4.921875 0 L 1.65625 0 L 1.65625 -17.203125 L 4.921875 -17.203125 L 4.921875 -7.359375 L 9.390625 -12.546875 L 12.890625 -12.546875 L 8.484375 -7.65625 L 13.234375 0 Z M 9.671875 0 "/></g></g></g><g fill="#ffffff" fill-opacity="1"><g transform="translate(276.91126, 188.491897)"><g/></g></g><g fill="#ffffff" fill-opacity="1"><g transform="translate(283.507913, 188.491897)"><g><path d="M 9.21875 -2.453125 C 11.28125 -2.453125 12.710938 -3.488281 13.515625 -5.5625 L 16.5 -4.4375 C 15.863281 -2.863281 14.921875 -1.691406 13.671875 -0.921875 C 12.429688 -0.148438 10.945312 0.234375 9.21875 0.234375 C 6.59375 0.234375 4.5625 -0.507812 3.125 -2 C 1.6875 -3.488281 0.96875 -5.570312 0.96875 -8.25 C 0.96875 -10.925781 1.660156 -12.984375 3.046875 -14.421875 C 4.429688 -15.859375 6.4375 -16.578125 9.0625 -16.578125 C 10.976562 -16.578125 12.539062 -16.191406 13.75 -15.421875 C 14.957031 -14.660156 15.804688 -13.53125 16.296875 -12.03125 L 13.28125 -11.21875 C 13.019531 -12.03125 12.515625 -12.675781 11.765625 -13.15625 C 11.023438 -13.644531 10.148438 -13.890625 9.140625 -13.890625 C 7.585938 -13.890625 6.410156 -13.410156 5.609375 -12.453125 C 4.816406 -11.492188 4.421875 -10.09375 4.421875 -8.25 C 4.421875 -6.363281 4.832031 -4.925781 5.65625 -3.9375 C 6.476562 -2.945312 7.664062 -2.453125 9.21875 -2.453125 Z M 9.21875 -2.453125 "/></g></g></g><g fill="#ffffff" fill-opacity="1"><g transform="translate(300.65456, 188.491897)"><g><path d="M 1.65625 -14.8125 L 1.65625 -17.203125 L 4.921875 -17.203125 L 4.921875 -14.8125 Z M 1.65625 0 L 1.65625 -12.546875 L 4.921875 -12.546875 L 4.921875 0 Z M 1.65625 0 "/></g></g></g><g fill="#ffffff" fill-opacity="1"><g transform="translate(307.251213, 188.491897)"><g><path d="M 1.65625 0 L 1.65625 -9.609375 C 1.65625 -10.296875 1.644531 -10.867188 1.625 -11.328125 C 1.601562 -11.785156 1.582031 -12.191406 1.5625 -12.546875 L 4.671875 -12.546875 C 4.691406 -12.410156 4.722656 -11.988281 4.765625 -11.28125 C 4.804688 -10.570312 4.828125 -10.101562 4.828125 -9.875 L 4.875 -9.875 C 5.1875 -10.75 5.46875 -11.363281 5.71875 -11.71875 C 5.96875 -12.082031 6.257812 -12.351562 6.59375 -12.53125 C 6.9375 -12.707031 7.363281 -12.796875 7.875 -12.796875 C 8.289062 -12.796875 8.628906 -12.738281 8.890625 -12.625 L 8.890625 -9.890625 C 8.359375 -10.003906 7.890625 -10.0625 7.484375 -10.0625 C 6.679688 -10.0625 6.050781 -9.734375 5.59375 -9.078125 C 5.144531 -8.421875 4.921875 -7.445312 4.921875 -6.15625 L 4.921875 0 Z M 1.65625 0 "/></g></g></g><g fill="#ffffff" fill-opacity="1"><g transform="translate(316.491161, 188.491897)"><g><path d="M 6.890625 0.234375 C 4.984375 0.234375 3.507812 -0.332031 2.46875 -1.46875 C 1.4375 -2.601562 0.921875 -4.179688 0.921875 -6.203125 C 0.921875 -8.273438 1.441406 -9.890625 2.484375 -11.046875 C 3.535156 -12.203125 5.019531 -12.78125 6.9375 -12.78125 C 8.414062 -12.78125 9.632812 -12.40625 10.59375 -11.65625 C 11.5625 -10.914062 12.171875 -9.894531 12.421875 -8.59375 L 9.140625 -8.4375 C 9.046875 -9.070312 8.8125 -9.582031 8.4375 -9.96875 C 8.070312 -10.351562 7.546875 -10.546875 6.859375 -10.546875 C 5.179688 -10.546875 4.34375 -9.140625 4.34375 -6.328125 C 4.34375 -3.441406 5.195312 -2 6.90625 -2 C 7.53125 -2 8.050781 -2.191406 8.46875 -2.578125 C 8.882812 -2.972656 9.144531 -3.554688 9.25 -4.328125 L 12.515625 -4.171875 C 12.398438 -3.316406 12.09375 -2.550781 11.59375 -1.875 C 11.09375 -1.207031 10.4375 -0.6875 9.625 -0.3125 C 8.8125 0.0507812 7.898438 0.234375 6.890625 0.234375 Z M 6.890625 0.234375 "/></g></g></g><g fill="#ffffff" fill-opacity="1"><g transform="translate(329.696051, 188.491897)"><g><path d="M 1.65625 0 L 1.65625 -17.203125 L 4.921875 -17.203125 L 4.921875 0 Z M 1.65625 0 "/></g></g></g><g fill="#ffffff" fill-opacity="1"><g transform="translate(336.292704, 188.491897)"><g><path d="M 6.796875 0.234375 C 4.910156 0.234375 3.457031 -0.320312 2.4375 -1.4375 C 1.425781 -2.5625 0.921875 -4.191406 0.921875 -6.328125 C 0.921875 -8.398438 1.4375 -9.992188 2.46875 -11.109375 C 3.5 -12.222656 4.957031 -12.78125 6.84375 -12.78125 C 8.644531 -12.78125 10.019531 -12.179688 10.96875 -10.984375 C 11.914062 -9.796875 12.390625 -8.046875 12.390625 -5.734375 L 12.390625 -5.640625 L 4.34375 -5.640625 C 4.34375 -4.421875 4.566406 -3.5 5.015625 -2.875 C 5.472656 -2.257812 6.117188 -1.953125 6.953125 -1.953125 C 8.109375 -1.953125 8.835938 -2.445312 9.140625 -3.4375 L 12.21875 -3.171875 C 11.320312 -0.898438 9.515625 0.234375 6.796875 0.234375 Z M 6.796875 -10.734375 C 6.023438 -10.734375 5.429688 -10.460938 5.015625 -9.921875 C 4.609375 -9.390625 4.394531 -8.644531 4.375 -7.6875 L 9.25 -7.6875 C 9.1875 -8.695312 8.941406 -9.457031 8.515625 -9.96875 C 8.085938 -10.476562 7.515625 -10.734375 6.796875 -10.734375 Z M 6.796875 -10.734375 "/></g></g></g><g fill="#ffffff" fill-opacity="1"><g transform="translate(225.407553, 210.71955)"><g><path d="M 17.515625 0 L 14.875 0 L 12.046875 -10.375 C 11.859375 -11.03125 11.585938 -12.195312 11.234375 -13.875 C 11.035156 -12.976562 10.863281 -12.226562 10.71875 -11.625 C 10.582031 -11.019531 9.53125 -7.144531 7.5625 0 L 4.921875 0 L 0.109375 -16.34375 L 2.40625 -16.34375 L 5.34375 -5.953125 C 5.695312 -4.660156 6.019531 -3.328125 6.3125 -1.953125 C 6.5 -2.796875 6.710938 -3.71875 6.953125 -4.71875 C 7.191406 -5.726562 8.265625 -9.601562 10.171875 -16.34375 L 12.296875 -16.34375 L 15.140625 -6.171875 C 15.566406 -4.503906 15.90625 -3.097656 16.15625 -1.953125 L 16.265625 -2.359375 C 16.472656 -3.242188 16.640625 -3.96875 16.765625 -4.53125 C 16.898438 -5.09375 17.988281 -9.03125 20.03125 -16.34375 L 22.328125 -16.34375 Z M 17.515625 0 "/></g></g></g><g fill="#ffffff" fill-opacity="1"><g transform="translate(247.817602, 210.71955)"><g><path d="M 3.203125 -5.828125 C 3.203125 -4.390625 3.5 -3.28125 4.09375 -2.5 C 4.6875 -1.71875 5.554688 -1.328125 6.703125 -1.328125 C 7.609375 -1.328125 8.332031 -1.507812 8.875 -1.875 C 9.414062 -2.238281 9.785156 -2.703125 9.984375 -3.265625 L 11.8125 -2.734375 C 11.0625 -0.753906 9.359375 0.234375 6.703125 0.234375 C 4.847656 0.234375 3.4375 -0.316406 2.46875 -1.421875 C 1.5 -2.523438 1.015625 -4.171875 1.015625 -6.359375 C 1.015625 -8.429688 1.5 -10.019531 2.46875 -11.125 C 3.4375 -12.226562 4.820312 -12.78125 6.625 -12.78125 C 10.3125 -12.78125 12.15625 -10.554688 12.15625 -6.109375 L 12.15625 -5.828125 Z M 10 -7.4375 C 9.882812 -8.757812 9.546875 -9.722656 8.984375 -10.328125 C 8.429688 -10.929688 7.632812 -11.234375 6.59375 -11.234375 C 5.570312 -11.234375 4.765625 -10.894531 4.171875 -10.21875 C 3.585938 -9.539062 3.269531 -8.613281 3.21875 -7.4375 Z M 10 -7.4375 "/></g></g></g><g fill="#ffffff" fill-opacity="1"><g transform="translate(261.022493, 210.71955)"><g><path d="M 12.21875 -6.328125 C 12.21875 -1.953125 10.675781 0.234375 7.59375 0.234375 C 6.644531 0.234375 5.851562 0.0625 5.21875 -0.28125 C 4.59375 -0.625 4.082031 -1.179688 3.6875 -1.953125 L 3.671875 -1.953125 C 3.671875 -1.710938 3.65625 -1.34375 3.625 -0.84375 C 3.59375 -0.351562 3.566406 -0.0703125 3.546875 0 L 1.53125 0 C 1.570312 -0.414062 1.59375 -1.28125 1.59375 -2.59375 L 1.59375 -17.203125 L 3.6875 -17.203125 L 3.6875 -12.296875 C 3.6875 -11.796875 3.671875 -11.207031 3.640625 -10.53125 L 3.6875 -10.53125 C 4.070312 -11.332031 4.582031 -11.90625 5.21875 -12.25 C 5.863281 -12.601562 6.65625 -12.78125 7.59375 -12.78125 C 9.175781 -12.78125 10.34375 -12.242188 11.09375 -11.171875 C 11.84375 -10.109375 12.21875 -8.492188 12.21875 -6.328125 Z M 10.015625 -6.265625 C 10.015625 -8.015625 9.78125 -9.269531 9.3125 -10.03125 C 8.851562 -10.789062 8.101562 -11.171875 7.0625 -11.171875 C 5.882812 -11.171875 5.023438 -10.765625 4.484375 -9.953125 C 3.953125 -9.148438 3.6875 -7.878906 3.6875 -6.140625 C 3.6875 -4.492188 3.945312 -3.273438 4.46875 -2.484375 C 5 -1.703125 5.859375 -1.3125 7.046875 -1.3125 C 8.085938 -1.3125 8.84375 -1.695312 9.3125 -2.46875 C 9.78125 -3.25 10.015625 -4.515625 10.015625 -6.265625 Z M 10.015625 -6.265625 "/></g></g></g><g fill="#ffffff" fill-opacity="1"><g transform="translate(274.227384, 210.71955)"><g/></g></g><g fill="#ffffff" fill-opacity="1"><g transform="translate(280.824037, 210.71955)"><g><path d="M 16.015625 -8.34375 C 16.015625 -6.65625 15.6875 -5.175781 15.03125 -3.90625 C 14.375 -2.644531 13.441406 -1.675781 12.234375 -1 C 11.023438 -0.332031 9.632812 0 8.0625 0 L 1.953125 0 L 1.953125 -16.34375 L 7.359375 -16.34375 C 10.117188 -16.34375 12.25 -15.644531 13.75 -14.25 C 15.257812 -12.863281 16.015625 -10.894531 16.015625 -8.34375 Z M 13.78125 -8.34375 C 13.78125 -10.363281 13.222656 -11.90625 12.109375 -12.96875 C 11.003906 -14.03125 9.40625 -14.5625 7.3125 -14.5625 L 4.15625 -14.5625 L 4.15625 -1.78125 L 7.796875 -1.78125 C 9.003906 -1.78125 10.0625 -2.039062 10.96875 -2.5625 C 11.875 -3.082031 12.566406 -3.835938 13.046875 -4.828125 C 13.535156 -5.816406 13.78125 -6.988281 13.78125 -8.34375 Z M 13.78125 -8.34375 "/></g></g></g><g fill="#ffffff" fill-opacity="1"><g transform="translate(297.970683, 210.71955)"><g><path d="M 3.203125 -5.828125 C 3.203125 -4.390625 3.5 -3.28125 4.09375 -2.5 C 4.6875 -1.71875 5.554688 -1.328125 6.703125 -1.328125 C 7.609375 -1.328125 8.332031 -1.507812 8.875 -1.875 C 9.414062 -2.238281 9.785156 -2.703125 9.984375 -3.265625 L 11.8125 -2.734375 C 11.0625 -0.753906 9.359375 0.234375 6.703125 0.234375 C 4.847656 0.234375 3.4375 -0.316406 2.46875 -1.421875 C 1.5 -2.523438 1.015625 -4.171875 1.015625 -6.359375 C 1.015625 -8.429688 1.5 -10.019531 2.46875 -11.125 C 3.4375 -12.226562 4.820312 -12.78125 6.625 -12.78125 C 10.3125 -12.78125 12.15625 -10.554688 12.15625 -6.109375 L 12.15625 -5.828125 Z M 10 -7.4375 C 9.882812 -8.757812 9.546875 -9.722656 8.984375 -10.328125 C 8.429688 -10.929688 7.632812 -11.234375 6.59375 -11.234375 C 5.570312 -11.234375 4.765625 -10.894531 4.171875 -10.21875 C 3.585938 -9.539062 3.269531 -8.613281 3.21875 -7.4375 Z M 10 -7.4375 "/></g></g></g><g fill="#ffffff" fill-opacity="1"><g transform="translate(311.175574, 210.71955)"><g><path d="M 11.015625 -3.46875 C 11.015625 -2.28125 10.566406 -1.363281 9.671875 -0.71875 C 8.785156 -0.0820312 7.535156 0.234375 5.921875 0.234375 C 4.359375 0.234375 3.15625 -0.0195312 2.3125 -0.53125 C 1.46875 -1.050781 0.914062 -1.859375 0.65625 -2.953125 L 2.5 -3.3125 C 2.675781 -2.632812 3.039062 -2.140625 3.59375 -1.828125 C 4.15625 -1.515625 4.929688 -1.359375 5.921875 -1.359375 C 6.984375 -1.359375 7.757812 -1.519531 8.25 -1.84375 C 8.738281 -2.164062 8.984375 -2.65625 8.984375 -3.3125 C 8.984375 -3.800781 8.8125 -4.195312 8.46875 -4.5 C 8.132812 -4.8125 7.585938 -5.070312 6.828125 -5.28125 L 5.328125 -5.671875 C 4.128906 -5.984375 3.273438 -6.285156 2.765625 -6.578125 C 2.265625 -6.878906 1.867188 -7.238281 1.578125 -7.65625 C 1.296875 -8.082031 1.15625 -8.609375 1.15625 -9.234375 C 1.15625 -10.378906 1.5625 -11.25 2.375 -11.84375 C 3.195312 -12.445312 4.390625 -12.75 5.953125 -12.75 C 7.335938 -12.75 8.4375 -12.503906 9.25 -12.015625 C 10.0625 -11.523438 10.578125 -10.742188 10.796875 -9.671875 L 8.921875 -9.4375 C 8.804688 -10 8.492188 -10.425781 7.984375 -10.71875 C 7.472656 -11.019531 6.796875 -11.171875 5.953125 -11.171875 C 5.003906 -11.171875 4.304688 -11.023438 3.859375 -10.734375 C 3.410156 -10.453125 3.1875 -10.019531 3.1875 -9.4375 C 3.1875 -9.082031 3.28125 -8.785156 3.46875 -8.546875 C 3.65625 -8.316406 3.925781 -8.117188 4.28125 -7.953125 C 4.644531 -7.796875 5.414062 -7.578125 6.59375 -7.296875 C 7.695312 -7.015625 8.488281 -6.753906 8.96875 -6.515625 C 9.457031 -6.285156 9.84375 -6.023438 10.125 -5.734375 C 10.40625 -5.453125 10.625 -5.125 10.78125 -4.75 C 10.9375 -4.375 11.015625 -3.945312 11.015625 -3.46875 Z M 11.015625 -3.46875 "/></g></g></g><g fill="#ffffff" fill-opacity="1"><g transform="translate(323.047215, 210.71955)"><g><path d="M 1.59375 -15.21875 L 1.59375 -17.203125 L 3.671875 -17.203125 L 3.671875 -15.21875 Z M 1.59375 0 L 1.59375 -12.546875 L 3.671875 -12.546875 L 3.671875 0 Z M 1.59375 0 "/></g></g></g><g fill="#ffffff" fill-opacity="1"><g transform="translate(328.32222, 210.71955)"><g><path d="M 6.359375 4.921875 C 4.984375 4.921875 3.890625 4.648438 3.078125 4.109375 C 2.265625 3.578125 1.742188 2.816406 1.515625 1.828125 L 3.625 1.53125 C 3.757812 2.113281 4.0625 2.5625 4.53125 2.875 C 5.007812 3.1875 5.632812 3.34375 6.40625 3.34375 C 8.488281 3.34375 9.53125 2.125 9.53125 -0.3125 L 9.53125 -2.328125 L 9.515625 -2.328125 C 9.117188 -1.523438 8.578125 -0.921875 7.890625 -0.515625 C 7.203125 -0.109375 6.394531 0.09375 5.46875 0.09375 C 3.9375 0.09375 2.804688 -0.414062 2.078125 -1.4375 C 1.359375 -2.457031 1 -4.0625 1 -6.25 C 1 -8.46875 1.382812 -10.101562 2.15625 -11.15625 C 2.9375 -12.21875 4.117188 -12.75 5.703125 -12.75 C 6.597656 -12.75 7.367188 -12.546875 8.015625 -12.140625 C 8.671875 -11.734375 9.175781 -11.15625 9.53125 -10.40625 L 9.5625 -10.40625 C 9.5625 -10.632812 9.578125 -11.035156 9.609375 -11.609375 C 9.640625 -12.179688 9.664062 -12.492188 9.6875 -12.546875 L 11.671875 -12.546875 C 11.628906 -12.128906 11.609375 -11.265625 11.609375 -9.953125 L 11.609375 -0.359375 C 11.609375 3.160156 9.859375 4.921875 6.359375 4.921875 Z M 9.53125 -6.28125 C 9.53125 -7.289062 9.390625 -8.164062 9.109375 -8.90625 C 8.835938 -9.644531 8.445312 -10.207031 7.9375 -10.59375 C 7.425781 -10.988281 6.851562 -11.1875 6.21875 -11.1875 C 5.144531 -11.1875 4.363281 -10.800781 3.875 -10.03125 C 3.394531 -9.257812 3.15625 -8.007812 3.15625 -6.28125 C 3.15625 -4.5625 3.378906 -3.328125 3.828125 -2.578125 C 4.285156 -1.828125 5.070312 -1.453125 6.1875 -1.453125 C 6.84375 -1.453125 7.425781 -1.644531 7.9375 -2.03125 C 8.445312 -2.414062 8.835938 -2.96875 9.109375 -3.6875 C 9.390625 -4.414062 9.53125 -5.28125 9.53125 -6.28125 Z M 9.53125 -6.28125 "/></g></g></g><g fill="#ffffff" fill-opacity="1"><g transform="translate(341.527111, 210.71955)"><g><path d="M 9.5625 0 L 9.5625 -7.953125 C 9.5625 -8.785156 9.476562 -9.425781 9.3125 -9.875 C 9.15625 -10.332031 8.898438 -10.660156 8.546875 -10.859375 C 8.191406 -11.066406 7.671875 -11.171875 6.984375 -11.171875 C 5.972656 -11.171875 5.175781 -10.828125 4.59375 -10.140625 C 4.019531 -9.453125 3.734375 -8.492188 3.734375 -7.265625 L 3.734375 0 L 1.640625 0 L 1.640625 -9.875 C 1.640625 -11.332031 1.617188 -12.222656 1.578125 -12.546875 L 3.546875 -12.546875 C 3.554688 -12.503906 3.5625 -12.398438 3.5625 -12.234375 C 3.570312 -12.066406 3.582031 -11.867188 3.59375 -11.640625 C 3.613281 -11.421875 3.628906 -11.007812 3.640625 -10.40625 L 3.671875 -10.40625 C 4.148438 -11.269531 4.703125 -11.878906 5.328125 -12.234375 C 5.960938 -12.597656 6.75 -12.78125 7.6875 -12.78125 C 9.0625 -12.78125 10.066406 -12.4375 10.703125 -11.75 C 11.347656 -11.070312 11.671875 -9.941406 11.671875 -8.359375 L 11.671875 0 Z M 9.5625 0 "/></g></g></g></svg>